<svg width="780" height="939" viewBox="0 0 780 939" fill="none" xmlns="http://www.w3.org/2000/svg">
<g opacity="0.15">
<circle cx="390" cy="390" r="390" fill="#36536B"/>
<circle cx="390" cy="390" r="390" fill="#36536B"/>
<mask id="mask0_404_2" style="mask-type:alpha" maskUnits="userSpaceOnUse" x="0" y="0" width="780" height="780">
<circle cx="390" cy="390" r="390" fill="white"/>
</mask>
<g mask="url(#mask0_404_2)">
</g>
</g>
<g filter="url(#filter0_d_404_2)">
<path fill-rule="evenodd" clip-rule="evenodd" d="M152.776 334.569H344.009C362.35 334.569 377.217 348.805 377.217 366.365V801.635C377.217 819.195 362.35 833.431 344.009 833.431H152.776C134.436 833.431 119.568 819.195 119.568 801.635V366.365C119.568 348.805 134.436 334.569 152.776 334.569Z" fill="#213648"/>
</g>
<path opacity="0.595562" fill-rule="evenodd" clip-rule="evenodd" d="M344.749 334H151.923C142.92 334.549 134.618 338.657 127.015 346.324C131.904 342.056 140.625 336.345 152.155 336.345C152.155 336.345 336.83 336.345 344.517 336.345C356.046 336.345 364.767 342.056 369.657 346.324C362.054 338.657 353.751 334.549 344.749 334Z" fill="url(#paint0_linear_404_2)" fill-opacity="0.65"/>
<path opacity="0.75" fill-rule="evenodd" clip-rule="evenodd" d="M371.999 796.671V368.982C371.999 357.507 367.782 353.264 365.266 350.541C362.75 347.817 362.643 346.427 366.258 348.484C369.873 350.541 377.103 356.531 377.103 368.982V796.671C377.103 809.122 369.873 815.112 366.258 817.169C362.643 819.225 362.75 817.836 365.266 815.112C367.782 812.388 371.999 808.146 371.999 796.671Z" fill="url(#paint1_linear_404_2)"/>
<path opacity="0.75" fill-rule="evenodd" clip-rule="evenodd" d="M124.672 796.671V368.982C124.672 357.507 128.889 353.264 131.405 350.541C133.921 347.817 134.028 346.427 130.413 348.484C126.798 350.541 119.568 356.531 119.568 368.982V796.671C119.568 809.122 126.798 815.112 130.413 817.169C134.028 819.225 133.921 817.836 131.405 815.112C128.889 812.388 124.672 808.146 124.672 796.671Z" fill="url(#paint2_linear_404_2)"/>
<path fill-rule="evenodd" clip-rule="evenodd" d="M117 437.556C117 436.452 117.895 435.556 119 435.556H119.965C121.069 435.556 121.965 436.452 121.965 437.556V497.907C121.965 499.012 121.069 499.907 119.965 499.907H119C117.895 499.907 117 499.012 117 497.907V437.556Z" fill="#2E423C"/>
<path fill-rule="evenodd" clip-rule="evenodd" d="M374.535 490.043C374.535 488.939 375.431 488.043 376.535 488.043H377.5C378.605 488.043 379.5 488.939 379.5 490.043V532.993C379.5 534.098 378.605 534.993 377.5 534.993H376.535C375.431 534.993 374.535 534.098 374.535 532.993V490.043Z" fill="#2E423C"/>
<g clip-path="url(#clip0_404_2)">
<path fill-rule="evenodd" clip-rule="evenodd" d="M225.676 346.444L151.27 346.444C140.165 346.444 132.074 354.008 132.074 363.886V786.276C132.074 799.155 144.576 810.567 158.713 810.567H338.046C351.664 810.567 364.686 799.067 364.686 786.276V365.028C364.686 353.188 355.896 346.515 345.49 346.444L269.904 346.444C269.618 346.491 264.425 348.626 262.231 354.008C260.036 359.389 255.621 363.679 250.787 363.679H245.172C242.874 363.679 236.824 361.45 233.76 354.008C230.697 346.566 225.963 346.491 225.676 346.444Z" fill="white"/>
<mask id="mask1_404_2" style="mask-type:alpha" maskUnits="userSpaceOnUse" x="132" y="346" width="233" height="465">
<path fill-rule="evenodd" clip-rule="evenodd" d="M225.676 346.444L151.27 346.444C140.165 346.444 132.074 354.008 132.074 363.886V786.276C132.074 799.155 144.576 810.567 158.713 810.567H338.046C351.664 810.567 364.686 799.067 364.686 786.276V365.028C364.686 353.188 355.896 346.515 345.49 346.444L269.904 346.444C269.618 346.491 264.425 348.626 262.231 354.008C260.036 359.389 255.621 363.679 250.787 363.679H245.172C242.874 363.679 236.824 361.45 233.76 354.008C230.697 346.566 225.963 346.491 225.676 346.444Z" fill="white"/>
</mask>
<g mask="url(#mask1_404_2)">
<rect x="132" y="346.444" width="233" height="465" fill="url(#paint3_linear_404_2)"/>
<path d="M211.504 475V457.672H207.376V455.032C208.699 455.032 209.765 454.909 210.576 454.664C211.397 454.408 212.011 454.045 212.416 453.576C212.821 453.096 213.061 452.525 213.136 451.864H216.24V475H211.504ZM221.496 475V472.696V471.512C221.496 470.339 221.714 469.325 222.152 468.472C222.589 467.608 223.165 466.861 223.88 466.232C224.605 465.592 225.394 465.032 226.248 464.552C227.112 464.072 227.976 463.619 228.84 463.192C229.704 462.765 230.493 462.339 231.208 461.912C231.933 461.475 232.514 460.989 232.952 460.456C233.389 459.923 233.608 459.293 233.608 458.568C233.608 457.64 233.282 456.883 232.632 456.296C231.992 455.709 231.112 455.416 229.992 455.416C228.829 455.416 227.842 455.752 227.032 456.424C226.221 457.096 225.72 458.109 225.528 459.464H221.064C221.085 457.992 221.426 456.659 222.088 455.464C222.76 454.259 223.762 453.304 225.096 452.6C226.429 451.896 228.104 451.544 230.12 451.544C231.848 451.544 233.336 451.837 234.584 452.424C235.842 453.011 236.813 453.827 237.496 454.872C238.178 455.917 238.52 457.139 238.52 458.536C238.52 459.699 238.306 460.701 237.88 461.544C237.453 462.387 236.888 463.107 236.184 463.704C235.48 464.301 234.706 464.824 233.864 465.272C233.021 465.72 232.178 466.136 231.336 466.52C230.504 466.904 229.736 467.299 229.032 467.704C228.328 468.099 227.762 468.547 227.336 469.048C226.909 469.549 226.696 470.152 226.696 470.856V471.064H238.488V475H221.496ZM246.704 458.856V463.864H241.584V458.856H246.704ZM246.704 469.912V474.904H241.584V469.912H246.704ZM260.451 451.864H265.043V465.96H268.611V469.88H265.043V475H260.547L260.563 469.88H249.907V466.04L260.451 451.864ZM254.227 465.96H260.563V457.48L254.227 465.96ZM279.435 475.352C277.995 475.352 276.651 475.075 275.403 474.52C274.155 473.965 273.137 473.187 272.347 472.184C271.558 471.171 271.115 469.987 271.019 468.632H275.467C275.659 469.528 276.086 470.259 276.747 470.824C277.409 471.379 278.241 471.656 279.243 471.656C280.353 471.656 281.323 471.395 282.155 470.872C282.998 470.349 283.627 469.517 284.043 468.376C284.47 467.235 284.619 465.741 284.491 463.896C284.193 464.461 283.777 464.957 283.243 465.384C282.721 465.8 282.107 466.125 281.403 466.36C280.699 466.584 279.915 466.696 279.051 466.696C277.483 466.696 276.091 466.403 274.875 465.816C273.67 465.219 272.721 464.376 272.027 463.288C271.345 462.189 271.003 460.888 271.003 459.384C271.003 457.869 271.366 456.52 272.091 455.336C272.817 454.152 273.83 453.224 275.131 452.552C276.433 451.88 277.958 451.544 279.707 451.544C281.67 451.544 283.361 452.013 284.779 452.952C286.209 453.88 287.302 455.203 288.059 456.92C288.827 458.627 289.211 460.637 289.211 462.952C289.211 465.715 288.817 468.019 288.027 469.864C287.249 471.699 286.129 473.075 284.667 473.992C283.206 474.899 281.462 475.352 279.435 475.352ZM279.851 462.984C280.502 462.984 281.131 462.84 281.739 462.552C282.358 462.253 282.865 461.88 283.259 461.432C283.654 460.984 283.851 460.52 283.851 460.04C283.862 459.005 283.697 458.12 283.355 457.384C283.025 456.637 282.555 456.067 281.947 455.672C281.35 455.277 280.651 455.08 279.851 455.08C279.115 455.08 278.459 455.251 277.883 455.592C277.307 455.933 276.854 456.413 276.523 457.032C276.193 457.651 276.027 458.365 276.027 459.176C276.027 460.381 276.379 461.32 277.083 461.992C277.787 462.653 278.71 462.984 279.851 462.984Z" fill="white"/>
</g>
</g>
<g clip-path="url(#clip1_404_2)">
<g filter="url(#filter1_d_404_2)">
<rect x="139" y="501" width="218" height="87" rx="5" fill="#FBFCFE"/>
</g>
<g clip-path="url(#clip2_404_2)">
<path d="M155.81 527V519.77H158.47C158.997 519.77 159.468 519.862 159.885 520.045C160.302 520.225 160.63 520.492 160.87 520.845C161.113 521.198 161.235 521.63 161.235 522.14C161.235 522.62 161.128 523.03 160.915 523.37C160.702 523.71 160.402 523.97 160.015 524.15C159.632 524.33 159.18 524.42 158.66 524.42H157.28V527H155.81ZM157.265 523.29H158.62C158.987 523.29 159.287 523.173 159.52 522.94C159.753 522.703 159.87 522.412 159.87 522.065C159.87 521.705 159.747 521.42 159.5 521.21C159.253 520.997 158.953 520.89 158.6 520.89H157.265V523.29ZM163.512 527.1C163.182 527.1 162.885 527.038 162.622 526.915C162.358 526.792 162.15 526.613 161.997 526.38C161.843 526.143 161.767 525.857 161.767 525.52C161.767 524.953 161.978 524.523 162.402 524.23C162.825 523.933 163.493 523.78 164.407 523.77L165.052 523.76V523.45C165.052 523.213 164.982 523.032 164.842 522.905C164.705 522.775 164.492 522.712 164.202 522.715C163.988 522.718 163.785 522.768 163.592 522.865C163.402 522.962 163.272 523.13 163.202 523.37H161.987C162.007 522.997 162.115 522.69 162.312 522.45C162.508 522.207 162.775 522.027 163.112 521.91C163.452 521.79 163.837 521.73 164.267 521.73C164.797 521.73 165.222 521.797 165.542 521.93C165.862 522.06 166.093 522.248 166.237 522.495C166.38 522.738 166.452 523.028 166.452 523.365V527H165.232L165.112 526.11C164.935 526.483 164.713 526.742 164.447 526.885C164.183 527.028 163.872 527.1 163.512 527.1ZM164.002 526.14C164.135 526.14 164.263 526.117 164.387 526.07C164.513 526.02 164.625 525.955 164.722 525.875C164.822 525.792 164.902 525.698 164.962 525.595C165.022 525.492 165.052 525.385 165.052 525.275V524.51L164.527 524.52C164.283 524.523 164.057 524.553 163.847 524.61C163.637 524.663 163.467 524.752 163.337 524.875C163.21 524.998 163.147 525.165 163.147 525.375C163.147 525.615 163.23 525.803 163.397 525.94C163.563 526.073 163.765 526.14 164.002 526.14ZM168.364 528.65C168.01 528.65 167.76 528.62 167.614 528.56C167.47 528.503 167.399 528.475 167.399 528.475V527.545L167.909 527.565C168.132 527.578 168.312 527.567 168.449 527.53C168.585 527.497 168.689 527.452 168.759 527.395C168.832 527.338 168.884 527.278 168.914 527.215C168.944 527.155 168.965 527.107 168.979 527.07L169.074 526.785L167.064 521.83H168.509L169.749 525.2L171.004 521.83H172.429L170.334 527.03C170.154 527.47 169.964 527.807 169.764 528.04C169.564 528.273 169.347 528.433 169.114 528.52C168.884 528.607 168.634 528.65 168.364 528.65ZM172.228 527L174.818 519.77H176.358L178.943 527H177.488L176.898 525.325H174.298L173.693 527H172.228ZM174.623 524.05H176.548L175.593 521.18L174.623 524.05ZM180.029 527V519.77H182.689C183.215 519.77 183.687 519.862 184.104 520.045C184.52 520.225 184.849 520.492 185.089 520.845C185.332 521.198 185.454 521.63 185.454 522.14C185.454 522.62 185.347 523.03 185.134 523.37C184.92 523.71 184.62 523.97 184.234 524.15C183.85 524.33 183.399 524.42 182.879 524.42H181.499V527H180.029ZM181.484 523.29H182.839C183.205 523.29 183.505 523.173 183.739 522.94C183.972 522.703 184.089 522.412 184.089 522.065C184.089 521.705 183.965 521.42 183.719 521.21C183.472 520.997 183.172 520.89 182.819 520.89H181.484V523.29ZM186.552 519.77H188.007V527H186.552V519.77Z" fill="#BA4270"/>
<path opacity="0.5" d="M302.609 525.295C302.609 525.678 302.566 526.005 302.479 526.275C302.392 526.545 302.237 526.75 302.014 526.89C301.794 527.03 301.481 527.1 301.074 527.1C300.817 527.1 300.576 527.07 300.349 527.01C300.126 526.95 299.977 526.905 299.904 526.875L299.969 525.99C300.072 526.027 300.191 526.073 300.324 526.13C300.461 526.183 300.629 526.21 300.829 526.21C301.156 526.21 301.379 526.12 301.499 525.94C301.622 525.76 301.684 525.457 301.684 525.03V519.77H302.609V525.295ZM306.041 527.1C305.771 527.097 305.516 527.058 305.276 526.985C305.039 526.908 304.829 526.797 304.646 526.65C304.462 526.503 304.317 526.322 304.211 526.105C304.107 525.885 304.056 525.63 304.056 525.34V521.83H304.981V525.245C304.981 525.582 305.084 525.855 305.291 526.065C305.501 526.275 305.816 526.38 306.236 526.38C306.616 526.38 306.921 526.282 307.151 526.085C307.384 525.885 307.501 525.588 307.501 525.195V521.83H308.421V527H307.686L307.591 526.01C307.527 526.27 307.419 526.48 307.266 526.64C307.116 526.8 306.934 526.918 306.721 526.995C306.511 527.068 306.284 527.103 306.041 527.1ZM311.698 527.1C311.338 527.1 311.003 527.045 310.693 526.935C310.387 526.822 310.132 526.647 309.928 526.41C309.725 526.17 309.597 525.865 309.543 525.495H310.383C310.43 525.698 310.513 525.868 310.633 526.005C310.757 526.138 310.91 526.24 311.093 526.31C311.277 526.377 311.477 526.41 311.693 526.41C312.04 526.41 312.32 526.345 312.533 526.215C312.747 526.085 312.853 525.885 312.853 525.615C312.853 525.425 312.797 525.273 312.683 525.16C312.573 525.043 312.402 524.958 312.168 524.905L311.098 524.64C310.682 524.54 310.348 524.383 310.098 524.17C309.848 523.957 309.723 523.658 309.723 523.275C309.72 522.972 309.792 522.705 309.938 522.475C310.085 522.245 310.305 522.063 310.598 521.93C310.892 521.797 311.257 521.73 311.693 521.73C312.253 521.73 312.705 521.857 313.048 522.11C313.395 522.36 313.575 522.728 313.588 523.215H312.773C312.74 522.968 312.628 522.773 312.438 522.63C312.252 522.483 312 522.41 311.683 522.41C311.353 522.41 311.085 522.477 310.878 522.61C310.672 522.74 310.568 522.943 310.568 523.22C310.568 523.403 310.642 523.548 310.788 523.655C310.935 523.758 311.152 523.845 311.438 523.915L312.473 524.175C312.713 524.238 312.91 524.322 313.063 524.425C313.22 524.528 313.343 524.643 313.433 524.77C313.527 524.897 313.592 525.03 313.628 525.17C313.668 525.307 313.688 525.438 313.688 525.565C313.688 525.882 313.608 526.155 313.448 526.385C313.292 526.612 313.065 526.788 312.768 526.915C312.475 527.038 312.118 527.1 311.698 527.1ZM317.5 522.505H316.335V525.72C316.335 525.903 316.353 526.038 316.39 526.125C316.43 526.208 316.495 526.262 316.585 526.285C316.678 526.308 316.805 526.32 316.965 526.32H317.53V526.94C317.466 526.963 317.37 526.983 317.24 527C317.113 527.017 316.955 527.025 316.765 527.025C316.408 527.025 316.131 526.977 315.935 526.88C315.738 526.783 315.6 526.64 315.52 526.45C315.443 526.26 315.405 526.027 315.405 525.75V522.505H314.565V521.83H315.43L315.655 520.325H316.335V521.825H317.5V522.505ZM326.028 519.77H326.953V527H326.128L322.248 521.3V527H321.323V519.77H322.208L326.028 525.39V519.77ZM330.659 527.1C330.182 527.1 329.765 526.998 329.409 526.795C329.052 526.588 328.775 526.287 328.579 525.89C328.382 525.493 328.284 525.008 328.284 524.435C328.284 523.895 328.375 523.422 328.559 523.015C328.742 522.608 329.01 522.293 329.364 522.07C329.72 521.843 330.152 521.73 330.659 521.73C331.135 521.73 331.549 521.835 331.899 522.045C332.252 522.252 332.525 522.557 332.719 522.96C332.912 523.363 333.009 523.855 333.009 524.435C333.009 524.962 332.919 525.425 332.739 525.825C332.562 526.225 332.299 526.538 331.949 526.765C331.602 526.988 331.172 527.1 330.659 527.1ZM330.659 526.37C330.969 526.37 331.23 526.292 331.444 526.135C331.657 525.978 331.819 525.753 331.929 525.46C332.039 525.167 332.094 524.818 332.094 524.415C332.094 524.045 332.045 523.713 331.949 523.42C331.852 523.123 331.697 522.888 331.484 522.715C331.274 522.542 330.999 522.455 330.659 522.455C330.345 522.455 330.08 522.533 329.864 522.69C329.647 522.843 329.482 523.067 329.369 523.36C329.259 523.653 329.204 524.005 329.204 524.415C329.204 524.778 329.254 525.108 329.354 525.405C329.454 525.702 329.61 525.937 329.824 526.11C330.037 526.283 330.315 526.37 330.659 526.37ZM340.833 521.83L339.268 527H338.358L337.178 523.185L336.058 527H335.153L333.558 521.83H334.413L335.598 525.805H335.678L336.843 521.83H337.543L338.753 525.795H338.833L339.968 521.83H340.833Z" fill="#36536B"/>
</g>
<path d="M155.23 536.62V535.77H160.7V536.62H158.495V543H157.565V536.62H155.23ZM161.703 543V535.57H162.603V538.59C162.689 538.447 162.806 538.313 162.953 538.19C163.099 538.063 163.278 537.962 163.488 537.885C163.698 537.805 163.941 537.765 164.218 537.765C164.554 537.765 164.859 537.828 165.133 537.955C165.406 538.078 165.623 538.255 165.783 538.485C165.943 538.715 166.023 538.988 166.023 539.305V543H165.098V539.49C165.098 539.18 164.991 538.942 164.778 538.775C164.568 538.605 164.293 538.52 163.953 538.52C163.723 538.52 163.506 538.558 163.303 538.635C163.099 538.708 162.934 538.822 162.808 538.975C162.684 539.125 162.623 539.317 162.623 539.55V543H161.703ZM168.124 540.63C168.124 540.957 168.178 541.253 168.284 541.52C168.394 541.783 168.559 541.993 168.779 542.15C169.003 542.307 169.281 542.385 169.614 542.385C169.944 542.385 170.228 542.308 170.464 542.155C170.704 542.002 170.858 541.78 170.924 541.49H171.799C171.736 541.84 171.596 542.135 171.379 542.375C171.163 542.615 170.901 542.797 170.594 542.92C170.288 543.04 169.968 543.1 169.634 543.1C169.151 543.1 168.726 542.995 168.359 542.785C167.993 542.575 167.706 542.273 167.499 541.88C167.293 541.487 167.189 541.015 167.189 540.465C167.189 539.922 167.283 539.445 167.469 539.035C167.656 538.625 167.926 538.305 168.279 538.075C168.636 537.845 169.064 537.73 169.564 537.73C170.051 537.73 170.463 537.835 170.799 538.045C171.136 538.255 171.391 538.552 171.564 538.935C171.741 539.315 171.829 539.767 171.829 540.29V540.63H168.124ZM168.129 540.005H170.939C170.939 539.708 170.889 539.442 170.789 539.205C170.689 538.965 170.536 538.777 170.329 538.64C170.126 538.5 169.869 538.43 169.559 538.43C169.236 538.43 168.968 538.508 168.754 538.665C168.544 538.818 168.386 539.017 168.279 539.26C168.176 539.5 168.126 539.748 168.129 540.005ZM175.335 544.61V537.83H176.255L176.265 538.73C176.325 538.623 176.402 538.512 176.495 538.395C176.592 538.278 176.709 538.17 176.845 538.07C176.985 537.97 177.147 537.888 177.33 537.825C177.517 537.762 177.729 537.73 177.965 537.73C178.379 537.73 178.742 537.825 179.055 538.015C179.372 538.202 179.619 538.488 179.795 538.875C179.972 539.262 180.06 539.752 180.06 540.345C180.06 540.938 179.974 541.44 179.8 541.85C179.63 542.257 179.384 542.567 179.06 542.78C178.737 542.993 178.347 543.1 177.89 543.1C177.66 543.1 177.455 543.067 177.275 543C177.099 542.937 176.944 542.853 176.81 542.75C176.68 542.643 176.57 542.53 176.48 542.41C176.394 542.29 176.322 542.175 176.265 542.065V544.61H175.335ZM177.715 542.38C178.142 542.38 178.49 542.218 178.76 541.895C179.03 541.568 179.165 541.062 179.165 540.375C179.165 539.785 179.042 539.317 178.795 538.97C178.549 538.623 178.189 538.45 177.715 538.45C177.235 538.45 176.872 538.628 176.625 538.985C176.379 539.338 176.255 539.802 176.255 540.375C176.255 540.745 176.31 541.082 176.42 541.385C176.53 541.688 176.694 541.93 176.91 542.11C177.127 542.29 177.395 542.38 177.715 542.38ZM182.634 543.1C182.301 543.1 182.006 543.042 181.749 542.925C181.493 542.805 181.291 542.633 181.144 542.41C181.001 542.187 180.929 541.917 180.929 541.6C180.929 541.027 181.129 540.6 181.529 540.32C181.929 540.04 182.571 539.89 183.454 539.87L184.379 539.845V539.44C184.379 539.123 184.284 538.873 184.094 538.69C183.904 538.503 183.609 538.41 183.209 538.41C182.913 538.413 182.651 538.483 182.424 538.62C182.201 538.757 182.056 538.98 181.989 539.29H181.174C181.194 538.953 181.289 538.67 181.459 538.44C181.629 538.207 181.866 538.03 182.169 537.91C182.476 537.79 182.838 537.73 183.254 537.73C183.704 537.73 184.078 537.793 184.374 537.92C184.674 538.047 184.898 538.233 185.044 538.48C185.194 538.727 185.269 539.03 185.269 539.39V543H184.479L184.414 542.03C184.214 542.433 183.959 542.713 183.649 542.87C183.343 543.023 183.004 543.1 182.634 543.1ZM182.914 542.435C183.088 542.435 183.259 542.403 183.429 542.34C183.603 542.277 183.761 542.192 183.904 542.085C184.048 541.975 184.161 541.853 184.244 541.72C184.331 541.583 184.376 541.443 184.379 541.3V540.415L183.609 540.43C183.216 540.437 182.886 540.477 182.619 540.55C182.356 540.623 182.158 540.738 182.024 540.895C181.894 541.052 181.829 541.257 181.829 541.51C181.829 541.8 181.929 542.027 182.129 542.19C182.333 542.353 182.594 542.435 182.914 542.435ZM187.193 544.65C186.89 544.65 186.681 544.628 186.568 544.585C186.455 544.542 186.398 544.52 186.398 544.52V543.92L186.923 543.93C187.116 543.937 187.276 543.923 187.403 543.89C187.53 543.857 187.631 543.812 187.708 543.755C187.785 543.698 187.843 543.635 187.883 543.565C187.926 543.495 187.961 543.428 187.988 543.365L188.168 542.875L186.148 537.83H187.083L188.608 541.82L190.123 537.83H191.028L188.848 543.39C188.715 543.717 188.565 543.972 188.398 544.155C188.235 544.338 188.051 544.467 187.848 544.54C187.648 544.613 187.43 544.65 187.193 544.65ZM192.015 543V537.83H192.905V538.58C193.048 538.353 193.245 538.155 193.495 537.985C193.745 537.815 194.07 537.73 194.47 537.73C194.657 537.73 194.847 537.762 195.04 537.825C195.237 537.888 195.417 537.983 195.58 538.11C195.743 538.237 195.87 538.392 195.96 538.575C196.12 538.322 196.337 538.118 196.61 537.965C196.883 537.808 197.192 537.73 197.535 537.73C197.715 537.73 197.903 537.758 198.1 537.815C198.297 537.868 198.478 537.965 198.645 538.105C198.815 538.242 198.953 538.433 199.06 538.68C199.167 538.923 199.22 539.237 199.22 539.62V543H198.29V539.71C198.29 539.397 198.24 539.155 198.14 538.985C198.04 538.812 197.908 538.69 197.745 538.62C197.585 538.55 197.413 538.515 197.23 538.515C197.07 538.515 196.9 538.547 196.72 538.61C196.54 538.673 196.387 538.78 196.26 538.93C196.133 539.08 196.07 539.285 196.07 539.545V543H195.15V539.44C195.15 539.237 195.095 539.067 194.985 538.93C194.878 538.793 194.743 538.69 194.58 538.62C194.42 538.55 194.26 538.515 194.1 538.515C193.923 538.515 193.745 538.55 193.565 538.62C193.388 538.69 193.238 538.802 193.115 538.955C192.995 539.105 192.935 539.302 192.935 539.545V543H192.015ZM201.327 540.63C201.327 540.957 201.381 541.253 201.487 541.52C201.597 541.783 201.762 541.993 201.982 542.15C202.206 542.307 202.484 542.385 202.817 542.385C203.147 542.385 203.431 542.308 203.667 542.155C203.907 542.002 204.061 541.78 204.127 541.49H205.002C204.939 541.84 204.799 542.135 204.582 542.375C204.366 542.615 204.104 542.797 203.797 542.92C203.491 543.04 203.171 543.1 202.837 543.1C202.354 543.1 201.929 542.995 201.562 542.785C201.196 542.575 200.909 542.273 200.702 541.88C200.496 541.487 200.392 541.015 200.392 540.465C200.392 539.922 200.486 539.445 200.672 539.035C200.859 538.625 201.129 538.305 201.482 538.075C201.839 537.845 202.267 537.73 202.767 537.73C203.254 537.73 203.666 537.835 204.002 538.045C204.339 538.255 204.594 538.552 204.767 538.935C204.944 539.315 205.032 539.767 205.032 540.29V540.63H201.327ZM201.332 540.005H204.142C204.142 539.708 204.092 539.442 203.992 539.205C203.892 538.965 203.739 538.777 203.532 538.64C203.329 538.5 203.072 538.43 202.762 538.43C202.439 538.43 202.171 538.508 201.957 538.665C201.747 538.818 201.589 539.017 201.482 539.26C201.379 539.5 201.329 539.748 201.332 540.005ZM206.302 543V537.83H207.197V538.58C207.28 538.437 207.395 538.302 207.542 538.175C207.692 538.048 207.872 537.947 208.082 537.87C208.295 537.793 208.54 537.755 208.817 537.755C209.144 537.755 209.444 537.82 209.717 537.95C209.994 538.08 210.214 538.283 210.377 538.56C210.544 538.833 210.627 539.187 210.627 539.62V543H209.702V539.71C209.702 539.307 209.595 539.008 209.382 538.815C209.172 538.618 208.899 538.52 208.562 538.52C208.329 538.52 208.11 538.558 207.907 538.635C207.704 538.708 207.539 538.822 207.412 538.975C207.285 539.125 207.222 539.315 207.222 539.545V543H206.302ZM214.456 538.505H213.291V541.72C213.291 541.903 213.309 542.038 213.346 542.125C213.386 542.208 213.451 542.262 213.541 542.285C213.634 542.308 213.761 542.32 213.921 542.32H214.486V542.94C214.423 542.963 214.326 542.983 214.196 543C214.069 543.017 213.911 543.025 213.721 543.025C213.364 543.025 213.088 542.977 212.891 542.88C212.694 542.783 212.556 542.64 212.476 542.45C212.399 542.26 212.361 542.027 212.361 541.75V538.505H211.521V537.83H212.386L212.611 536.325H213.291V537.825H214.456V538.505ZM218.089 543V535.57H218.989V538.59C219.076 538.447 219.193 538.313 219.339 538.19C219.486 538.063 219.664 537.962 219.874 537.885C220.084 537.805 220.328 537.765 220.604 537.765C220.941 537.765 221.246 537.828 221.519 537.955C221.793 538.078 222.009 538.255 222.169 538.485C222.329 538.715 222.409 538.988 222.409 539.305V543H221.484V539.49C221.484 539.18 221.378 538.942 221.164 538.775C220.954 538.605 220.679 538.52 220.339 538.52C220.109 538.52 219.893 538.558 219.689 538.635C219.486 538.708 219.321 538.822 219.194 538.975C219.071 539.125 219.009 539.317 219.009 539.55V543H218.089ZM225.261 543.1C224.928 543.1 224.633 543.042 224.376 542.925C224.12 542.805 223.918 542.633 223.771 542.41C223.628 542.187 223.556 541.917 223.556 541.6C223.556 541.027 223.756 540.6 224.156 540.32C224.556 540.04 225.198 539.89 226.081 539.87L227.006 539.845V539.44C227.006 539.123 226.911 538.873 226.721 538.69C226.531 538.503 226.236 538.41 225.836 538.41C225.54 538.413 225.278 538.483 225.051 538.62C224.828 538.757 224.683 538.98 224.616 539.29H223.801C223.821 538.953 223.916 538.67 224.086 538.44C224.256 538.207 224.493 538.03 224.796 537.91C225.103 537.79 225.465 537.73 225.881 537.73C226.331 537.73 226.705 537.793 227.001 537.92C227.301 538.047 227.525 538.233 227.671 538.48C227.821 538.727 227.896 539.03 227.896 539.39V543H227.106L227.041 542.03C226.841 542.433 226.586 542.713 226.276 542.87C225.97 543.023 225.631 543.1 225.261 543.1ZM225.541 542.435C225.715 542.435 225.886 542.403 226.056 542.34C226.23 542.277 226.388 542.192 226.531 542.085C226.675 541.975 226.788 541.853 226.871 541.72C226.958 541.583 227.003 541.443 227.006 541.3V540.415L226.236 540.43C225.843 540.437 225.513 540.477 225.246 540.55C224.983 540.623 224.785 540.738 224.651 540.895C224.521 541.052 224.456 541.257 224.456 541.51C224.456 541.8 224.556 542.027 224.756 542.19C224.96 542.353 225.221 542.435 225.541 542.435ZM231.223 543.1C230.863 543.1 230.528 543.045 230.218 542.935C229.911 542.822 229.656 542.647 229.453 542.41C229.25 542.17 229.121 541.865 229.068 541.495H229.908C229.955 541.698 230.038 541.868 230.158 542.005C230.281 542.138 230.435 542.24 230.618 542.31C230.801 542.377 231.001 542.41 231.218 542.41C231.565 542.41 231.845 542.345 232.058 542.215C232.271 542.085 232.378 541.885 232.378 541.615C232.378 541.425 232.321 541.273 232.208 541.16C232.098 541.043 231.926 540.958 231.693 540.905L230.623 540.64C230.206 540.54 229.873 540.383 229.623 540.17C229.373 539.957 229.248 539.658 229.248 539.275C229.245 538.972 229.316 538.705 229.463 538.475C229.61 538.245 229.83 538.063 230.123 537.93C230.416 537.797 230.781 537.73 231.218 537.73C231.778 537.73 232.23 537.857 232.573 538.11C232.92 538.36 233.1 538.728 233.113 539.215H232.298C232.265 538.968 232.153 538.773 231.963 538.63C231.776 538.483 231.525 538.41 231.208 538.41C230.878 538.41 230.61 538.477 230.403 538.61C230.196 538.74 230.093 538.943 230.093 539.22C230.093 539.403 230.166 539.548 230.313 539.655C230.46 539.758 230.676 539.845 230.963 539.915L231.998 540.175C232.238 540.238 232.435 540.322 232.588 540.425C232.745 540.528 232.868 540.643 232.958 540.77C233.051 540.897 233.116 541.03 233.153 541.17C233.193 541.307 233.213 541.438 233.213 541.565C233.213 541.882 233.133 542.155 232.973 542.385C232.816 542.612 232.59 542.788 232.293 542.915C232 543.038 231.643 543.1 231.223 543.1ZM239.326 543.1C239.023 543.1 238.766 543.06 238.556 542.98C238.349 542.9 238.179 542.798 238.046 542.675C237.913 542.548 237.809 542.42 237.736 542.29C237.663 542.157 237.609 542.04 237.576 541.94L237.476 543H236.771V535.57H237.701V538.65C237.744 538.563 237.809 538.468 237.896 538.365C237.986 538.262 238.101 538.162 238.241 538.065C238.381 537.968 238.546 537.888 238.736 537.825C238.929 537.762 239.149 537.73 239.396 537.73C240.043 537.73 240.556 537.955 240.936 538.405C241.319 538.855 241.511 539.518 241.511 540.395C241.511 540.938 241.429 541.413 241.266 541.82C241.103 542.223 240.859 542.538 240.536 542.765C240.213 542.988 239.809 543.1 239.326 543.1ZM239.161 542.39C239.581 542.39 239.923 542.228 240.186 541.905C240.449 541.578 240.581 541.06 240.581 540.35C240.581 539.747 240.458 539.28 240.211 538.95C239.968 538.617 239.611 538.45 239.141 538.45C238.798 538.45 238.521 538.525 238.311 538.675C238.104 538.822 237.951 539.037 237.851 539.32C237.754 539.603 237.704 539.947 237.701 540.35C237.701 541.073 237.813 541.595 238.036 541.915C238.263 542.232 238.638 542.39 239.161 542.39ZM243.378 540.63C243.378 540.957 243.431 541.253 243.538 541.52C243.648 541.783 243.813 541.993 244.033 542.15C244.256 542.307 244.535 542.385 244.868 542.385C245.198 542.385 245.481 542.308 245.718 542.155C245.958 542.002 246.111 541.78 246.178 541.49H247.053C246.99 541.84 246.85 542.135 246.633 542.375C246.416 542.615 246.155 542.797 245.848 542.92C245.541 543.04 245.221 543.1 244.888 543.1C244.405 543.1 243.98 542.995 243.613 542.785C243.246 542.575 242.96 542.273 242.753 541.88C242.546 541.487 242.443 541.015 242.443 540.465C242.443 539.922 242.536 539.445 242.723 539.035C242.91 538.625 243.18 538.305 243.533 538.075C243.89 537.845 244.318 537.73 244.818 537.73C245.305 537.73 245.716 537.835 246.053 538.045C246.39 538.255 246.645 538.552 246.818 538.935C246.995 539.315 247.083 539.767 247.083 540.29V540.63H243.378ZM243.383 540.005H246.193C246.193 539.708 246.143 539.442 246.043 539.205C245.943 538.965 245.79 538.777 245.583 538.64C245.38 538.5 245.123 538.43 244.813 538.43C244.49 538.43 244.221 538.508 244.008 538.665C243.798 538.818 243.64 539.017 243.533 539.26C243.43 539.5 243.38 539.748 243.383 540.005ZM249.013 540.63C249.013 540.957 249.066 541.253 249.173 541.52C249.283 541.783 249.448 541.993 249.668 542.15C249.891 542.307 250.17 542.385 250.503 542.385C250.833 542.385 251.116 542.308 251.353 542.155C251.593 542.002 251.746 541.78 251.813 541.49H252.688C252.625 541.84 252.485 542.135 252.268 542.375C252.051 542.615 251.79 542.797 251.483 542.92C251.176 543.04 250.856 543.1 250.523 543.1C250.04 543.1 249.615 542.995 249.248 542.785C248.881 542.575 248.595 542.273 248.388 541.88C248.181 541.487 248.078 541.015 248.078 540.465C248.078 539.922 248.171 539.445 248.358 539.035C248.545 538.625 248.815 538.305 249.168 538.075C249.525 537.845 249.953 537.73 250.453 537.73C250.94 537.73 251.351 537.835 251.688 538.045C252.025 538.255 252.28 538.552 252.453 538.935C252.63 539.315 252.718 539.767 252.718 540.29V540.63H249.013ZM249.018 540.005H251.828C251.828 539.708 251.778 539.442 251.678 539.205C251.578 538.965 251.425 538.777 251.218 538.64C251.015 538.5 250.758 538.43 250.448 538.43C250.125 538.43 249.856 538.508 249.643 538.665C249.433 538.818 249.275 539.017 249.168 539.26C249.065 539.5 249.015 539.748 249.018 540.005ZM253.988 543V537.83H254.883V538.58C254.966 538.437 255.081 538.302 255.228 538.175C255.378 538.048 255.558 537.947 255.768 537.87C255.981 537.793 256.226 537.755 256.503 537.755C256.829 537.755 257.129 537.82 257.403 537.95C257.679 538.08 257.899 538.283 258.063 538.56C258.229 538.833 258.313 539.187 258.313 539.62V543H257.388V539.71C257.388 539.307 257.281 539.008 257.068 538.815C256.858 538.618 256.584 538.52 256.248 538.52C256.014 538.52 255.796 538.558 255.593 538.635C255.389 538.708 255.224 538.822 255.098 538.975C254.971 539.125 254.908 539.315 254.908 539.545V543H253.988ZM262.064 544.61V537.83H262.984L262.994 538.73C263.054 538.623 263.13 538.512 263.224 538.395C263.32 538.278 263.437 538.17 263.574 538.07C263.714 537.97 263.875 537.888 264.059 537.825C264.245 537.762 264.457 537.73 264.694 537.73C265.107 537.73 265.47 537.825 265.784 538.015C266.1 538.202 266.347 538.488 266.524 538.875C266.7 539.262 266.789 539.752 266.789 540.345C266.789 540.938 266.702 541.44 266.529 541.85C266.359 542.257 266.112 542.567 265.789 542.78C265.465 542.993 265.075 543.1 264.619 543.1C264.389 543.1 264.184 543.067 264.004 543C263.827 542.937 263.672 542.853 263.539 542.75C263.409 542.643 263.299 542.53 263.209 542.41C263.122 542.29 263.05 542.175 262.994 542.065V544.61H262.064ZM264.444 542.38C264.87 542.38 265.219 542.218 265.489 541.895C265.759 541.568 265.894 541.062 265.894 540.375C265.894 539.785 265.77 539.317 265.524 538.97C265.277 538.623 264.917 538.45 264.444 538.45C263.964 538.45 263.6 538.628 263.354 538.985C263.107 539.338 262.984 539.802 262.984 540.375C262.984 540.745 263.039 541.082 263.149 541.385C263.259 541.688 263.422 541.93 263.639 542.11C263.855 542.29 264.124 542.38 264.444 542.38ZM268.001 543V537.83H268.881V538.825C268.968 538.578 269.09 538.375 269.246 538.215C269.403 538.052 269.581 537.93 269.781 537.85C269.985 537.77 270.195 537.73 270.411 537.73C270.488 537.73 270.563 537.735 270.636 537.745C270.71 537.755 270.766 537.772 270.806 537.795V538.69C270.756 538.667 270.691 538.652 270.611 538.645C270.535 538.635 270.47 538.63 270.416 538.63C270.21 538.617 270.016 538.63 269.836 538.67C269.656 538.707 269.498 538.772 269.361 538.865C269.225 538.958 269.116 539.082 269.036 539.235C268.96 539.385 268.921 539.568 268.921 539.785V543H268.001ZM273.816 543.1C273.339 543.1 272.923 542.998 272.566 542.795C272.209 542.588 271.933 542.287 271.736 541.89C271.539 541.493 271.441 541.008 271.441 540.435C271.441 539.895 271.533 539.422 271.716 539.015C271.899 538.608 272.168 538.293 272.521 538.07C272.878 537.843 273.309 537.73 273.816 537.73C274.293 537.73 274.706 537.835 275.056 538.045C275.409 538.252 275.683 538.557 275.876 538.96C276.069 539.363 276.166 539.855 276.166 540.435C276.166 540.962 276.076 541.425 275.896 541.825C275.719 542.225 275.456 542.538 275.106 542.765C274.759 542.988 274.329 543.1 273.816 543.1ZM273.816 542.37C274.126 542.37 274.388 542.292 274.601 542.135C274.814 541.978 274.976 541.753 275.086 541.46C275.196 541.167 275.251 540.818 275.251 540.415C275.251 540.045 275.203 539.713 275.106 539.42C275.009 539.123 274.854 538.888 274.641 538.715C274.431 538.542 274.156 538.455 273.816 538.455C273.503 538.455 273.238 538.533 273.021 538.69C272.804 538.843 272.639 539.067 272.526 539.36C272.416 539.653 272.361 540.005 272.361 540.415C272.361 540.778 272.411 541.108 272.511 541.405C272.611 541.702 272.768 541.937 272.981 542.11C273.194 542.283 273.473 542.37 273.816 542.37ZM279.436 537.73C279.806 537.73 280.14 537.802 280.436 537.945C280.733 538.085 280.975 538.285 281.161 538.545C281.351 538.805 281.47 539.112 281.516 539.465H280.696C280.666 539.285 280.596 539.12 280.486 538.97C280.38 538.82 280.238 538.7 280.061 538.61C279.885 538.52 279.678 538.475 279.441 538.475C278.998 538.475 278.638 538.635 278.361 538.955C278.085 539.275 277.946 539.765 277.946 540.425C277.946 541.022 278.073 541.5 278.326 541.86C278.583 542.217 278.96 542.395 279.456 542.395C279.693 542.395 279.898 542.35 280.071 542.26C280.248 542.167 280.39 542.045 280.496 541.895C280.603 541.742 280.671 541.578 280.701 541.405H281.506C281.463 541.752 281.346 542.052 281.156 542.305C280.966 542.558 280.723 542.755 280.426 542.895C280.133 543.032 279.803 543.1 279.436 543.1C278.973 543.1 278.561 542.998 278.201 542.795C277.845 542.592 277.565 542.292 277.361 541.895C277.158 541.498 277.056 541.012 277.056 540.435C277.056 539.895 277.148 539.423 277.331 539.02C277.518 538.613 277.788 538.297 278.141 538.07C278.498 537.843 278.93 537.73 279.436 537.73ZM283.427 540.63C283.427 540.957 283.48 541.253 283.587 541.52C283.697 541.783 283.862 541.993 284.082 542.15C284.305 542.307 284.584 542.385 284.917 542.385C285.247 542.385 285.53 542.308 285.767 542.155C286.007 542.002 286.16 541.78 286.227 541.49H287.102C287.039 541.84 286.899 542.135 286.682 542.375C286.465 542.615 286.204 542.797 285.897 542.92C285.59 543.04 285.27 543.1 284.937 543.1C284.454 543.1 284.029 542.995 283.662 542.785C283.295 542.575 283.009 542.273 282.802 541.88C282.595 541.487 282.492 541.015 282.492 540.465C282.492 539.922 282.585 539.445 282.772 539.035C282.959 538.625 283.229 538.305 283.582 538.075C283.939 537.845 284.367 537.73 284.867 537.73C285.354 537.73 285.765 537.835 286.102 538.045C286.439 538.255 286.694 538.552 286.867 538.935C287.044 539.315 287.132 539.767 287.132 540.29V540.63H283.427ZM283.432 540.005H286.242C286.242 539.708 286.192 539.442 286.092 539.205C285.992 538.965 285.839 538.777 285.632 538.64C285.429 538.5 285.172 538.43 284.862 538.43C284.539 538.43 284.27 538.508 284.057 538.665C283.847 538.818 283.689 539.017 283.582 539.26C283.479 539.5 283.429 539.748 283.432 540.005ZM290.198 543.1C289.838 543.1 289.503 543.045 289.193 542.935C288.886 542.822 288.631 542.647 288.428 542.41C288.224 542.17 288.096 541.865 288.043 541.495H288.883C288.929 541.698 289.013 541.868 289.133 542.005C289.256 542.138 289.409 542.24 289.593 542.31C289.776 542.377 289.976 542.41 290.193 542.41C290.539 542.41 290.819 542.345 291.033 542.215C291.246 542.085 291.353 541.885 291.353 541.615C291.353 541.425 291.296 541.273 291.183 541.16C291.073 541.043 290.901 540.958 290.668 540.905L289.598 540.64C289.181 540.54 288.848 540.383 288.598 540.17C288.348 539.957 288.223 539.658 288.223 539.275C288.219 538.972 288.291 538.705 288.438 538.475C288.584 538.245 288.804 538.063 289.098 537.93C289.391 537.797 289.756 537.73 290.193 537.73C290.753 537.73 291.204 537.857 291.548 538.11C291.894 538.36 292.074 538.728 292.088 539.215H291.273C291.239 538.968 291.128 538.773 290.938 538.63C290.751 538.483 290.499 538.41 290.183 538.41C289.853 538.41 289.584 538.477 289.378 538.61C289.171 538.74 289.068 538.943 289.068 539.22C289.068 539.403 289.141 539.548 289.288 539.655C289.434 539.758 289.651 539.845 289.938 539.915L290.973 540.175C291.213 540.238 291.409 540.322 291.563 540.425C291.719 540.528 291.843 540.643 291.933 540.77C292.026 540.897 292.091 541.03 292.128 541.17C292.168 541.307 292.188 541.438 292.188 541.565C292.188 541.882 292.108 542.155 291.948 542.385C291.791 542.612 291.564 542.788 291.268 542.915C290.974 543.038 290.618 543.1 290.198 543.1ZM295.227 543.1C294.867 543.1 294.532 543.045 294.222 542.935C293.915 542.822 293.66 542.647 293.457 542.41C293.254 542.17 293.125 541.865 293.072 541.495H293.912C293.959 541.698 294.042 541.868 294.162 542.005C294.285 542.138 294.439 542.24 294.622 542.31C294.805 542.377 295.005 542.41 295.222 542.41C295.569 542.41 295.849 542.345 296.062 542.215C296.275 542.085 296.382 541.885 296.382 541.615C296.382 541.425 296.325 541.273 296.212 541.16C296.102 541.043 295.93 540.958 295.697 540.905L294.627 540.64C294.21 540.54 293.877 540.383 293.627 540.17C293.377 539.957 293.252 539.658 293.252 539.275C293.249 538.972 293.32 538.705 293.467 538.475C293.614 538.245 293.834 538.063 294.127 537.93C294.42 537.797 294.785 537.73 295.222 537.73C295.782 537.73 296.234 537.857 296.577 538.11C296.924 538.36 297.104 538.728 297.117 539.215H296.302C296.269 538.968 296.157 538.773 295.967 538.63C295.78 538.483 295.529 538.41 295.212 538.41C294.882 538.41 294.614 538.477 294.407 538.61C294.2 538.74 294.097 538.943 294.097 539.22C294.097 539.403 294.17 539.548 294.317 539.655C294.464 539.758 294.68 539.845 294.967 539.915L296.002 540.175C296.242 540.238 296.439 540.322 296.592 540.425C296.749 540.528 296.872 540.643 296.962 540.77C297.055 540.897 297.12 541.03 297.157 541.17C297.197 541.307 297.217 541.438 297.217 541.565C297.217 541.882 297.137 542.155 296.977 542.385C296.82 542.612 296.594 542.788 296.297 542.915C296.004 543.038 295.647 543.1 295.227 543.1ZM299.169 540.63C299.169 540.957 299.222 541.253 299.329 541.52C299.439 541.783 299.604 541.993 299.824 542.15C300.047 542.307 300.326 542.385 300.659 542.385C300.989 542.385 301.272 542.308 301.509 542.155C301.749 542.002 301.902 541.78 301.969 541.49H302.844C302.781 541.84 302.641 542.135 302.424 542.375C302.207 542.615 301.946 542.797 301.639 542.92C301.332 543.04 301.012 543.1 300.679 543.1C300.196 543.1 299.771 542.995 299.404 542.785C299.037 542.575 298.751 542.273 298.544 541.88C298.337 541.487 298.234 541.015 298.234 540.465C298.234 539.922 298.327 539.445 298.514 539.035C298.701 538.625 298.971 538.305 299.324 538.075C299.681 537.845 300.109 537.73 300.609 537.73C301.096 537.73 301.507 537.835 301.844 538.045C302.181 538.255 302.436 538.552 302.609 538.935C302.786 539.315 302.874 539.767 302.874 540.29V540.63H299.169ZM299.174 540.005H301.984C301.984 539.708 301.934 539.442 301.834 539.205C301.734 538.965 301.581 538.777 301.374 538.64C301.171 538.5 300.914 538.43 300.604 538.43C300.281 538.43 300.012 538.508 299.799 538.665C299.589 538.818 299.431 539.017 299.324 539.26C299.221 539.5 299.171 539.748 299.174 540.005ZM306.009 543.1C305.339 543.1 304.807 542.87 304.414 542.41C304.021 541.95 303.824 541.278 303.824 540.395C303.824 539.858 303.902 539.39 304.059 538.99C304.219 538.59 304.456 538.28 304.769 538.06C305.082 537.84 305.472 537.73 305.939 537.73C306.186 537.73 306.404 537.762 306.594 537.825C306.787 537.888 306.954 537.968 307.094 538.065C307.234 538.162 307.347 538.262 307.434 538.365C307.524 538.468 307.591 538.563 307.634 538.65V535.57H308.564V543H307.859L307.759 541.94C307.726 542.04 307.672 542.157 307.599 542.29C307.526 542.42 307.422 542.548 307.289 542.675C307.156 542.798 306.984 542.9 306.774 542.98C306.567 543.06 306.312 543.1 306.009 543.1ZM306.174 542.39C306.697 542.39 307.071 542.232 307.294 541.915C307.521 541.595 307.634 541.073 307.634 540.35C307.631 539.947 307.579 539.603 307.479 539.32C307.382 539.037 307.229 538.822 307.019 538.675C306.812 538.525 306.537 538.45 306.194 538.45C305.767 538.45 305.421 538.602 305.154 538.905C304.887 539.208 304.754 539.69 304.754 540.35C304.754 540.997 304.874 541.498 305.114 541.855C305.357 542.212 305.711 542.39 306.174 542.39ZM309.876 543V541.82H310.976V543H309.876ZM314.048 536.62V535.77H319.518V536.62H317.313V543H316.383V536.62H314.048ZM320.521 543V535.57H321.421V538.59C321.508 538.447 321.624 538.313 321.771 538.19C321.918 538.063 322.096 537.962 322.306 537.885C322.516 537.805 322.759 537.765 323.036 537.765C323.373 537.765 323.678 537.828 323.951 537.955C324.224 538.078 324.441 538.255 324.601 538.485C324.761 538.715 324.841 538.988 324.841 539.305V543H323.916V539.49C323.916 539.18 323.809 538.942 323.596 538.775C323.386 538.605 323.111 538.52 322.771 538.52C322.541 538.52 322.324 538.558 322.121 538.635C321.918 538.708 321.753 538.822 321.626 538.975C321.503 539.125 321.441 539.317 321.441 539.55V543H320.521ZM326.943 540.63C326.943 540.957 326.996 541.253 327.103 541.52C327.213 541.783 327.378 541.993 327.598 542.15C327.821 542.307 328.099 542.385 328.433 542.385C328.763 542.385 329.046 542.308 329.283 542.155C329.523 542.002 329.676 541.78 329.743 541.49H330.618C330.554 541.84 330.414 542.135 330.198 542.375C329.981 542.615 329.719 542.797 329.413 542.92C329.106 543.04 328.786 543.1 328.453 543.1C327.969 543.1 327.544 542.995 327.178 542.785C326.811 542.575 326.524 542.273 326.318 541.88C326.111 541.487 326.008 541.015 326.008 540.465C326.008 539.922 326.101 539.445 326.288 539.035C326.474 538.625 326.744 538.305 327.098 538.075C327.454 537.845 327.883 537.73 328.383 537.73C328.869 537.73 329.281 537.835 329.618 538.045C329.954 538.255 330.209 538.552 330.383 538.935C330.559 539.315 330.648 539.767 330.648 540.29V540.63H326.943ZM326.948 540.005H329.758C329.758 539.708 329.708 539.442 329.608 539.205C329.508 538.965 329.354 538.777 329.148 538.64C328.944 538.5 328.688 538.43 328.378 538.43C328.054 538.43 327.786 538.508 327.573 538.665C327.363 538.818 327.204 539.017 327.098 539.26C326.994 539.5 326.944 539.748 326.948 540.005ZM158.46 552.505H157.295V555.72C157.295 555.903 157.313 556.038 157.35 556.125C157.39 556.208 157.455 556.262 157.545 556.285C157.638 556.308 157.765 556.32 157.925 556.32H158.49V556.94C158.427 556.963 158.33 556.983 158.2 557C158.073 557.017 157.915 557.025 157.725 557.025C157.368 557.025 157.092 556.977 156.895 556.88C156.698 556.783 156.56 556.64 156.48 556.45C156.403 556.26 156.365 556.027 156.365 555.75V552.505H155.525V551.83H156.39L156.615 550.325H157.295V551.825H158.46V552.505ZM161.707 557.1C161.23 557.1 160.813 556.998 160.457 556.795C160.1 556.588 159.823 556.287 159.627 555.89C159.43 555.493 159.332 555.008 159.332 554.435C159.332 553.895 159.423 553.422 159.607 553.015C159.79 552.608 160.058 552.293 160.412 552.07C160.768 551.843 161.2 551.73 161.707 551.73C162.183 551.73 162.597 551.835 162.947 552.045C163.3 552.252 163.573 552.557 163.767 552.96C163.96 553.363 164.057 553.855 164.057 554.435C164.057 554.962 163.967 555.425 163.787 555.825C163.61 556.225 163.347 556.538 162.997 556.765C162.65 556.988 162.22 557.1 161.707 557.1ZM161.707 556.37C162.017 556.37 162.278 556.292 162.492 556.135C162.705 555.978 162.867 555.753 162.977 555.46C163.087 555.167 163.142 554.818 163.142 554.415C163.142 554.045 163.093 553.713 162.997 553.42C162.9 553.123 162.745 552.888 162.532 552.715C162.322 552.542 162.047 552.455 161.707 552.455C161.393 552.455 161.128 552.533 160.912 552.69C160.695 552.843 160.53 553.067 160.417 553.36C160.307 553.653 160.252 554.005 160.252 554.415C160.252 554.778 160.302 555.108 160.402 555.405C160.502 555.702 160.658 555.937 160.872 556.11C161.085 556.283 161.363 556.37 161.707 556.37ZM167.728 552.505H166.563V555.72C166.563 555.903 166.581 556.038 166.618 556.125C166.658 556.208 166.723 556.262 166.813 556.285C166.906 556.308 167.033 556.32 167.193 556.32H167.758V556.94C167.694 556.963 167.598 556.983 167.468 557C167.341 557.017 167.183 557.025 166.993 557.025C166.636 557.025 166.359 556.977 166.163 556.88C165.966 556.783 165.828 556.64 165.748 556.45C165.671 556.26 165.633 556.027 165.633 555.75V552.505H164.793V551.83H165.658L165.883 550.325H166.563V551.825H167.728V552.505ZM170.447 557.1C170.114 557.1 169.819 557.042 169.562 556.925C169.305 556.805 169.104 556.633 168.957 556.41C168.814 556.187 168.742 555.917 168.742 555.6C168.742 555.027 168.942 554.6 169.342 554.32C169.742 554.04 170.384 553.89 171.267 553.87L172.192 553.845V553.44C172.192 553.123 172.097 552.873 171.907 552.69C171.717 552.503 171.422 552.41 171.022 552.41C170.725 552.413 170.464 552.483 170.237 552.62C170.014 552.757 169.869 552.98 169.802 553.29H168.987C169.007 552.953 169.102 552.67 169.272 552.44C169.442 552.207 169.679 552.03 169.982 551.91C170.289 551.79 170.65 551.73 171.067 551.73C171.517 551.73 171.89 551.793 172.187 551.92C172.487 552.047 172.71 552.233 172.857 552.48C173.007 552.727 173.082 553.03 173.082 553.39V557H172.292L172.227 556.03C172.027 556.433 171.772 556.713 171.462 556.87C171.155 557.023 170.817 557.1 170.447 557.1ZM170.727 556.435C170.9 556.435 171.072 556.403 171.242 556.34C171.415 556.277 171.574 556.192 171.717 556.085C171.86 555.975 171.974 555.853 172.057 555.72C172.144 555.583 172.189 555.443 172.192 555.3V554.415L171.422 554.43C171.029 554.437 170.699 554.477 170.432 554.55C170.169 554.623 169.97 554.738 169.837 554.895C169.707 555.052 169.642 555.257 169.642 555.51C169.642 555.8 169.742 556.027 169.942 556.19C170.145 556.353 170.407 556.435 170.727 556.435ZM175.966 557.065C175.686 557.065 175.46 557.027 175.286 556.95C175.116 556.873 174.985 556.77 174.891 556.64C174.801 556.51 174.74 556.362 174.706 556.195C174.676 556.025 174.661 555.85 174.661 555.67V549.57H175.571V555.58C175.571 555.84 175.621 556.035 175.721 556.165C175.825 556.295 175.968 556.367 176.151 556.38L176.431 556.385V556.985C176.355 557.008 176.275 557.027 176.191 557.04C176.108 557.057 176.033 557.065 175.966 557.065ZM181.375 557.1C181.041 557.1 180.746 557.042 180.49 556.925C180.233 556.805 180.031 556.633 179.885 556.41C179.741 556.187 179.67 555.917 179.67 555.6C179.67 555.027 179.87 554.6 180.27 554.32C180.67 554.04 181.311 553.89 182.195 553.87L183.12 553.845V553.44C183.12 553.123 183.025 552.873 182.835 552.69C182.645 552.503 182.35 552.41 181.95 552.41C181.653 552.413 181.391 552.483 181.165 552.62C180.941 552.757 180.796 552.98 180.73 553.29H179.915C179.935 552.953 180.03 552.67 180.2 552.44C180.37 552.207 180.606 552.03 180.91 551.91C181.216 551.79 181.578 551.73 181.995 551.73C182.445 551.73 182.818 551.793 183.115 551.92C183.415 552.047 183.638 552.233 183.785 552.48C183.935 552.727 184.01 553.03 184.01 553.39V557H183.22L183.155 556.03C182.955 556.433 182.7 556.713 182.39 556.87C182.083 557.023 181.745 557.1 181.375 557.1ZM181.655 556.435C181.828 556.435 182 556.403 182.17 556.34C182.343 556.277 182.501 556.192 182.645 556.085C182.788 555.975 182.901 555.853 182.985 555.72C183.071 555.583 183.116 555.443 183.12 555.3V554.415L182.35 554.43C181.956 554.437 181.626 554.477 181.36 554.55C181.096 554.623 180.898 554.738 180.765 554.895C180.635 555.052 180.57 555.257 180.57 555.51C180.57 555.8 180.67 556.027 180.87 556.19C181.073 556.353 181.335 556.435 181.655 556.435ZM185.589 557V551.83H186.479V552.58C186.623 552.353 186.819 552.155 187.069 551.985C187.319 551.815 187.644 551.73 188.044 551.73C188.231 551.73 188.421 551.762 188.614 551.825C188.811 551.888 188.991 551.983 189.154 552.11C189.318 552.237 189.444 552.392 189.534 552.575C189.694 552.322 189.911 552.118 190.184 551.965C190.458 551.808 190.766 551.73 191.109 551.73C191.289 551.73 191.478 551.758 191.674 551.815C191.871 551.868 192.053 551.965 192.219 552.105C192.389 552.242 192.528 552.433 192.634 552.68C192.741 552.923 192.794 553.237 192.794 553.62V557H191.864V553.71C191.864 553.397 191.814 553.155 191.714 552.985C191.614 552.812 191.483 552.69 191.319 552.62C191.159 552.55 190.988 552.515 190.804 552.515C190.644 552.515 190.474 552.547 190.294 552.61C190.114 552.673 189.961 552.78 189.834 552.93C189.708 553.08 189.644 553.285 189.644 553.545V557H188.724V553.44C188.724 553.237 188.669 553.067 188.559 552.93C188.453 552.793 188.318 552.69 188.154 552.62C187.994 552.55 187.834 552.515 187.674 552.515C187.498 552.515 187.319 552.55 187.139 552.62C186.963 552.69 186.813 552.802 186.689 552.955C186.569 553.105 186.509 553.302 186.509 553.545V557H185.589ZM196.297 557.1C195.82 557.1 195.403 556.998 195.047 556.795C194.69 556.588 194.413 556.287 194.217 555.89C194.02 555.493 193.922 555.008 193.922 554.435C193.922 553.895 194.013 553.422 194.197 553.015C194.38 552.608 194.648 552.293 195.002 552.07C195.358 551.843 195.79 551.73 196.297 551.73C196.773 551.73 197.187 551.835 197.537 552.045C197.89 552.252 198.163 552.557 198.357 552.96C198.55 553.363 198.647 553.855 198.647 554.435C198.647 554.962 198.557 555.425 198.377 555.825C198.2 556.225 197.937 556.538 197.587 556.765C197.24 556.988 196.81 557.1 196.297 557.1ZM196.297 556.37C196.607 556.37 196.868 556.292 197.082 556.135C197.295 555.978 197.457 555.753 197.567 555.46C197.677 555.167 197.732 554.818 197.732 554.415C197.732 554.045 197.683 553.713 197.587 553.42C197.49 553.123 197.335 552.888 197.122 552.715C196.912 552.542 196.637 552.455 196.297 552.455C195.983 552.455 195.718 552.533 195.502 552.69C195.285 552.843 195.12 553.067 195.007 553.36C194.897 553.653 194.842 554.005 194.842 554.415C194.842 554.778 194.892 555.108 194.992 555.405C195.092 555.702 195.248 555.937 195.462 556.11C195.675 556.283 195.953 556.37 196.297 556.37ZM201.669 557.1C201.399 557.097 201.144 557.058 200.904 556.985C200.667 556.908 200.457 556.797 200.274 556.65C200.091 556.503 199.946 556.322 199.839 556.105C199.736 555.885 199.684 555.63 199.684 555.34V551.83H200.609V555.245C200.609 555.582 200.712 555.855 200.919 556.065C201.129 556.275 201.444 556.38 201.864 556.38C202.244 556.38 202.549 556.282 202.779 556.085C203.012 555.885 203.129 555.588 203.129 555.195V551.83H204.049V557H203.314L203.219 556.01C203.156 556.27 203.047 556.48 202.894 556.64C202.744 556.8 202.562 556.918 202.349 556.995C202.139 557.068 201.912 557.103 201.669 557.1ZM205.56 557V551.83H206.455V552.58C206.538 552.437 206.653 552.302 206.8 552.175C206.95 552.048 207.13 551.947 207.34 551.87C207.553 551.793 207.798 551.755 208.075 551.755C208.402 551.755 208.702 551.82 208.975 551.95C209.252 552.08 209.472 552.283 209.635 552.56C209.802 552.833 209.885 553.187 209.885 553.62V557H208.96V553.71C208.96 553.307 208.853 553.008 208.64 552.815C208.43 552.618 208.157 552.52 207.82 552.52C207.587 552.52 207.368 552.558 207.165 552.635C206.962 552.708 206.797 552.822 206.67 552.975C206.543 553.125 206.48 553.315 206.48 553.545V557H205.56ZM213.714 552.505H212.549V555.72C212.549 555.903 212.567 556.038 212.604 556.125C212.644 556.208 212.709 556.262 212.799 556.285C212.892 556.308 213.019 556.32 213.179 556.32H213.744V556.94C213.681 556.963 213.584 556.983 213.454 557C213.327 557.017 213.169 557.025 212.979 557.025C212.622 557.025 212.346 556.977 212.149 556.88C211.952 556.783 211.814 556.64 211.734 556.45C211.657 556.26 211.619 556.027 211.619 555.75V552.505H210.779V551.83H211.644L211.869 550.325H212.549V551.825H213.714V552.505ZM219.085 557.1C218.415 557.1 217.883 556.87 217.49 556.41C217.097 555.95 216.9 555.278 216.9 554.395C216.9 553.858 216.978 553.39 217.135 552.99C217.295 552.59 217.532 552.28 217.845 552.06C218.158 551.84 218.548 551.73 219.015 551.73C219.262 551.73 219.48 551.762 219.67 551.825C219.863 551.888 220.03 551.968 220.17 552.065C220.31 552.162 220.423 552.262 220.51 552.365C220.6 552.468 220.667 552.563 220.71 552.65V549.57H221.64V557H220.935L220.835 555.94C220.802 556.04 220.748 556.157 220.675 556.29C220.602 556.42 220.498 556.548 220.365 556.675C220.232 556.798 220.06 556.9 219.85 556.98C219.643 557.06 219.388 557.1 219.085 557.1ZM219.25 556.39C219.773 556.39 220.147 556.232 220.37 555.915C220.597 555.595 220.71 555.073 220.71 554.35C220.707 553.947 220.655 553.603 220.555 553.32C220.458 553.037 220.305 552.822 220.095 552.675C219.888 552.525 219.613 552.45 219.27 552.45C218.843 552.45 218.497 552.602 218.23 552.905C217.963 553.208 217.83 553.69 217.83 554.35C217.83 554.997 217.95 555.498 218.19 555.855C218.433 556.212 218.787 556.39 219.25 556.39ZM223.827 554.63C223.827 554.957 223.881 555.253 223.987 555.52C224.097 555.783 224.262 555.993 224.482 556.15C224.706 556.307 224.984 556.385 225.317 556.385C225.647 556.385 225.931 556.308 226.167 556.155C226.407 556.002 226.561 555.78 226.627 555.49H227.502C227.439 555.84 227.299 556.135 227.082 556.375C226.866 556.615 226.604 556.797 226.297 556.92C225.991 557.04 225.671 557.1 225.337 557.1C224.854 557.1 224.429 556.995 224.062 556.785C223.696 556.575 223.409 556.273 223.202 555.88C222.996 555.487 222.892 555.015 222.892 554.465C222.892 553.922 222.986 553.445 223.172 553.035C223.359 552.625 223.629 552.305 223.982 552.075C224.339 551.845 224.767 551.73 225.267 551.73C225.754 551.73 226.166 551.835 226.502 552.045C226.839 552.255 227.094 552.552 227.267 552.935C227.444 553.315 227.532 553.767 227.532 554.29V554.63H223.827ZM223.832 554.005H226.642C226.642 553.708 226.592 553.442 226.492 553.205C226.392 552.965 226.239 552.777 226.032 552.64C225.829 552.5 225.572 552.43 225.262 552.43C224.939 552.43 224.671 552.508 224.457 552.665C224.247 552.818 224.089 553.017 223.982 553.26C223.879 553.5 223.829 553.748 223.832 554.005ZM230.667 557.1C229.997 557.1 229.465 556.87 229.072 556.41C228.679 555.95 228.482 555.278 228.482 554.395C228.482 553.858 228.56 553.39 228.717 552.99C228.877 552.59 229.114 552.28 229.427 552.06C229.74 551.84 230.13 551.73 230.597 551.73C230.844 551.73 231.062 551.762 231.252 551.825C231.445 551.888 231.612 551.968 231.752 552.065C231.892 552.162 232.005 552.262 232.092 552.365C232.182 552.468 232.249 552.563 232.292 552.65V549.57H233.222V557H232.517L232.417 555.94C232.384 556.04 232.33 556.157 232.257 556.29C232.184 556.42 232.08 556.548 231.947 556.675C231.814 556.798 231.642 556.9 231.432 556.98C231.225 557.06 230.97 557.1 230.667 557.1ZM230.832 556.39C231.355 556.39 231.729 556.232 231.952 555.915C232.179 555.595 232.292 555.073 232.292 554.35C232.289 553.947 232.237 553.603 232.137 553.32C232.04 553.037 231.887 552.822 231.677 552.675C231.47 552.525 231.195 552.45 230.852 552.45C230.425 552.45 230.079 552.602 229.812 552.905C229.545 553.208 229.412 553.69 229.412 554.35C229.412 554.997 229.532 555.498 229.772 555.855C230.015 556.212 230.369 556.39 230.832 556.39ZM236.649 557.1C236.379 557.097 236.124 557.058 235.884 556.985C235.648 556.908 235.438 556.797 235.254 556.65C235.071 556.503 234.926 556.322 234.819 556.105C234.716 555.885 234.664 555.63 234.664 555.34V551.83H235.589V555.245C235.589 555.582 235.693 555.855 235.899 556.065C236.109 556.275 236.424 556.38 236.844 556.38C237.224 556.38 237.529 556.282 237.759 556.085C237.993 555.885 238.109 555.588 238.109 555.195V551.83H239.029V557H238.294L238.199 556.01C238.136 556.27 238.028 556.48 237.874 556.64C237.724 556.8 237.543 556.918 237.329 556.995C237.119 557.068 236.893 557.103 236.649 557.1ZM242.532 551.73C242.902 551.73 243.235 551.802 243.532 551.945C243.829 552.085 244.07 552.285 244.257 552.545C244.447 552.805 244.565 553.112 244.612 553.465H243.792C243.762 553.285 243.692 553.12 243.582 552.97C243.475 552.82 243.334 552.7 243.157 552.61C242.98 552.52 242.774 552.475 242.537 552.475C242.094 552.475 241.734 552.635 241.457 552.955C241.18 553.275 241.042 553.765 241.042 554.425C241.042 555.022 241.169 555.5 241.422 555.86C241.679 556.217 242.055 556.395 242.552 556.395C242.789 556.395 242.994 556.35 243.167 556.26C243.344 556.167 243.485 556.045 243.592 555.895C243.699 555.742 243.767 555.578 243.797 555.405H244.602C244.559 555.752 244.442 556.052 244.252 556.305C244.062 556.558 243.819 556.755 243.522 556.895C243.229 557.032 242.899 557.1 242.532 557.1C242.069 557.1 241.657 556.998 241.297 556.795C240.94 556.592 240.66 556.292 240.457 555.895C240.254 555.498 240.152 555.012 240.152 554.435C240.152 553.895 240.244 553.423 240.427 553.02C240.614 552.613 240.884 552.297 241.237 552.07C241.594 551.843 242.025 551.73 242.532 551.73ZM248.323 552.505H247.158V555.72C247.158 555.903 247.177 556.038 247.213 556.125C247.253 556.208 247.318 556.262 247.408 556.285C247.502 556.308 247.628 556.32 247.788 556.32H248.353V556.94C248.29 556.963 248.193 556.983 248.063 557C247.937 557.017 247.778 557.025 247.588 557.025C247.232 557.025 246.955 556.977 246.758 556.88C246.562 556.783 246.423 556.64 246.343 556.45C246.267 556.26 246.228 556.027 246.228 555.75V552.505H245.388V551.83H246.253L246.478 550.325H247.158V551.825H248.323V552.505ZM250.175 554.63C250.175 554.957 250.228 555.253 250.335 555.52C250.445 555.783 250.61 555.993 250.83 556.15C251.053 556.307 251.332 556.385 251.665 556.385C251.995 556.385 252.278 556.308 252.515 556.155C252.755 556.002 252.908 555.78 252.975 555.49H253.85C253.787 555.84 253.647 556.135 253.43 556.375C253.213 556.615 252.952 556.797 252.645 556.92C252.338 557.04 252.018 557.1 251.685 557.1C251.202 557.1 250.777 556.995 250.41 556.785C250.043 556.575 249.757 556.273 249.55 555.88C249.343 555.487 249.24 555.015 249.24 554.465C249.24 553.922 249.333 553.445 249.52 553.035C249.707 552.625 249.977 552.305 250.33 552.075C250.687 551.845 251.115 551.73 251.615 551.73C252.102 551.73 252.513 551.835 252.85 552.045C253.187 552.255 253.442 552.552 253.615 552.935C253.792 553.315 253.88 553.767 253.88 554.29V554.63H250.175ZM250.18 554.005H252.99C252.99 553.708 252.94 553.442 252.84 553.205C252.74 552.965 252.587 552.777 252.38 552.64C252.177 552.5 251.92 552.43 251.61 552.43C251.287 552.43 251.018 552.508 250.805 552.665C250.595 552.818 250.437 553.017 250.33 553.26C250.227 553.5 250.177 553.748 250.18 554.005ZM257.015 557.1C256.345 557.1 255.813 556.87 255.42 556.41C255.026 555.95 254.83 555.278 254.83 554.395C254.83 553.858 254.908 553.39 255.065 552.99C255.225 552.59 255.461 552.28 255.775 552.06C256.088 551.84 256.478 551.73 256.945 551.73C257.191 551.73 257.41 551.762 257.6 551.825C257.793 551.888 257.96 551.968 258.1 552.065C258.24 552.162 258.353 552.262 258.44 552.365C258.53 552.468 258.596 552.563 258.64 552.65V549.57H259.57V557H258.865L258.765 555.94C258.731 556.04 258.678 556.157 258.605 556.29C258.531 556.42 258.428 556.548 258.295 556.675C258.161 556.798 257.99 556.9 257.78 556.98C257.573 557.06 257.318 557.1 257.015 557.1ZM257.18 556.39C257.703 556.39 258.076 556.232 258.3 555.915C258.526 555.595 258.64 555.073 258.64 554.35C258.636 553.947 258.585 553.603 258.485 553.32C258.388 553.037 258.235 552.822 258.025 552.675C257.818 552.525 257.543 552.45 257.2 552.45C256.773 552.45 256.426 552.602 256.16 552.905C255.893 553.208 255.76 553.69 255.76 554.35C255.76 554.997 255.88 555.498 256.12 555.855C256.363 556.212 256.716 556.39 257.18 556.39ZM266.322 551.83V552.505H265.067V557H264.137V552.505H263.047V551.83H264.137V551.03C264.137 550.62 264.242 550.308 264.452 550.095C264.662 549.878 264.975 549.77 265.392 549.77H266.367L266.372 550.425H265.597C265.387 550.425 265.243 550.482 265.167 550.595C265.09 550.708 265.052 550.88 265.052 551.11V551.83H266.322ZM267.464 557V551.83H268.344V552.825C268.431 552.578 268.553 552.375 268.709 552.215C268.866 552.052 269.044 551.93 269.244 551.85C269.448 551.77 269.658 551.73 269.874 551.73C269.951 551.73 270.026 551.735 270.099 551.745C270.173 551.755 270.229 551.772 270.269 551.795V552.69C270.219 552.667 270.154 552.652 270.074 552.645C269.998 552.635 269.933 552.63 269.879 552.63C269.673 552.617 269.479 552.63 269.299 552.67C269.119 552.707 268.961 552.772 268.824 552.865C268.688 552.958 268.579 553.082 268.499 553.235C268.423 553.385 268.384 553.568 268.384 553.785V557H267.464ZM273.279 557.1C272.802 557.1 272.386 556.998 272.029 556.795C271.672 556.588 271.396 556.287 271.199 555.89C271.002 555.493 270.904 555.008 270.904 554.435C270.904 553.895 270.996 553.422 271.179 553.015C271.362 552.608 271.631 552.293 271.984 552.07C272.341 551.843 272.772 551.73 273.279 551.73C273.756 551.73 274.169 551.835 274.519 552.045C274.872 552.252 275.146 552.557 275.339 552.96C275.532 553.363 275.629 553.855 275.629 554.435C275.629 554.962 275.539 555.425 275.359 555.825C275.182 556.225 274.919 556.538 274.569 556.765C274.222 556.988 273.792 557.1 273.279 557.1ZM273.279 556.37C273.589 556.37 273.851 556.292 274.064 556.135C274.277 555.978 274.439 555.753 274.549 555.46C274.659 555.167 274.714 554.818 274.714 554.415C274.714 554.045 274.666 553.713 274.569 553.42C274.472 553.123 274.317 552.888 274.104 552.715C273.894 552.542 273.619 552.455 273.279 552.455C272.966 552.455 272.701 552.533 272.484 552.69C272.267 552.843 272.102 553.067 271.989 553.36C271.879 553.653 271.824 554.005 271.824 554.415C271.824 554.778 271.874 555.108 271.974 555.405C272.074 555.702 272.231 555.937 272.444 556.11C272.657 556.283 272.936 556.37 273.279 556.37ZM276.839 557V551.83H277.729V552.58C277.873 552.353 278.069 552.155 278.319 551.985C278.569 551.815 278.894 551.73 279.294 551.73C279.481 551.73 279.671 551.762 279.864 551.825C280.061 551.888 280.241 551.983 280.404 552.11C280.568 552.237 280.694 552.392 280.784 552.575C280.944 552.322 281.161 552.118 281.434 551.965C281.708 551.808 282.016 551.73 282.359 551.73C282.539 551.73 282.728 551.758 282.924 551.815C283.121 551.868 283.303 551.965 283.469 552.105C283.639 552.242 283.778 552.433 283.884 552.68C283.991 552.923 284.044 553.237 284.044 553.62V557H283.114V553.71C283.114 553.397 283.064 553.155 282.964 552.985C282.864 552.812 282.733 552.69 282.569 552.62C282.409 552.55 282.238 552.515 282.054 552.515C281.894 552.515 281.724 552.547 281.544 552.61C281.364 552.673 281.211 552.78 281.084 552.93C280.958 553.08 280.894 553.285 280.894 553.545V557H279.974V553.44C279.974 553.237 279.919 553.067 279.809 552.93C279.703 552.793 279.568 552.69 279.404 552.62C279.244 552.55 279.084 552.515 278.924 552.515C278.748 552.515 278.569 552.55 278.389 552.62C278.213 552.69 278.063 552.802 277.939 552.955C277.819 553.105 277.759 553.302 277.759 553.545V557H276.839ZM288.238 558.65C287.935 558.65 287.726 558.628 287.613 558.585C287.5 558.542 287.443 558.52 287.443 558.52V557.92L287.968 557.93C288.161 557.937 288.321 557.923 288.448 557.89C288.575 557.857 288.676 557.812 288.753 557.755C288.83 557.698 288.888 557.635 288.928 557.565C288.971 557.495 289.006 557.428 289.033 557.365L289.213 556.875L287.193 551.83H288.128L289.653 555.82L291.168 551.83H292.073L289.893 557.39C289.76 557.717 289.61 557.972 289.443 558.155C289.28 558.338 289.096 558.467 288.893 558.54C288.693 558.613 288.475 558.65 288.238 558.65ZM294.929 557.1C294.453 557.1 294.036 556.998 293.679 556.795C293.323 556.588 293.046 556.287 292.849 555.89C292.653 555.493 292.554 555.008 292.554 554.435C292.554 553.895 292.646 553.422 292.829 553.015C293.013 552.608 293.281 552.293 293.634 552.07C293.991 551.843 294.423 551.73 294.929 551.73C295.406 551.73 295.819 551.835 296.169 552.045C296.523 552.252 296.796 552.557 296.989 552.96C297.183 553.363 297.279 553.855 297.279 554.435C297.279 554.962 297.189 555.425 297.009 555.825C296.833 556.225 296.569 556.538 296.219 556.765C295.873 556.988 295.443 557.1 294.929 557.1ZM294.929 556.37C295.239 556.37 295.501 556.292 295.714 556.135C295.928 555.978 296.089 555.753 296.199 555.46C296.309 555.167 296.364 554.818 296.364 554.415C296.364 554.045 296.316 553.713 296.219 553.42C296.123 553.123 295.968 552.888 295.754 552.715C295.544 552.542 295.269 552.455 294.929 552.455C294.616 552.455 294.351 552.533 294.134 552.69C293.918 552.843 293.753 553.067 293.639 553.36C293.529 553.653 293.474 554.005 293.474 554.415C293.474 554.778 293.524 555.108 293.624 555.405C293.724 555.702 293.881 555.937 294.094 556.11C294.308 556.283 294.586 556.37 294.929 556.37ZM300.302 557.1C300.032 557.097 299.777 557.058 299.537 556.985C299.3 556.908 299.09 556.797 298.907 556.65C298.723 556.503 298.578 556.322 298.472 556.105C298.368 555.885 298.317 555.63 298.317 555.34V551.83H299.242V555.245C299.242 555.582 299.345 555.855 299.552 556.065C299.762 556.275 300.077 556.38 300.497 556.38C300.877 556.38 301.182 556.282 301.412 556.085C301.645 555.885 301.762 555.588 301.762 555.195V551.83H302.682V557H301.947L301.852 556.01C301.788 556.27 301.68 556.48 301.527 556.64C301.377 556.8 301.195 556.918 300.982 556.995C300.772 557.068 300.545 557.103 300.302 557.1ZM304.193 557V551.83H305.073V552.825C305.159 552.578 305.281 552.375 305.438 552.215C305.594 552.052 305.773 551.93 305.973 551.85C306.176 551.77 306.386 551.73 306.603 551.73C306.679 551.73 306.754 551.735 306.828 551.745C306.901 551.755 306.958 551.772 306.998 551.795V552.69C306.948 552.667 306.883 552.652 306.803 552.645C306.726 552.635 306.661 552.63 306.608 552.63C306.401 552.617 306.208 552.63 306.028 552.67C305.848 552.707 305.689 552.772 305.553 552.865C305.416 552.958 305.308 553.082 305.228 553.235C305.151 553.385 305.113 553.568 305.113 553.785V557H304.193ZM157.195 571.1C156.862 571.1 156.567 571.042 156.31 570.925C156.053 570.805 155.852 570.633 155.705 570.41C155.562 570.187 155.49 569.917 155.49 569.6C155.49 569.027 155.69 568.6 156.09 568.32C156.49 568.04 157.132 567.89 158.015 567.87L158.94 567.845V567.44C158.94 567.123 158.845 566.873 158.655 566.69C158.465 566.503 158.17 566.41 157.77 566.41C157.473 566.413 157.212 566.483 156.985 566.62C156.762 566.757 156.617 566.98 156.55 567.29H155.735C155.755 566.953 155.85 566.67 156.02 566.44C156.19 566.207 156.427 566.03 156.73 565.91C157.037 565.79 157.398 565.73 157.815 565.73C158.265 565.73 158.638 565.793 158.935 565.92C159.235 566.047 159.458 566.233 159.605 566.48C159.755 566.727 159.83 567.03 159.83 567.39V571H159.04L158.975 570.03C158.775 570.433 158.52 570.713 158.21 570.87C157.903 571.023 157.565 571.1 157.195 571.1ZM157.475 570.435C157.648 570.435 157.82 570.403 157.99 570.34C158.163 570.277 158.322 570.192 158.465 570.085C158.608 569.975 158.722 569.853 158.805 569.72C158.892 569.583 158.937 569.443 158.94 569.3V568.415L158.17 568.43C157.777 568.437 157.447 568.477 157.18 568.55C156.917 568.623 156.718 568.738 156.585 568.895C156.455 569.052 156.39 569.257 156.39 569.51C156.39 569.8 156.49 570.027 156.69 570.19C156.893 570.353 157.155 570.435 157.475 570.435ZM163.47 565.73C163.84 565.73 164.173 565.802 164.47 565.945C164.766 566.085 165.008 566.285 165.195 566.545C165.385 566.805 165.503 567.112 165.55 567.465H164.73C164.7 567.285 164.63 567.12 164.52 566.97C164.413 566.82 164.271 566.7 164.095 566.61C163.918 566.52 163.711 566.475 163.475 566.475C163.031 566.475 162.671 566.635 162.395 566.955C162.118 567.275 161.98 567.765 161.98 568.425C161.98 569.022 162.106 569.5 162.36 569.86C162.616 570.217 162.993 570.395 163.49 570.395C163.726 570.395 163.931 570.35 164.105 570.26C164.281 570.167 164.423 570.045 164.53 569.895C164.636 569.742 164.705 569.578 164.735 569.405H165.54C165.496 569.752 165.38 570.052 165.19 570.305C165 570.558 164.756 570.755 164.46 570.895C164.166 571.032 163.836 571.1 163.47 571.1C163.006 571.1 162.595 570.998 162.235 570.795C161.878 570.592 161.598 570.292 161.395 569.895C161.191 569.498 161.09 569.012 161.09 568.435C161.09 567.895 161.181 567.423 161.365 567.02C161.551 566.613 161.821 566.297 162.175 566.07C162.531 565.843 162.963 565.73 163.47 565.73ZM168.86 565.73C169.23 565.73 169.563 565.802 169.86 565.945C170.157 566.085 170.398 566.285 170.585 566.545C170.775 566.805 170.893 567.112 170.94 567.465H170.12C170.09 567.285 170.02 567.12 169.91 566.97C169.803 566.82 169.662 566.7 169.485 566.61C169.308 566.52 169.102 566.475 168.865 566.475C168.422 566.475 168.062 566.635 167.785 566.955C167.508 567.275 167.37 567.765 167.37 568.425C167.37 569.022 167.497 569.5 167.75 569.86C168.007 570.217 168.383 570.395 168.88 570.395C169.117 570.395 169.322 570.35 169.495 570.26C169.672 570.167 169.813 570.045 169.92 569.895C170.027 569.742 170.095 569.578 170.125 569.405H170.93C170.887 569.752 170.77 570.052 170.58 570.305C170.39 570.558 170.147 570.755 169.85 570.895C169.557 571.032 169.227 571.1 168.86 571.1C168.397 571.1 167.985 570.998 167.625 570.795C167.268 570.592 166.988 570.292 166.785 569.895C166.582 569.498 166.48 569.012 166.48 568.435C166.48 567.895 166.572 567.423 166.755 567.02C166.942 566.613 167.212 566.297 167.565 566.07C167.922 565.843 168.353 565.73 168.86 565.73ZM174.246 571.1C173.769 571.1 173.352 570.998 172.996 570.795C172.639 570.588 172.362 570.287 172.166 569.89C171.969 569.493 171.871 569.008 171.871 568.435C171.871 567.895 171.962 567.422 172.146 567.015C172.329 566.608 172.597 566.293 172.951 566.07C173.307 565.843 173.739 565.73 174.246 565.73C174.722 565.73 175.136 565.835 175.486 566.045C175.839 566.252 176.112 566.557 176.306 566.96C176.499 567.363 176.596 567.855 176.596 568.435C176.596 568.962 176.506 569.425 176.326 569.825C176.149 570.225 175.886 570.538 175.536 570.765C175.189 570.988 174.759 571.1 174.246 571.1ZM174.246 570.37C174.556 570.37 174.817 570.292 175.031 570.135C175.244 569.978 175.406 569.753 175.516 569.46C175.626 569.167 175.681 568.818 175.681 568.415C175.681 568.045 175.632 567.713 175.536 567.42C175.439 567.123 175.284 566.888 175.071 566.715C174.861 566.542 174.586 566.455 174.246 566.455C173.932 566.455 173.667 566.533 173.451 566.69C173.234 566.843 173.069 567.067 172.956 567.36C172.846 567.653 172.791 568.005 172.791 568.415C172.791 568.778 172.841 569.108 172.941 569.405C173.041 569.702 173.197 569.937 173.411 570.11C173.624 570.283 173.902 570.37 174.246 570.37ZM179.618 571.1C179.348 571.097 179.093 571.058 178.853 570.985C178.616 570.908 178.406 570.797 178.223 570.65C178.04 570.503 177.895 570.322 177.788 570.105C177.685 569.885 177.633 569.63 177.633 569.34V565.83H178.558V569.245C178.558 569.582 178.661 569.855 178.868 570.065C179.078 570.275 179.393 570.38 179.813 570.38C180.193 570.38 180.498 570.282 180.728 570.085C180.961 569.885 181.078 569.588 181.078 569.195V565.83H181.998V571H181.263L181.168 570.01C181.105 570.27 180.996 570.48 180.843 570.64C180.693 570.8 180.511 570.918 180.298 570.995C180.088 571.068 179.861 571.103 179.618 571.1ZM183.509 571V565.83H184.404V566.58C184.487 566.437 184.602 566.302 184.749 566.175C184.899 566.048 185.079 565.947 185.289 565.87C185.502 565.793 185.747 565.755 186.024 565.755C186.351 565.755 186.651 565.82 186.924 565.95C187.201 566.08 187.421 566.283 187.584 566.56C187.751 566.833 187.834 567.187 187.834 567.62V571H186.909V567.71C186.909 567.307 186.802 567.008 186.589 566.815C186.379 566.618 186.106 566.52 185.769 566.52C185.536 566.52 185.317 566.558 185.114 566.635C184.911 566.708 184.746 566.822 184.619 566.975C184.492 567.125 184.429 567.315 184.429 567.545V571H183.509ZM191.663 566.505H190.498V569.72C190.498 569.903 190.516 570.038 190.553 570.125C190.593 570.208 190.658 570.262 190.748 570.285C190.841 570.308 190.968 570.32 191.128 570.32H191.693V570.94C191.63 570.963 191.533 570.983 191.403 571C191.276 571.017 191.118 571.025 190.928 571.025C190.571 571.025 190.295 570.977 190.098 570.88C189.901 570.783 189.763 570.64 189.683 570.45C189.606 570.26 189.568 570.027 189.568 569.75V566.505H188.728V565.83H189.593L189.818 564.325H190.498V565.825H191.663V566.505ZM196.296 565.83V571H195.401V565.83H196.296ZM196.316 563.775V564.735H195.371V563.775H196.316ZM199.758 571.1C199.398 571.1 199.063 571.045 198.753 570.935C198.447 570.822 198.192 570.647 197.988 570.41C197.785 570.17 197.657 569.865 197.603 569.495H198.443C198.49 569.698 198.573 569.868 198.693 570.005C198.817 570.138 198.97 570.24 199.153 570.31C199.337 570.377 199.537 570.41 199.753 570.41C200.1 570.41 200.38 570.345 200.593 570.215C200.807 570.085 200.913 569.885 200.913 569.615C200.913 569.425 200.857 569.273 200.743 569.16C200.633 569.043 200.462 568.958 200.228 568.905L199.158 568.64C198.742 568.54 198.408 568.383 198.158 568.17C197.908 567.957 197.783 567.658 197.783 567.275C197.78 566.972 197.852 566.705 197.998 566.475C198.145 566.245 198.365 566.063 198.658 565.93C198.952 565.797 199.317 565.73 199.753 565.73C200.313 565.73 200.765 565.857 201.108 566.11C201.455 566.36 201.635 566.728 201.648 567.215H200.833C200.8 566.968 200.688 566.773 200.498 566.63C200.312 566.483 200.06 566.41 199.743 566.41C199.413 566.41 199.145 566.477 198.938 566.61C198.732 566.74 198.628 566.943 198.628 567.22C198.628 567.403 198.702 567.548 198.848 567.655C198.995 567.758 199.212 567.845 199.498 567.915L200.533 568.175C200.773 568.238 200.97 568.322 201.123 568.425C201.28 568.528 201.403 568.643 201.493 568.77C201.587 568.897 201.652 569.03 201.688 569.17C201.728 569.307 201.748 569.438 201.748 569.565C201.748 569.882 201.668 570.155 201.508 570.385C201.352 570.612 201.125 570.788 200.828 570.915C200.535 571.038 200.178 571.1 199.758 571.1ZM210.99 568.245C210.99 568.828 210.895 569.335 210.705 569.765C210.515 570.192 210.206 570.522 209.78 570.755C209.356 570.985 208.795 571.1 208.095 571.1C207.391 571.1 206.828 570.983 206.405 570.75C205.981 570.513 205.675 570.178 205.485 569.745C205.298 569.312 205.205 568.795 205.205 568.195V563.77H206.69V568.305C206.69 568.845 206.82 569.24 207.08 569.49C207.34 569.737 207.678 569.86 208.095 569.86C208.371 569.86 208.616 569.807 208.83 569.7C209.043 569.59 209.21 569.422 209.33 569.195C209.453 568.965 209.515 568.668 209.515 568.305V563.77H210.99V568.245ZM215.156 571.1C214.799 571.1 214.449 571.055 214.106 570.965C213.763 570.875 213.449 570.74 213.166 570.56C212.883 570.38 212.648 570.155 212.461 569.885C212.278 569.615 212.168 569.298 212.131 568.935H213.626C213.676 569.155 213.771 569.34 213.911 569.49C214.051 569.64 214.228 569.755 214.441 569.835C214.654 569.915 214.891 569.955 215.151 569.955C215.418 569.955 215.661 569.922 215.881 569.855C216.101 569.788 216.278 569.688 216.411 569.555C216.544 569.418 216.611 569.248 216.611 569.045C216.611 568.862 216.556 568.712 216.446 568.595C216.339 568.478 216.194 568.383 216.011 568.31C215.828 568.237 215.619 568.177 215.386 568.13L214.136 567.875C213.589 567.772 213.156 567.555 212.836 567.225C212.516 566.892 212.351 566.448 212.341 565.895C212.338 565.442 212.458 565.05 212.701 564.72C212.948 564.387 213.281 564.13 213.701 563.95C214.124 563.77 214.598 563.68 215.121 563.68C215.744 563.68 216.268 563.778 216.691 563.975C217.118 564.168 217.441 564.432 217.661 564.765C217.884 565.095 217.999 565.463 218.006 565.87H216.541C216.514 565.617 216.438 565.415 216.311 565.265C216.184 565.115 216.021 565.007 215.821 564.94C215.624 564.873 215.399 564.84 215.146 564.84C214.953 564.84 214.776 564.862 214.616 564.905C214.459 564.948 214.326 565.01 214.216 565.09C214.106 565.167 214.021 565.258 213.961 565.365C213.901 565.472 213.871 565.592 213.871 565.725C213.871 565.935 213.941 566.105 214.081 566.235C214.221 566.365 214.483 566.472 214.866 566.555L216.106 566.81C216.549 566.897 216.901 567.025 217.161 567.195C217.424 567.365 217.621 567.557 217.751 567.77C217.884 567.983 217.971 568.202 218.011 568.425C218.054 568.645 218.076 568.848 218.076 569.035C218.076 569.425 217.953 569.777 217.706 570.09C217.463 570.4 217.123 570.647 216.686 570.83C216.249 571.01 215.739 571.1 215.156 571.1ZM224.219 571.1C223.352 571.1 222.649 570.927 222.109 570.58C221.569 570.23 221.259 569.692 221.179 568.965L222.699 568.935C222.779 569.265 222.95 569.517 223.214 569.69C223.48 569.86 223.814 569.945 224.214 569.945C224.454 569.945 224.665 569.907 224.849 569.83C225.035 569.75 225.182 569.643 225.289 569.51C225.395 569.373 225.449 569.218 225.449 569.045C225.449 568.778 225.364 568.58 225.194 568.45C225.024 568.317 224.762 568.21 224.409 568.13L223.224 567.875C222.674 567.765 222.232 567.547 221.899 567.22C221.569 566.89 221.4 566.448 221.394 565.895C221.39 565.442 221.512 565.05 221.759 564.72C222.009 564.387 222.347 564.13 222.774 563.95C223.204 563.77 223.685 563.68 224.219 563.68C224.765 563.68 225.237 563.778 225.634 563.975C226.034 564.168 226.34 564.43 226.554 564.76C226.77 565.087 226.875 565.448 226.869 565.845L225.394 565.87C225.347 565.55 225.24 565.298 225.074 565.115C224.907 564.932 224.63 564.84 224.244 564.84C224.044 564.84 223.865 564.862 223.709 564.905C223.552 564.948 223.417 565.01 223.304 565.09C223.19 565.167 223.104 565.258 223.044 565.365C222.987 565.472 222.959 565.592 222.959 565.725C222.959 565.935 223.029 566.102 223.169 566.225C223.312 566.345 223.58 566.457 223.974 566.56L225.139 566.845C225.795 567.002 226.269 567.27 226.559 567.65C226.852 568.03 226.999 568.492 226.999 569.035C226.999 569.452 226.884 569.815 226.654 570.125C226.427 570.435 226.105 570.675 225.689 570.845C225.272 571.015 224.782 571.1 224.219 571.1ZM223.594 562.735H224.859V564.035H223.594V562.735ZM223.569 570.655H224.829V571.955H223.569V570.655ZM229.21 571V565.585H227.92V564.76C228.334 564.76 228.667 564.722 228.92 564.645C229.177 564.565 229.369 564.452 229.495 564.305C229.622 564.155 229.697 563.977 229.72 563.77H230.69V571H229.21ZM234.998 563.67C235.858 563.67 236.536 563.992 237.033 564.635C237.529 565.275 237.778 566.197 237.778 567.4C237.778 568.597 237.533 569.515 237.043 570.155C236.553 570.792 235.871 571.11 234.998 571.11C234.121 571.11 233.436 570.792 232.943 570.155C232.453 569.518 232.208 568.602 232.208 567.405C232.208 566.605 232.321 565.927 232.548 565.37C232.774 564.813 233.096 564.392 233.513 564.105C233.929 563.815 234.424 563.67 234.998 563.67ZM234.998 569.915C235.428 569.915 235.743 569.723 235.943 569.34C236.143 568.953 236.243 568.308 236.243 567.405C236.243 566.482 236.141 565.82 235.938 565.42C235.734 565.02 235.419 564.82 234.993 564.82C234.566 564.82 234.248 565.022 234.038 565.425C233.831 565.828 233.728 566.488 233.728 567.405C233.728 568.305 233.831 568.948 234.038 569.335C234.244 569.722 234.564 569.915 234.998 569.915ZM241.899 563.77H243.334V568.175H244.449V569.4H243.334V571H241.929L241.934 569.4H238.604V568.2L241.899 563.77ZM239.954 568.175H241.934V565.525L239.954 568.175ZM245.231 571V569.41H246.831V571H245.231ZM250.527 571.11C250.077 571.11 249.657 571.023 249.267 570.85C248.877 570.677 248.558 570.433 248.312 570.12C248.065 569.803 247.927 569.433 247.897 569.01H249.287C249.347 569.29 249.48 569.518 249.687 569.695C249.893 569.868 250.153 569.955 250.467 569.955C250.813 569.955 251.117 569.873 251.377 569.71C251.64 569.547 251.837 569.287 251.967 568.93C252.1 568.573 252.147 568.107 252.107 567.53C252.013 567.707 251.883 567.862 251.717 567.995C251.553 568.125 251.362 568.227 251.142 568.3C250.922 568.37 250.677 568.405 250.407 568.405C249.917 568.405 249.482 568.313 249.102 568.13C248.725 567.943 248.428 567.68 248.212 567.34C247.998 566.997 247.892 566.59 247.892 566.12C247.892 565.647 248.005 565.225 248.232 564.855C248.458 564.485 248.775 564.195 249.182 563.985C249.588 563.775 250.065 563.67 250.612 563.67C251.225 563.67 251.753 563.817 252.197 564.11C252.643 564.4 252.985 564.813 253.222 565.35C253.462 565.883 253.582 566.512 253.582 567.235C253.582 568.098 253.458 568.818 253.212 569.395C252.968 569.968 252.618 570.398 252.162 570.685C251.705 570.968 251.16 571.11 250.527 571.11ZM250.657 567.245C250.86 567.245 251.057 567.2 251.247 567.11C251.44 567.017 251.598 566.9 251.722 566.76C251.845 566.62 251.907 566.475 251.907 566.325C251.91 566.002 251.858 565.725 251.752 565.495C251.648 565.262 251.502 565.083 251.312 564.96C251.125 564.837 250.907 564.775 250.657 564.775C250.427 564.775 250.222 564.828 250.042 564.935C249.862 565.042 249.72 565.192 249.617 565.385C249.513 565.578 249.462 565.802 249.462 566.055C249.462 566.432 249.572 566.725 249.792 566.935C250.012 567.142 250.3 567.245 250.657 567.245ZM257.224 563.67C258.084 563.67 258.762 563.992 259.259 564.635C259.756 565.275 260.004 566.197 260.004 567.4C260.004 568.597 259.759 569.515 259.269 570.155C258.779 570.792 258.097 571.11 257.224 571.11C256.347 571.11 255.662 570.792 255.169 570.155C254.679 569.518 254.434 568.602 254.434 567.405C254.434 566.605 254.547 565.927 254.774 565.37C255.001 564.813 255.322 564.392 255.739 564.105C256.156 563.815 256.651 563.67 257.224 563.67ZM257.224 569.915C257.654 569.915 257.969 569.723 258.169 569.34C258.369 568.953 258.469 568.308 258.469 567.405C258.469 566.482 258.367 565.82 258.164 565.42C257.961 565.02 257.646 564.82 257.219 564.82C256.792 564.82 256.474 565.022 256.264 565.425C256.057 565.828 255.954 566.488 255.954 567.405C255.954 568.305 256.057 568.948 256.264 569.335C256.471 569.722 256.791 569.915 257.224 569.915ZM260.989 571V569.82H262.089V571H260.989Z" fill="#36536B"/>
</g>
<defs>
<filter id="filter0_d_404_2" x="64.568" y="279.569" width="417.65" height="658.861" filterUnits="userSpaceOnUse" color-interpolation-filters="sRGB">
<feFlood flood-opacity="0" result="BackgroundImageFix"/>
<feColorMatrix in="SourceAlpha" type="matrix" values="0 0 0 0 0 0 0 0 0 0 0 0 0 0 0 0 0 0 127 0" result="hardAlpha"/>
<feOffset dx="25" dy="25"/>
<feGaussianBlur stdDeviation="40"/>
<feColorMatrix type="matrix" values="0 0 0 0 0.212302 0 0 0 0 0.32521 0 0 0 0 0.419299 0 0 0 0.300727 0"/>
<feBlend mode="normal" in2="BackgroundImageFix" result="effect1_dropShadow_404_2"/>
<feBlend mode="normal" in="SourceGraphic" in2="effect1_dropShadow_404_2" result="shape"/>
</filter>
<filter id="filter1_d_404_2" x="134" y="496" width="248" height="117" filterUnits="userSpaceOnUse" color-interpolation-filters="sRGB">
<feFlood flood-opacity="0" result="BackgroundImageFix"/>
<feColorMatrix in="SourceAlpha" type="matrix" values="0 0 0 0 0 0 0 0 0 0 0 0 0 0 0 0 0 0 127 0" result="hardAlpha"/>
<feMorphology radius="10" operator="erode" in="SourceAlpha" result="effect1_dropShadow_404_2"/>
<feOffset dx="10" dy="10"/>
<feGaussianBlur stdDeviation="12.5"/>
<feColorMatrix type="matrix" values="0 0 0 0 0.212302 0 0 0 0 0.32521 0 0 0 0 0.419299 0 0 0 0.25 0"/>
<feBlend mode="normal" in2="BackgroundImageFix" result="effect1_dropShadow_404_2"/>
<feBlend mode="normal" in="SourceGraphic" in2="effect1_dropShadow_404_2" result="shape"/>
</filter>
<linearGradient id="paint0_linear_404_2" x1="127.015" y1="334" x2="127.015" y2="346.324" gradientUnits="userSpaceOnUse">
<stop stop-color="#454545"/>
<stop offset="0.226279" stop-color="#999999"/>
<stop offset="1" stop-color="white"/>
</linearGradient>
<linearGradient id="paint1_linear_404_2" x1="377.103" y1="419.747" x2="367.642" y2="419.747" gradientUnits="userSpaceOnUse">
<stop stop-color="white" stop-opacity="0.01"/>
<stop offset="0.222178" stop-color="#BABABA"/>
<stop offset="0.54678" stop-color="white" stop-opacity="0.01"/>
<stop offset="1" stop-color="white" stop-opacity="0.01"/>
</linearGradient>
<linearGradient id="paint2_linear_404_2" x1="119.568" y1="419.487" x2="129.044" y2="419.487" gradientUnits="userSpaceOnUse">
<stop stop-color="white" stop-opacity="0.01"/>
<stop offset="0.222178" stop-color="#BABABA"/>
<stop offset="0.54678" stop-color="white" stop-opacity="0.01"/>
<stop offset="1" stop-color="white" stop-opacity="0.01"/>
</linearGradient>
<linearGradient id="paint3_linear_404_2" x1="132.907" y1="346.444" x2="132.907" y2="807.824" gradientUnits="userSpaceOnUse">
<stop stop-color="#9CB6CD"/>
<stop offset="0.420564" stop-color="#9AB3CA"/>
<stop offset="0.716592" stop-color="#557496"/>
<stop offset="1" stop-color="#475178"/>
</linearGradient>
<clipPath id="clip0_404_2">
<rect width="233" height="465" fill="white" transform="translate(132.074 346.444)"/>
</clipPath>
<clipPath id="clip1_404_2">
<rect width="218" height="87" fill="white" transform="translate(139 501)"/>
</clipPath>
<clipPath id="clip2_404_2">
<rect width="187" height="11" fill="white" transform="translate(155 517)"/>
</clipPath>
</defs>
</svg>
