<svg width="768" height="541" viewBox="0 0 768 541" fill="none" xmlns="http://www.w3.org/2000/svg">
<g opacity="0.15">
<circle cx="383.5" cy="-188.5" r="474.5" fill="#36536B"/>
<circle cx="383.5" cy="-188.5" r="474.5" fill="#36536B"/>
<mask id="mask0_404_2" style="mask-type:alpha" maskUnits="userSpaceOnUse" x="-91" y="-663" width="949" height="949">
<circle cx="383.5" cy="-188.5" r="474.5" fill="white"/>
</mask>
<g mask="url(#mask0_404_2)">
</g>
</g>
<g filter="url(#filter0_d_404_2)">
<path fill-rule="evenodd" clip-rule="evenodd" d="M326.629 136.342H442.241C453.329 136.342 462.318 144.883 462.318 155.419V416.581C462.318 427.117 453.329 435.658 442.241 435.658H326.629C315.541 435.658 306.552 427.117 306.552 416.581V155.419C306.552 144.883 315.541 136.342 326.629 136.342Z" fill="#213648"/>
</g>
<path opacity="0.595562" fill-rule="evenodd" clip-rule="evenodd" d="M442.688 136H326.113C320.67 136.329 315.651 138.794 311.055 143.394C314.011 140.834 319.283 137.407 326.253 137.407C326.253 137.407 437.901 137.407 442.548 137.407C449.519 137.407 454.791 140.834 457.747 143.394C453.15 138.794 448.131 136.329 442.688 136Z" fill="url(#paint0_linear_404_2)" fill-opacity="0.65"/>
<path opacity="0.75" fill-rule="evenodd" clip-rule="evenodd" d="M459.163 413.603V156.989C459.163 150.104 456.614 147.559 455.092 145.924C453.571 144.29 453.507 143.456 455.692 144.69C457.878 145.924 462.249 149.518 462.249 156.989V413.603C462.249 421.073 457.878 424.667 455.692 425.901C453.507 427.135 453.571 426.302 455.092 424.667C456.614 423.033 459.163 420.488 459.163 413.603Z" fill="url(#paint1_linear_404_2)"/>
<path opacity="0.75" fill-rule="evenodd" clip-rule="evenodd" d="M309.638 413.603V156.989C309.638 150.104 312.188 147.559 313.709 145.924C315.23 144.29 315.295 143.456 313.109 144.69C310.924 145.924 306.552 149.518 306.552 156.989V413.603C306.552 421.073 310.924 424.667 313.109 425.901C315.295 427.135 315.23 426.302 313.709 424.667C312.188 423.033 309.638 420.488 309.638 413.603Z" fill="url(#paint2_linear_404_2)"/>
<path fill-rule="evenodd" clip-rule="evenodd" d="M305 198.435C305 197.606 305.672 196.934 306.501 196.934C307.329 196.934 308.001 197.606 308.001 198.435V234.044C308.001 234.872 307.329 235.544 306.501 235.544C305.672 235.544 305 234.872 305 234.044V198.435Z" fill="#2E423C"/>
<path fill-rule="evenodd" clip-rule="evenodd" d="M460.696 229.927C460.696 229.098 461.368 228.426 462.197 228.426C463.026 228.426 463.698 229.098 463.698 229.927V255.095C463.698 255.924 463.026 256.596 462.197 256.596C461.368 256.596 460.696 255.924 460.696 255.095V229.927Z" fill="#2E423C"/>
<path fill-rule="evenodd" clip-rule="evenodd" d="M370.701 143.467L325.718 143.467C319.005 143.467 314.113 148.005 314.113 153.932V407.365C314.113 415.093 321.672 421.941 330.218 421.941H438.636C446.869 421.941 454.741 415.04 454.741 407.365V154.617C454.741 147.513 449.428 143.509 443.137 143.467L397.44 143.467C397.267 143.495 394.128 144.776 392.801 148.005C391.474 151.234 388.805 153.808 385.882 153.808H382.488C381.098 153.808 377.441 152.47 375.589 148.005C373.737 143.54 370.875 143.495 370.701 143.467Z" fill="white"/>
<mask id="mask1_404_2" style="mask-type:alpha" maskUnits="userSpaceOnUse" x="314" y="143" width="141" height="279">
<path fill-rule="evenodd" clip-rule="evenodd" d="M370.701 143.467L325.718 143.467C319.005 143.467 314.113 148.005 314.113 153.932V407.365C314.113 415.093 321.672 421.941 330.218 421.941H438.636C446.869 421.941 454.741 415.04 454.741 407.365V154.617C454.741 147.513 449.428 143.509 443.137 143.467L397.44 143.467C397.267 143.495 394.128 144.776 392.801 148.005C391.474 151.234 388.805 153.808 385.882 153.808H382.488C381.098 153.808 377.441 152.47 375.589 148.005C373.737 143.54 370.875 143.495 370.701 143.467Z" fill="white"/>
</mask>
<g mask="url(#mask1_404_2)">
<rect x="314" y="143" width="141" height="279" fill="url(#paint3_linear_404_2)"/>
<path fill-rule="evenodd" clip-rule="evenodd" d="M378.452 217.639V220H368.179V217.907C368.179 217.203 368.311 216.594 368.576 216.079C368.84 215.563 369.19 215.115 369.625 214.735C370.061 214.354 370.538 214.019 371.057 213.731C371.576 213.443 372.097 213.171 372.619 212.915C373.141 212.659 373.62 212.402 374.056 212.143C374.491 211.883 374.841 211.594 375.105 211.274C375.369 210.954 375.502 210.576 375.502 210.141C375.502 209.584 375.307 209.13 374.916 208.778C374.526 208.426 373.993 208.25 373.316 208.25C372.613 208.25 372.016 208.451 371.526 208.855C371.036 209.258 370.733 209.866 370.617 210.679H367.918C367.931 209.795 368.139 208.994 368.542 208.274C368.945 207.554 369.55 206.983 370.356 206.56C371.162 206.138 372.174 205.927 373.393 205.927C374.438 205.927 375.339 206.103 376.097 206.455C376.854 206.807 377.439 207.296 377.852 207.923C378.265 208.551 378.471 209.283 378.471 210.122C378.471 210.819 378.342 211.421 378.084 211.927C377.826 212.432 377.485 212.864 377.059 213.223C376.633 213.581 376.166 213.895 375.656 214.163C375.147 214.432 374.639 214.682 374.133 214.912C373.627 215.143 373.161 215.378 372.735 215.618C372.31 215.858 371.968 216.128 371.71 216.429C371.452 216.73 371.323 217.091 371.323 217.514V217.639H378.452ZM364.997 206.119V220H362.134V209.603H359.638V208.019C360.438 208.019 361.084 207.944 361.577 207.794C362.071 207.643 362.44 207.426 362.685 207.141C362.93 206.856 363.075 206.515 363.12 206.119H364.997ZM383.424 213.319V210.314H380.328V213.319H383.424ZM383.424 216.947V219.943H380.328V216.947H383.424ZM394.567 220V216.928H396.724V214.576H394.567V206.119H391.791L385.416 214.624V216.928H391.859L391.849 220H394.567ZM388.028 214.576H391.859V209.488L388.028 214.576ZM403.263 220.211C404.488 220.211 405.543 219.938 406.426 219.391C407.31 218.843 407.988 218.018 408.462 216.914C408.936 215.81 409.173 214.429 409.173 212.771C409.173 211.383 408.943 210.175 408.482 209.147C408.021 208.12 407.36 207.327 406.499 206.767C405.638 206.207 404.614 205.927 403.428 205.927C402.37 205.927 401.448 206.128 400.661 206.531C399.874 206.935 399.262 207.491 398.823 208.202C398.385 208.912 398.166 209.722 398.166 210.631C398.166 211.533 398.373 212.312 398.789 212.968C399.205 213.624 399.779 214.13 400.511 214.485C401.243 214.84 402.083 215.018 403.031 215.018C403.553 215.018 404.027 214.949 404.453 214.811C404.879 214.674 405.251 214.479 405.57 214.226C405.889 213.973 406.139 213.677 406.32 213.338C406.397 214.445 406.309 215.341 406.054 216.026C405.799 216.711 405.419 217.21 404.912 217.523C404.406 217.837 403.818 217.994 403.147 217.994C402.541 217.994 402.038 217.826 401.638 217.49C401.238 217.154 400.98 216.717 400.864 216.179H398.175C398.233 216.992 398.501 217.701 398.978 218.306C399.455 218.911 400.071 219.379 400.826 219.712C401.58 220.045 402.393 220.211 403.263 220.211ZM401.841 212.191C402.267 212.591 402.825 212.791 403.515 212.791C403.908 212.791 404.29 212.703 404.661 212.527C405.032 212.351 405.336 212.128 405.575 211.859C405.814 211.591 405.933 211.312 405.933 211.024C405.939 210.403 405.841 209.871 405.638 209.426C405.435 208.981 405.151 208.64 404.787 208.403C404.422 208.167 403.998 208.048 403.515 208.048C403.07 208.048 402.673 208.151 402.325 208.355C401.977 208.56 401.703 208.848 401.503 209.219C401.303 209.591 401.203 210.019 401.203 210.506C401.203 211.229 401.416 211.791 401.841 212.191Z" fill="white"/>
</g>
<g clip-path="url(#clip0_404_2)">
<g filter="url(#filter1_d_404_2)">
<rect x="317.805" y="236" width="131.255" height="53.1915" rx="5" fill="#FBFCFE"/>
</g>
<path fill-rule="evenodd" clip-rule="evenodd" d="M329.886 251.285V249.426L331.401 246.865H330.44L329.45 248.656L328.447 246.865H327.496L329.007 249.423V251.285H329.886ZM333.171 251.346C333.488 251.346 333.758 251.277 333.982 251.138C334.206 251 334.377 250.809 334.497 250.565C334.616 250.321 334.676 250.041 334.676 249.723C334.676 249.384 334.615 249.091 334.492 248.842C334.37 248.594 334.196 248.402 333.972 248.266C333.747 248.131 333.481 248.063 333.174 248.063C332.867 248.063 332.6 248.132 332.375 248.271C332.149 248.409 331.974 248.603 331.851 248.852C331.727 249.1 331.666 249.391 331.666 249.723C331.666 250.055 331.727 250.342 331.851 250.585C331.974 250.827 332.149 251.015 332.375 251.147C332.6 251.28 332.866 251.346 333.171 251.346ZM332.785 250.539C332.88 250.635 333.009 250.683 333.174 250.683C333.328 250.683 333.453 250.637 333.547 250.545C333.641 250.453 333.71 250.333 333.753 250.183C333.796 250.033 333.818 249.87 333.818 249.692C333.818 249.525 333.798 249.367 333.759 249.218C333.72 249.07 333.653 248.949 333.559 248.858C333.465 248.766 333.336 248.72 333.174 248.72C333.019 248.72 332.894 248.763 332.799 248.85C332.704 248.937 332.634 249.054 332.59 249.202C332.546 249.349 332.524 249.513 332.524 249.692C332.524 249.857 332.544 250.016 332.584 250.168C332.624 250.319 332.691 250.443 332.785 250.539ZM336.407 251.346C336.529 251.346 336.654 251.327 336.782 251.289C336.909 251.252 337.023 251.184 337.122 251.085C337.221 250.986 337.289 250.844 337.325 250.658L337.428 251.285H338.09V248.124H337.22V250.181C337.22 250.344 337.169 250.471 337.068 250.562C336.966 250.653 336.829 250.698 336.657 250.698C336.474 250.698 336.336 250.651 336.241 250.557C336.147 250.464 336.1 250.343 336.1 250.197V248.124H335.221V250.31C335.221 250.479 335.255 250.628 335.325 250.756C335.394 250.884 335.486 250.992 335.6 251.08C335.715 251.168 335.842 251.234 335.981 251.279C336.12 251.324 336.262 251.346 336.407 251.346ZM339.682 249.555V251.285H338.803V248.124H339.649V248.873C339.699 248.712 339.77 248.571 339.861 248.45C339.953 248.328 340.064 248.234 340.194 248.165C340.325 248.097 340.472 248.063 340.637 248.063C340.665 248.063 340.691 248.064 340.716 248.067C340.742 248.07 340.76 248.075 340.772 248.081V248.931C340.754 248.923 340.732 248.918 340.707 248.916C340.682 248.914 340.66 248.912 340.64 248.91C340.467 248.895 340.32 248.9 340.197 248.925C340.075 248.949 339.975 248.991 339.899 249.05C339.823 249.109 339.768 249.182 339.734 249.267C339.699 249.353 339.682 249.449 339.682 249.555ZM343.199 251.285L343.563 250.261H345.128L345.483 251.285H346.359L344.803 246.865H343.876L342.316 251.285H343.199ZM343.758 249.481H344.917L344.342 247.727L343.758 249.481ZM347.78 252.269V250.811C347.825 250.886 347.876 250.956 347.935 251.02C347.995 251.085 348.062 251.141 348.137 251.19C348.212 251.239 348.294 251.277 348.383 251.305C348.471 251.332 348.565 251.346 348.665 251.346C348.91 251.346 349.13 251.287 349.325 251.169C349.519 251.051 349.672 250.869 349.784 250.623C349.895 250.377 349.951 250.063 349.951 249.68C349.951 249.311 349.899 249.007 349.796 248.767C349.693 248.528 349.551 248.351 349.37 248.236C349.189 248.12 348.984 248.063 348.753 248.063C348.646 248.063 348.545 248.076 348.449 248.101C348.352 248.127 348.263 248.163 348.181 248.21C348.099 248.256 348.024 248.311 347.957 248.373C347.889 248.435 347.833 248.504 347.786 248.579L347.783 248.124H346.901V252.269H347.78ZM348.077 250.551C348.176 250.645 348.302 250.692 348.455 250.692C348.645 250.692 348.805 250.611 348.935 250.45C349.064 250.289 349.129 250.035 349.129 249.686C349.129 249.38 349.067 249.141 348.944 248.969C348.821 248.797 348.657 248.711 348.455 248.711C348.228 248.711 348.059 248.804 347.947 248.991C347.836 249.177 347.78 249.409 347.78 249.686C347.78 249.863 347.805 250.028 347.854 250.181C347.903 250.334 347.978 250.457 348.077 250.551ZM351.414 252.269V250.811C351.458 250.886 351.51 250.956 351.569 251.02C351.628 251.085 351.695 251.141 351.771 251.19C351.846 251.239 351.928 251.277 352.016 251.305C352.104 251.332 352.199 251.346 352.299 251.346C352.544 251.346 352.764 251.287 352.958 251.169C353.153 251.051 353.306 250.869 353.417 250.623C353.529 250.377 353.585 250.063 353.585 249.68C353.585 249.311 353.533 249.007 353.43 248.767C353.326 248.528 353.184 248.351 353.004 248.236C352.823 248.12 352.617 248.063 352.386 248.063C352.28 248.063 352.179 248.076 352.082 248.101C351.986 248.127 351.897 248.163 351.814 248.21C351.732 248.256 351.657 248.311 351.59 248.373C351.523 248.435 351.466 248.504 351.42 248.579L351.417 248.124H350.535V252.269H351.414ZM351.711 250.551C351.81 250.645 351.936 250.692 352.088 250.692C352.279 250.692 352.439 250.611 352.569 250.45C352.698 250.289 352.763 250.035 352.763 249.686C352.763 249.38 352.701 249.141 352.578 248.969C352.454 248.797 352.291 248.711 352.088 248.711C351.862 248.711 351.692 248.804 351.581 248.991C351.47 249.177 351.414 249.409 351.414 249.686C351.414 249.863 351.439 250.028 351.488 250.181C351.537 250.334 351.611 250.457 351.711 250.551Z" fill="#BA4270"/>
<path opacity="0.5" fill-rule="evenodd" clip-rule="evenodd" d="M415.691 251.218C415.558 251.303 415.369 251.346 415.124 251.346C414.969 251.346 414.824 251.328 414.689 251.291C414.553 251.254 414.463 251.227 414.419 251.208L414.458 250.667C414.521 250.69 414.592 250.718 414.674 250.751C414.755 250.785 414.856 250.802 414.976 250.802C415.173 250.802 415.308 250.747 415.381 250.637C415.454 250.527 415.491 250.341 415.491 250.08V246.865H416.048V250.242C416.048 250.477 416.022 250.677 415.97 250.842C415.918 251.007 415.825 251.132 415.691 251.218ZM418.524 251.28C418.397 251.326 418.26 251.348 418.113 251.346C417.951 251.344 417.798 251.32 417.654 251.274C417.511 251.228 417.384 251.161 417.273 251.071C417.163 250.981 417.076 250.87 417.013 250.736C416.95 250.603 416.918 250.447 416.918 250.27V248.124H417.475V250.212C417.475 250.418 417.538 250.585 417.663 250.713C417.788 250.842 417.978 250.906 418.231 250.906C418.459 250.906 418.643 250.845 418.783 250.724C418.922 250.603 418.992 250.422 418.992 250.181V248.124H419.546V251.285H419.104L419.046 250.68C419.008 250.839 418.943 250.967 418.852 251.065C418.761 251.163 418.651 251.234 418.524 251.28ZM421.521 251.346C421.774 251.346 421.989 251.308 422.167 251.231C422.344 251.155 422.481 251.047 422.576 250.907C422.671 250.768 422.719 250.601 422.719 250.408C422.719 250.33 422.708 250.249 422.684 250.165C422.661 250.08 422.622 249.999 422.567 249.921C422.512 249.844 422.438 249.774 422.344 249.711C422.251 249.647 422.132 249.596 421.988 249.558L421.364 249.399C421.192 249.356 421.061 249.302 420.973 249.238C420.885 249.174 420.841 249.086 420.841 248.974C420.841 248.805 420.903 248.68 421.027 248.599C421.152 248.519 421.313 248.479 421.512 248.479C421.703 248.479 421.855 248.523 421.968 248.612C422.081 248.7 422.148 248.82 422.168 248.971H422.659C422.651 248.673 422.543 248.448 422.335 248.294C422.128 248.14 421.855 248.063 421.518 248.063C421.255 248.063 421.035 248.104 420.859 248.185C420.682 248.267 420.55 248.378 420.461 248.518C420.373 248.659 420.33 248.822 420.332 249.007C420.332 249.242 420.407 249.424 420.558 249.555C420.708 249.685 420.909 249.781 421.16 249.842L421.804 250.004C421.944 250.037 422.048 250.088 422.115 250.158C422.183 250.229 422.216 250.322 422.216 250.438C422.216 250.603 422.152 250.725 422.024 250.805C421.895 250.884 421.727 250.924 421.518 250.924C421.387 250.924 421.267 250.903 421.157 250.862C421.046 250.82 420.954 250.758 420.881 250.675C420.808 250.592 420.757 250.489 420.729 250.365H420.223C420.256 250.591 420.333 250.777 420.455 250.923C420.578 251.068 420.732 251.175 420.917 251.244C421.103 251.312 421.304 251.346 421.521 251.346ZM424.963 251.285C424.886 251.295 424.79 251.3 424.676 251.3C424.461 251.3 424.295 251.271 424.176 251.212C424.058 251.152 423.975 251.065 423.928 250.949C423.881 250.832 423.857 250.69 423.857 250.521V248.537H423.351V248.124H423.872L424.008 247.204H424.417V248.121H425.118V248.537H424.417V250.502C424.417 250.614 424.429 250.696 424.452 250.748C424.475 250.8 424.514 250.833 424.569 250.848C424.624 250.862 424.7 250.869 424.796 250.869H425.136V251.248C425.098 251.262 425.041 251.275 424.963 251.285ZM427.978 251.285V247.8L430.314 251.285H430.811V246.865H430.254V250.301L427.954 246.865H427.421V251.285H427.978ZM433.862 251.14C433.652 251.277 433.393 251.346 433.084 251.346C432.797 251.346 432.546 251.283 432.331 251.158C432.117 251.033 431.95 250.849 431.832 250.606C431.713 250.364 431.654 250.067 431.654 249.717C431.654 249.387 431.709 249.097 431.82 248.848C431.93 248.6 432.092 248.407 432.306 248.269C432.52 248.132 432.779 248.063 433.084 248.063C433.371 248.063 433.62 248.127 433.832 248.254C434.044 248.381 434.208 248.568 434.324 248.815C434.441 249.061 434.499 249.362 434.499 249.717C434.499 250.039 434.445 250.322 434.338 250.567C434.23 250.811 434.072 251.002 433.862 251.14ZM433.084 250.9C432.877 250.9 432.71 250.847 432.581 250.741C432.453 250.635 432.359 250.491 432.298 250.31C432.238 250.128 432.208 249.927 432.208 249.704C432.208 249.454 432.242 249.239 432.309 249.059C432.376 248.88 432.475 248.743 432.605 248.648C432.736 248.553 432.895 248.506 433.084 248.506C433.289 248.506 433.455 248.559 433.582 248.665C433.71 248.771 433.803 248.914 433.861 249.095C433.919 249.275 433.948 249.478 433.948 249.704C433.948 249.951 433.915 250.164 433.849 250.343C433.782 250.523 433.685 250.66 433.557 250.756C433.428 250.852 433.271 250.9 433.084 250.9ZM437.124 248.952L436.45 251.285H435.905L434.944 248.124H435.459L436.173 250.554H436.221L436.922 248.124H437.344L438.072 250.548H438.12L438.804 248.124H439.325L438.382 251.285H437.834L437.124 248.952Z" fill="#36536B"/>
<path d="M327.15 258.353V257.8H330.705V258.353H329.272V262.5H328.667V258.353H327.15ZM331.357 262.5V257.67H331.942V259.633C331.998 259.54 332.074 259.454 332.169 259.373C332.264 259.291 332.38 259.225 332.517 259.175C332.653 259.123 332.812 259.097 332.991 259.097C333.21 259.097 333.408 259.138 333.586 259.221C333.764 259.301 333.905 259.416 334.009 259.565C334.113 259.715 334.165 259.892 334.165 260.098V262.5H333.563V260.218C333.563 260.017 333.494 259.862 333.355 259.754C333.219 259.643 333.04 259.588 332.819 259.588C332.67 259.588 332.529 259.613 332.397 259.663C332.264 259.71 332.157 259.784 332.075 259.884C331.995 259.981 331.955 260.106 331.955 260.257V262.5H331.357ZM335.531 260.959C335.531 261.172 335.565 261.365 335.635 261.538C335.706 261.709 335.813 261.846 335.956 261.947C336.102 262.049 336.283 262.1 336.499 262.1C336.714 262.1 336.898 262.05 337.052 261.951C337.208 261.851 337.307 261.707 337.351 261.518H337.919C337.878 261.746 337.787 261.938 337.646 262.094C337.506 262.25 337.336 262.368 337.136 262.448C336.937 262.526 336.729 262.565 336.512 262.565C336.198 262.565 335.922 262.497 335.683 262.36C335.445 262.224 335.259 262.028 335.124 261.772C334.99 261.516 334.923 261.21 334.923 260.852C334.923 260.499 334.984 260.189 335.105 259.923C335.226 259.656 335.402 259.448 335.631 259.299C335.863 259.149 336.142 259.074 336.467 259.074C336.783 259.074 337.051 259.143 337.269 259.279C337.488 259.416 337.654 259.609 337.767 259.858C337.882 260.105 337.939 260.398 337.939 260.738V260.959H335.531ZM335.534 260.553H337.36C337.36 260.36 337.328 260.187 337.263 260.033C337.198 259.877 337.098 259.755 336.964 259.666C336.832 259.575 336.665 259.529 336.463 259.529C336.253 259.529 336.079 259.58 335.94 259.682C335.804 259.782 335.701 259.911 335.631 260.069C335.564 260.225 335.532 260.386 335.534 260.553ZM340.218 263.547V259.139H340.816L340.822 259.724C340.861 259.655 340.911 259.583 340.972 259.507C341.035 259.431 341.111 259.36 341.199 259.295C341.29 259.23 341.396 259.177 341.515 259.136C341.636 259.095 341.774 259.074 341.927 259.074C342.196 259.074 342.432 259.136 342.636 259.26C342.842 259.381 343.002 259.567 343.117 259.819C343.232 260.07 343.289 260.389 343.289 260.774C343.289 261.16 343.233 261.486 343.12 261.752C343.01 262.017 342.849 262.218 342.639 262.357C342.429 262.496 342.176 262.565 341.879 262.565C341.729 262.565 341.596 262.543 341.479 262.5C341.364 262.459 341.263 262.405 341.177 262.337C341.092 262.268 341.021 262.194 340.962 262.116C340.906 262.038 340.859 261.964 340.822 261.892V263.547H340.218ZM341.765 262.097C342.042 262.097 342.269 261.992 342.444 261.782C342.62 261.569 342.707 261.24 342.707 260.794C342.707 260.41 342.627 260.106 342.467 259.88C342.307 259.655 342.073 259.542 341.765 259.542C341.453 259.542 341.217 259.658 341.056 259.89C340.896 260.12 340.816 260.421 340.816 260.794C340.816 261.034 340.852 261.253 340.923 261.45C340.995 261.647 341.101 261.804 341.242 261.921C341.383 262.038 341.557 262.097 341.765 262.097ZM344.962 262.565C344.746 262.565 344.554 262.527 344.387 262.451C344.22 262.373 344.089 262.262 343.994 262.116C343.901 261.971 343.854 261.796 343.854 261.59C343.854 261.217 343.984 260.94 344.244 260.758C344.504 260.576 344.921 260.478 345.495 260.465L346.097 260.449V260.186C346.097 259.98 346.035 259.818 345.911 259.698C345.788 259.577 345.596 259.516 345.336 259.516C345.143 259.519 344.973 259.564 344.826 259.653C344.681 259.742 344.586 259.887 344.543 260.088H344.013C344.026 259.87 344.088 259.685 344.199 259.536C344.309 259.384 344.463 259.269 344.66 259.191C344.859 259.113 345.095 259.074 345.365 259.074C345.658 259.074 345.901 259.116 346.093 259.198C346.288 259.28 346.434 259.402 346.529 259.562C346.626 259.722 346.675 259.919 346.675 260.153V262.5H346.162L346.119 261.869C345.989 262.132 345.824 262.314 345.622 262.415C345.423 262.515 345.203 262.565 344.962 262.565ZM345.144 262.133C345.257 262.133 345.369 262.112 345.479 262.071C345.592 262.03 345.695 261.975 345.788 261.905C345.881 261.834 345.955 261.755 346.009 261.668C346.065 261.579 346.094 261.488 346.097 261.395V260.82L345.596 260.83C345.34 260.834 345.126 260.86 344.953 260.907C344.781 260.955 344.653 261.03 344.566 261.132C344.481 261.234 344.439 261.367 344.439 261.531C344.439 261.72 344.504 261.867 344.634 261.973C344.766 262.08 344.936 262.133 345.144 262.133ZM347.925 263.573C347.728 263.573 347.593 263.558 347.519 263.53C347.446 263.502 347.409 263.488 347.409 263.488V263.098L347.75 263.105C347.876 263.109 347.98 263.1 348.062 263.079C348.144 263.057 348.21 263.028 348.26 262.991C348.31 262.954 348.348 262.913 348.374 262.867C348.402 262.822 348.425 262.778 348.442 262.737L348.559 262.419L347.246 259.139H347.854L348.845 261.733L349.83 259.139H350.418L349.001 262.754C348.915 262.966 348.817 263.132 348.709 263.251C348.603 263.37 348.483 263.453 348.351 263.501C348.221 263.549 348.079 263.573 347.925 263.573ZM351.06 262.5V259.139H351.638V259.627C351.731 259.48 351.859 259.351 352.022 259.24C352.184 259.13 352.396 259.074 352.656 259.074C352.777 259.074 352.9 259.095 353.026 259.136C353.154 259.177 353.271 259.239 353.377 259.321C353.483 259.404 353.566 259.505 353.624 259.624C353.728 259.459 353.869 259.327 354.047 259.227C354.224 259.125 354.425 259.074 354.648 259.074C354.765 259.074 354.887 259.093 355.015 259.13C355.143 259.164 355.261 259.227 355.369 259.318C355.48 259.407 355.57 259.532 355.639 259.692C355.708 259.85 355.743 260.054 355.743 260.303V262.5H355.139V260.361C355.139 260.158 355.106 260.001 355.041 259.89C354.976 259.778 354.89 259.698 354.784 259.653C354.68 259.607 354.569 259.585 354.45 259.585C354.346 259.585 354.235 259.605 354.118 259.646C354.001 259.688 353.901 259.757 353.819 259.854C353.737 259.952 353.696 260.085 353.696 260.254V262.5H353.098V260.186C353.098 260.054 353.062 259.943 352.99 259.854C352.921 259.766 352.833 259.698 352.727 259.653C352.623 259.607 352.519 259.585 352.415 259.585C352.3 259.585 352.184 259.607 352.067 259.653C351.952 259.698 351.855 259.771 351.775 259.871C351.697 259.968 351.658 260.096 351.658 260.254V262.5H351.06ZM357.113 260.959C357.113 261.172 357.147 261.365 357.217 261.538C357.288 261.709 357.396 261.846 357.539 261.947C357.684 262.049 357.865 262.1 358.081 262.1C358.296 262.1 358.48 262.05 358.634 261.951C358.79 261.851 358.889 261.707 358.933 261.518H359.502C359.46 261.746 359.369 261.938 359.229 262.094C359.088 262.25 358.918 262.368 358.718 262.448C358.519 262.526 358.311 262.565 358.094 262.565C357.78 262.565 357.504 262.497 357.266 262.36C357.027 262.224 356.841 262.028 356.707 261.772C356.572 261.516 356.505 261.21 356.505 260.852C356.505 260.499 356.566 260.189 356.687 259.923C356.808 259.656 356.984 259.448 357.214 259.299C357.445 259.149 357.724 259.074 358.049 259.074C358.365 259.074 358.633 259.143 358.852 259.279C359.07 259.416 359.236 259.609 359.349 259.858C359.464 260.105 359.521 260.398 359.521 260.738V260.959H357.113ZM357.116 260.553H358.943C358.943 260.36 358.91 260.187 358.845 260.033C358.78 259.877 358.68 259.755 358.546 259.666C358.414 259.575 358.247 259.529 358.046 259.529C357.835 259.529 357.661 259.58 357.522 259.682C357.386 259.782 357.283 259.911 357.214 260.069C357.146 260.225 357.114 260.386 357.116 260.553ZM360.346 262.5V259.139H360.928V259.627C360.982 259.534 361.057 259.446 361.152 259.364C361.25 259.281 361.367 259.215 361.503 259.165C361.642 259.116 361.801 259.091 361.981 259.091C362.193 259.091 362.388 259.133 362.566 259.218C362.746 259.302 362.889 259.434 362.995 259.614C363.103 259.792 363.158 260.021 363.158 260.303V262.5H362.556V260.361C362.556 260.099 362.487 259.905 362.348 259.78C362.212 259.652 362.034 259.588 361.815 259.588C361.664 259.588 361.522 259.613 361.39 259.663C361.257 259.71 361.15 259.784 361.068 259.884C360.986 259.981 360.944 260.105 360.944 260.254V262.5H360.346ZM365.646 259.578H364.889V261.668C364.889 261.787 364.901 261.875 364.925 261.931C364.951 261.985 364.993 262.02 365.052 262.035C365.112 262.05 365.195 262.058 365.299 262.058H365.666V262.461C365.625 262.476 365.562 262.489 365.477 262.5C365.395 262.511 365.292 262.516 365.169 262.516C364.937 262.516 364.757 262.485 364.629 262.422C364.501 262.359 364.411 262.266 364.359 262.142C364.31 262.019 364.285 261.867 364.285 261.688V259.578H363.739V259.139H364.301L364.447 258.161H364.889V259.136H365.646V259.578ZM368.008 262.5V257.67H368.593V259.633C368.649 259.54 368.725 259.454 368.82 259.373C368.916 259.291 369.032 259.225 369.168 259.175C369.305 259.123 369.463 259.097 369.643 259.097C369.862 259.097 370.06 259.138 370.237 259.221C370.415 259.301 370.556 259.416 370.66 259.565C370.764 259.715 370.816 259.892 370.816 260.098V262.5H370.215V260.218C370.215 260.017 370.145 259.862 370.007 259.754C369.87 259.643 369.691 259.588 369.47 259.588C369.321 259.588 369.18 259.613 369.048 259.663C368.916 259.71 368.809 259.784 368.726 259.884C368.646 259.981 368.606 260.106 368.606 260.257V262.5H368.008ZM372.67 262.565C372.453 262.565 372.261 262.527 372.095 262.451C371.928 262.373 371.797 262.262 371.701 262.116C371.608 261.971 371.562 261.796 371.562 261.59C371.562 261.217 371.692 260.94 371.952 260.758C372.212 260.576 372.629 260.478 373.203 260.465L373.804 260.449V260.186C373.804 259.98 373.742 259.818 373.619 259.698C373.495 259.577 373.304 259.516 373.044 259.516C372.851 259.519 372.681 259.564 372.533 259.653C372.388 259.742 372.294 259.887 372.251 260.088H371.721C371.734 259.87 371.796 259.685 371.906 259.536C372.017 259.384 372.17 259.269 372.368 259.191C372.567 259.113 372.802 259.074 373.073 259.074C373.365 259.074 373.608 259.116 373.801 259.198C373.996 259.28 374.141 259.402 374.236 259.562C374.334 259.722 374.383 259.919 374.383 260.153V262.5H373.869L373.827 261.869C373.697 262.132 373.531 262.314 373.33 262.415C373.13 262.515 372.91 262.565 372.67 262.565ZM372.852 262.133C372.965 262.133 373.076 262.112 373.187 262.071C373.299 262.03 373.402 261.975 373.495 261.905C373.589 261.834 373.662 261.755 373.716 261.668C373.773 261.579 373.802 261.488 373.804 261.395V260.82L373.304 260.83C373.048 260.834 372.833 260.86 372.66 260.907C372.489 260.955 372.36 261.03 372.273 261.132C372.189 261.234 372.147 261.367 372.147 261.531C372.147 261.72 372.212 261.867 372.342 261.973C372.474 262.08 372.644 262.133 372.852 262.133ZM376.545 262.565C376.311 262.565 376.093 262.529 375.892 262.458C375.692 262.384 375.527 262.27 375.394 262.116C375.262 261.96 375.179 261.762 375.144 261.522H375.69C375.721 261.654 375.775 261.764 375.853 261.853C375.933 261.94 376.033 262.006 376.152 262.051C376.271 262.095 376.401 262.116 376.542 262.116C376.767 262.116 376.949 262.074 377.088 261.99C377.226 261.905 377.296 261.775 377.296 261.6C377.296 261.476 377.259 261.378 377.185 261.304C377.114 261.228 377.002 261.173 376.85 261.138L376.155 260.966C375.884 260.901 375.667 260.799 375.505 260.66C375.342 260.522 375.261 260.328 375.261 260.079C375.259 259.882 375.306 259.708 375.401 259.559C375.496 259.409 375.639 259.291 375.83 259.204C376.021 259.118 376.258 259.074 376.542 259.074C376.906 259.074 377.199 259.157 377.422 259.321C377.648 259.484 377.765 259.723 377.773 260.04H377.244C377.222 259.879 377.149 259.753 377.026 259.659C376.905 259.564 376.741 259.516 376.535 259.516C376.321 259.516 376.146 259.56 376.012 259.646C375.878 259.731 375.81 259.863 375.81 260.043C375.81 260.162 375.858 260.256 375.953 260.326C376.049 260.393 376.19 260.449 376.376 260.495L377.049 260.664C377.205 260.705 377.333 260.759 377.432 260.826C377.534 260.893 377.614 260.968 377.673 261.05C377.733 261.133 377.776 261.219 377.799 261.31C377.825 261.399 377.838 261.485 377.838 261.567C377.838 261.773 377.786 261.951 377.682 262.1C377.581 262.248 377.433 262.362 377.24 262.445C377.05 262.525 376.818 262.565 376.545 262.565ZM381.812 262.565C381.615 262.565 381.448 262.539 381.311 262.487C381.177 262.435 381.066 262.369 380.98 262.289C380.893 262.206 380.826 262.123 380.778 262.038C380.731 261.952 380.696 261.876 380.674 261.811L380.609 262.5H380.151V257.67H380.756V259.672C380.784 259.616 380.826 259.554 380.882 259.487C380.941 259.42 381.016 259.355 381.107 259.292C381.198 259.229 381.305 259.177 381.428 259.136C381.554 259.095 381.697 259.074 381.857 259.074C382.278 259.074 382.611 259.221 382.858 259.513C383.107 259.806 383.232 260.237 383.232 260.807C383.232 261.16 383.179 261.469 383.073 261.733C382.967 261.995 382.808 262.2 382.598 262.347C382.388 262.492 382.126 262.565 381.812 262.565ZM381.705 262.103C381.978 262.103 382.2 261.998 382.371 261.788C382.542 261.576 382.628 261.239 382.628 260.777C382.628 260.385 382.547 260.082 382.387 259.867C382.229 259.651 381.997 259.542 381.692 259.542C381.468 259.542 381.289 259.591 381.152 259.689C381.018 259.784 380.918 259.924 380.853 260.108C380.79 260.292 380.758 260.515 380.756 260.777C380.756 261.248 380.828 261.587 380.973 261.795C381.121 262.001 381.364 262.103 381.705 262.103ZM384.446 260.959C384.446 261.172 384.48 261.365 384.55 261.538C384.621 261.709 384.729 261.846 384.872 261.947C385.017 262.049 385.198 262.1 385.414 262.1C385.629 262.1 385.813 262.05 385.967 261.951C386.123 261.851 386.222 261.707 386.266 261.518H386.835C386.793 261.746 386.702 261.938 386.562 262.094C386.421 262.25 386.251 262.368 386.051 262.448C385.852 262.526 385.644 262.565 385.427 262.565C385.113 262.565 384.837 262.497 384.599 262.36C384.36 262.224 384.174 262.028 384.04 261.772C383.905 261.516 383.838 261.21 383.838 260.852C383.838 260.499 383.899 260.189 384.02 259.923C384.141 259.656 384.317 259.448 384.547 259.299C384.778 259.149 385.057 259.074 385.382 259.074C385.698 259.074 385.966 259.143 386.185 259.279C386.403 259.416 386.569 259.609 386.682 259.858C386.797 260.105 386.854 260.398 386.854 260.738V260.959H384.446ZM384.449 260.553H386.276C386.276 260.36 386.243 260.187 386.178 260.033C386.113 259.877 386.013 259.755 385.879 259.666C385.747 259.575 385.58 259.529 385.379 259.529C385.168 259.529 384.994 259.58 384.855 259.682C384.719 259.782 384.616 259.911 384.547 260.069C384.479 260.225 384.447 260.386 384.449 260.553ZM388.108 260.959C388.108 261.172 388.143 261.365 388.212 261.538C388.284 261.709 388.391 261.846 388.534 261.947C388.679 262.049 388.86 262.1 389.077 262.1C389.291 262.1 389.476 262.05 389.629 261.951C389.785 261.851 389.885 261.707 389.928 261.518H390.497C390.456 261.746 390.365 261.938 390.224 262.094C390.083 262.25 389.913 262.368 389.714 262.448C389.515 262.526 389.307 262.565 389.09 262.565C388.776 262.565 388.499 262.497 388.261 262.36C388.023 262.224 387.836 262.028 387.702 261.772C387.568 261.516 387.501 261.21 387.501 260.852C387.501 260.499 387.561 260.189 387.683 259.923C387.804 259.656 387.979 259.448 388.209 259.299C388.441 259.149 388.719 259.074 389.044 259.074C389.361 259.074 389.628 259.143 389.847 259.279C390.066 259.416 390.232 259.609 390.344 259.858C390.459 260.105 390.517 260.398 390.517 260.738V260.959H388.108ZM388.112 260.553H389.938C389.938 260.36 389.906 260.187 389.841 260.033C389.776 259.877 389.676 259.755 389.542 259.666C389.409 259.575 389.243 259.529 389.041 259.529C388.831 259.529 388.657 259.58 388.518 259.682C388.381 259.782 388.278 259.911 388.209 260.069C388.142 260.225 388.109 260.386 388.112 260.553ZM391.342 262.5V259.139H391.924V259.627C391.978 259.534 392.053 259.446 392.148 259.364C392.245 259.281 392.362 259.215 392.499 259.165C392.638 259.116 392.797 259.091 392.977 259.091C393.189 259.091 393.384 259.133 393.562 259.218C393.742 259.302 393.885 259.434 393.991 259.614C394.099 259.792 394.153 260.021 394.153 260.303V262.5H393.552V260.361C393.552 260.099 393.483 259.905 393.344 259.78C393.207 259.652 393.03 259.588 392.811 259.588C392.659 259.588 392.517 259.613 392.385 259.663C392.253 259.71 392.146 259.784 392.063 259.884C391.981 259.981 391.94 260.105 391.94 260.254V262.5H391.342ZM396.591 263.547V259.139H397.189L397.196 259.724C397.235 259.655 397.285 259.583 397.345 259.507C397.408 259.431 397.484 259.36 397.573 259.295C397.664 259.23 397.769 259.177 397.888 259.136C398.01 259.095 398.147 259.074 398.301 259.074C398.57 259.074 398.806 259.136 399.009 259.26C399.215 259.381 399.376 259.567 399.49 259.819C399.605 260.07 399.663 260.389 399.663 260.774C399.663 261.16 399.606 261.486 399.494 261.752C399.383 262.017 399.223 262.218 399.013 262.357C398.803 262.496 398.549 262.565 398.252 262.565C398.103 262.565 397.969 262.543 397.852 262.5C397.738 262.459 397.637 262.405 397.55 262.337C397.466 262.268 397.394 262.194 397.336 262.116C397.279 262.038 397.233 261.964 397.196 261.892V263.547H396.591ZM398.138 262.097C398.416 262.097 398.642 261.992 398.818 261.782C398.993 261.569 399.081 261.24 399.081 260.794C399.081 260.41 399.001 260.106 398.84 259.88C398.68 259.655 398.446 259.542 398.138 259.542C397.826 259.542 397.59 259.658 397.43 259.89C397.27 260.12 397.189 260.421 397.189 260.794C397.189 261.034 397.225 261.253 397.297 261.45C397.368 261.647 397.474 261.804 397.615 261.921C397.756 262.038 397.93 262.097 398.138 262.097ZM400.451 262.5V259.139H401.023V259.786C401.079 259.626 401.158 259.494 401.26 259.39C401.362 259.284 401.478 259.204 401.608 259.152C401.74 259.1 401.877 259.074 402.017 259.074C402.067 259.074 402.116 259.078 402.164 259.084C402.211 259.091 402.248 259.102 402.274 259.117V259.698C402.242 259.683 402.199 259.674 402.147 259.669C402.098 259.663 402.055 259.659 402.021 259.659C401.886 259.651 401.761 259.659 401.644 259.685C401.527 259.709 401.424 259.752 401.335 259.812C401.246 259.873 401.176 259.953 401.124 260.053C401.074 260.15 401.049 260.269 401.049 260.41V262.5H400.451ZM404.23 262.565C403.921 262.565 403.65 262.499 403.418 262.367C403.186 262.232 403.006 262.036 402.878 261.778C402.751 261.521 402.687 261.205 402.687 260.833C402.687 260.482 402.746 260.174 402.865 259.91C402.985 259.645 403.159 259.441 403.389 259.295C403.621 259.148 403.901 259.074 404.23 259.074C404.54 259.074 404.809 259.143 405.036 259.279C405.266 259.414 405.444 259.612 405.569 259.874C405.695 260.136 405.758 260.456 405.758 260.833C405.758 261.175 405.699 261.476 405.582 261.736C405.468 261.996 405.296 262.2 405.069 262.347C404.844 262.492 404.564 262.565 404.23 262.565ZM404.23 262.09C404.432 262.09 404.602 262.04 404.741 261.938C404.879 261.836 404.984 261.69 405.056 261.499C405.127 261.308 405.163 261.082 405.163 260.82C405.163 260.579 405.132 260.364 405.069 260.173C405.006 259.98 404.905 259.827 404.767 259.715C404.63 259.602 404.451 259.546 404.23 259.546C404.027 259.546 403.855 259.597 403.714 259.698C403.573 259.798 403.466 259.943 403.392 260.134C403.32 260.325 403.285 260.553 403.285 260.82C403.285 261.056 403.317 261.27 403.382 261.463C403.447 261.656 403.549 261.809 403.688 261.921C403.826 262.034 404.007 262.09 404.23 262.09ZM407.884 259.074C408.124 259.074 408.341 259.121 408.534 259.214C408.726 259.305 408.884 259.435 409.005 259.604C409.128 259.773 409.205 259.973 409.236 260.202H408.703C408.683 260.085 408.638 259.978 408.566 259.88C408.497 259.783 408.405 259.705 408.29 259.646C408.175 259.588 408.041 259.559 407.887 259.559C407.599 259.559 407.365 259.663 407.185 259.871C407.005 260.079 406.915 260.397 406.915 260.826C406.915 261.214 406.997 261.525 407.162 261.759C407.329 261.991 407.574 262.107 407.897 262.107C408.05 262.107 408.184 262.077 408.296 262.019C408.411 261.958 408.503 261.879 408.573 261.782C408.642 261.682 408.686 261.576 408.706 261.463H409.229C409.201 261.689 409.125 261.884 409.002 262.048C408.878 262.213 408.72 262.341 408.527 262.432C408.336 262.521 408.122 262.565 407.884 262.565C407.582 262.565 407.315 262.499 407.081 262.367C406.849 262.235 406.667 262.04 406.535 261.782C406.403 261.524 406.337 261.208 406.337 260.833C406.337 260.482 406.396 260.175 406.515 259.913C406.637 259.649 406.812 259.443 407.042 259.295C407.274 259.148 407.554 259.074 407.884 259.074ZM410.478 260.959C410.478 261.172 410.512 261.365 410.582 261.538C410.653 261.709 410.76 261.846 410.903 261.947C411.048 262.049 411.229 262.1 411.446 262.1C411.661 262.1 411.845 262.05 411.999 261.951C412.155 261.851 412.254 261.707 412.298 261.518H412.866C412.825 261.746 412.734 261.938 412.593 262.094C412.452 262.25 412.282 262.368 412.083 262.448C411.884 262.526 411.676 262.565 411.459 262.565C411.145 262.565 410.869 262.497 410.63 262.36C410.392 262.224 410.206 262.028 410.071 261.772C409.937 261.516 409.87 261.21 409.87 260.852C409.87 260.499 409.93 260.189 410.052 259.923C410.173 259.656 410.349 259.448 410.578 259.299C410.81 259.149 411.089 259.074 411.414 259.074C411.73 259.074 411.997 259.143 412.216 259.279C412.435 259.416 412.601 259.609 412.714 259.858C412.828 260.105 412.886 260.398 412.886 260.738V260.959H410.478ZM410.481 260.553H412.307C412.307 260.36 412.275 260.187 412.21 260.033C412.145 259.877 412.045 259.755 411.911 259.666C411.779 259.575 411.612 259.529 411.41 259.529C411.2 259.529 411.026 259.58 410.887 259.682C410.751 259.782 410.648 259.911 410.578 260.069C410.511 260.225 410.479 260.386 410.481 260.553ZM414.878 262.565C414.644 262.565 414.427 262.529 414.225 262.458C414.026 262.384 413.86 262.27 413.728 262.116C413.596 261.96 413.512 261.762 413.478 261.522H414.024C414.054 261.654 414.108 261.764 414.186 261.853C414.266 261.94 414.366 262.006 414.485 262.051C414.604 262.095 414.734 262.116 414.875 262.116C415.101 262.116 415.283 262.074 415.421 261.99C415.56 261.905 415.629 261.775 415.629 261.6C415.629 261.476 415.592 261.378 415.519 261.304C415.447 261.228 415.336 261.173 415.184 261.138L414.488 260.966C414.218 260.901 414.001 260.799 413.838 260.66C413.676 260.522 413.595 260.328 413.595 260.079C413.593 259.882 413.639 259.708 413.734 259.559C413.83 259.409 413.973 259.291 414.163 259.204C414.354 259.118 414.591 259.074 414.875 259.074C415.239 259.074 415.533 259.157 415.756 259.321C415.981 259.484 416.098 259.723 416.107 260.04H415.577C415.556 259.879 415.483 259.753 415.359 259.659C415.238 259.564 415.075 259.516 414.869 259.516C414.654 259.516 414.48 259.56 414.345 259.646C414.211 259.731 414.144 259.863 414.144 260.043C414.144 260.162 414.192 260.256 414.287 260.326C414.382 260.393 414.523 260.449 414.709 260.495L415.382 260.664C415.538 260.705 415.666 260.759 415.766 260.826C415.868 260.893 415.948 260.968 416.006 261.05C416.067 261.133 416.109 261.219 416.133 261.31C416.159 261.399 416.172 261.485 416.172 261.567C416.172 261.773 416.12 261.951 416.016 262.1C415.914 262.248 415.767 262.362 415.574 262.445C415.383 262.525 415.151 262.565 414.878 262.565ZM418.148 262.565C417.914 262.565 417.696 262.529 417.494 262.458C417.295 262.384 417.129 262.27 416.997 262.116C416.865 261.96 416.781 261.762 416.747 261.522H417.293C417.323 261.654 417.377 261.764 417.455 261.853C417.535 261.94 417.635 262.006 417.754 262.051C417.873 262.095 418.003 262.116 418.144 262.116C418.37 262.116 418.552 262.074 418.69 261.99C418.829 261.905 418.898 261.775 418.898 261.6C418.898 261.476 418.861 261.378 418.788 261.304C418.716 261.228 418.605 261.173 418.453 261.138L417.758 260.966C417.487 260.901 417.27 260.799 417.108 260.66C416.945 260.522 416.864 260.328 416.864 260.079C416.862 259.882 416.908 259.708 417.004 259.559C417.099 259.409 417.242 259.291 417.433 259.204C417.623 259.118 417.86 259.074 418.144 259.074C418.508 259.074 418.802 259.157 419.025 259.321C419.25 259.484 419.367 259.723 419.376 260.04H418.846C418.825 259.879 418.752 259.753 418.629 259.659C418.507 259.564 418.344 259.516 418.138 259.516C417.923 259.516 417.749 259.56 417.615 259.646C417.48 259.731 417.413 259.863 417.413 260.043C417.413 260.162 417.461 260.256 417.556 260.326C417.651 260.393 417.792 260.449 417.979 260.495L418.651 260.664C418.807 260.705 418.935 260.759 419.035 260.826C419.137 260.893 419.217 260.968 419.275 261.05C419.336 261.133 419.378 261.219 419.402 261.31C419.428 261.399 419.441 261.485 419.441 261.567C419.441 261.773 419.389 261.951 419.285 262.1C419.183 262.248 419.036 262.362 418.843 262.445C418.652 262.525 418.421 262.565 418.148 262.565ZM420.71 260.959C420.71 261.172 420.745 261.365 420.814 261.538C420.885 261.709 420.993 261.846 421.136 261.947C421.281 262.049 421.462 262.1 421.678 262.1C421.893 262.1 422.077 262.05 422.231 261.951C422.387 261.851 422.487 261.707 422.53 261.518H423.099C423.058 261.746 422.967 261.938 422.826 262.094C422.685 262.25 422.515 262.368 422.315 262.448C422.116 262.526 421.908 262.565 421.691 262.565C421.377 262.565 421.101 262.497 420.863 262.36C420.624 262.224 420.438 262.028 420.304 261.772C420.169 261.516 420.102 261.21 420.102 260.852C420.102 260.499 420.163 260.189 420.284 259.923C420.406 259.656 420.581 259.448 420.811 259.299C421.043 259.149 421.321 259.074 421.646 259.074C421.962 259.074 422.23 259.143 422.449 259.279C422.668 259.416 422.833 259.609 422.946 259.858C423.061 260.105 423.118 260.398 423.118 260.738V260.959H420.71ZM420.713 260.553H422.54C422.54 260.36 422.507 260.187 422.442 260.033C422.377 259.877 422.278 259.755 422.143 259.666C422.011 259.575 421.844 259.529 421.643 259.529C421.433 259.529 421.258 259.58 421.119 259.682C420.983 259.782 420.88 259.911 420.811 260.069C420.744 260.225 420.711 260.386 420.713 260.553ZM425.156 262.565C424.72 262.565 424.375 262.415 424.119 262.116C423.863 261.817 423.736 261.381 423.736 260.807C423.736 260.458 423.786 260.153 423.888 259.893C423.992 259.633 424.146 259.432 424.35 259.289C424.553 259.146 424.807 259.074 425.11 259.074C425.271 259.074 425.413 259.095 425.536 259.136C425.662 259.177 425.77 259.229 425.861 259.292C425.952 259.355 426.026 259.42 426.082 259.487C426.141 259.554 426.184 259.616 426.212 259.672V257.67H426.817V262.5H426.358L426.293 261.811C426.272 261.876 426.237 261.952 426.189 262.038C426.142 262.123 426.074 262.206 425.988 262.289C425.901 262.369 425.79 262.435 425.653 262.487C425.519 262.539 425.353 262.565 425.156 262.565ZM425.263 262.103C425.603 262.103 425.846 262.001 425.991 261.795C426.138 261.587 426.212 261.248 426.212 260.777C426.21 260.515 426.176 260.292 426.111 260.108C426.048 259.924 425.949 259.784 425.812 259.689C425.678 259.591 425.499 259.542 425.276 259.542C424.999 259.542 424.773 259.641 424.6 259.838C424.427 260.035 424.34 260.348 424.34 260.777C424.34 261.198 424.418 261.524 424.574 261.756C424.732 261.988 424.962 262.103 425.263 262.103ZM427.67 262.5V261.733H428.385V262.5H427.67ZM327.15 266.353V265.8H330.705V266.353H329.272V270.5H328.667V266.353H327.15ZM331.357 270.5V265.67H331.942V267.633C331.998 267.54 332.074 267.454 332.169 267.373C332.264 267.291 332.38 267.225 332.517 267.175C332.653 267.123 332.812 267.097 332.991 267.097C333.21 267.097 333.408 267.138 333.586 267.221C333.764 267.301 333.905 267.416 334.009 267.565C334.113 267.715 334.165 267.892 334.165 268.098V270.5H333.563V268.218C333.563 268.017 333.494 267.862 333.355 267.754C333.219 267.643 333.04 267.588 332.819 267.588C332.67 267.588 332.529 267.613 332.397 267.663C332.264 267.71 332.157 267.784 332.075 267.884C331.995 267.981 331.955 268.106 331.955 268.257V270.5H331.357ZM335.531 268.959C335.531 269.172 335.565 269.365 335.635 269.538C335.706 269.709 335.813 269.846 335.956 269.947C336.102 270.049 336.283 270.1 336.499 270.1C336.714 270.1 336.898 270.05 337.052 269.951C337.208 269.851 337.307 269.707 337.351 269.518H337.919C337.878 269.746 337.787 269.938 337.646 270.094C337.506 270.25 337.336 270.368 337.136 270.448C336.937 270.526 336.729 270.565 336.512 270.565C336.198 270.565 335.922 270.497 335.683 270.36C335.445 270.224 335.259 270.028 335.124 269.772C334.99 269.516 334.923 269.21 334.923 268.852C334.923 268.499 334.984 268.189 335.105 267.923C335.226 267.656 335.402 267.448 335.631 267.299C335.863 267.149 336.142 267.074 336.467 267.074C336.783 267.074 337.051 267.143 337.269 267.279C337.488 267.416 337.654 267.609 337.767 267.858C337.882 268.105 337.939 268.398 337.939 268.738V268.959H335.531ZM335.534 268.553H337.36C337.36 268.36 337.328 268.187 337.263 268.033C337.198 267.877 337.098 267.755 336.964 267.666C336.832 267.575 336.665 267.529 336.463 267.529C336.253 267.529 336.079 267.58 335.94 267.682C335.804 267.782 335.701 267.911 335.631 268.069C335.564 268.225 335.532 268.386 335.534 268.553ZM341.925 267.578H341.168V269.668C341.168 269.787 341.18 269.875 341.204 269.931C341.23 269.985 341.272 270.02 341.331 270.035C341.391 270.05 341.474 270.058 341.578 270.058H341.945V270.461C341.904 270.476 341.841 270.489 341.756 270.5C341.674 270.511 341.571 270.516 341.448 270.516C341.216 270.516 341.036 270.485 340.908 270.422C340.78 270.359 340.69 270.266 340.638 270.142C340.588 270.019 340.564 269.867 340.564 269.688V267.578H340.018V267.139H340.58L340.726 266.161H341.168V267.136H341.925V267.578ZM344.036 270.565C343.726 270.565 343.455 270.499 343.223 270.367C342.991 270.232 342.811 270.036 342.684 269.778C342.556 269.521 342.492 269.205 342.492 268.833C342.492 268.482 342.551 268.174 342.671 267.91C342.79 267.645 342.964 267.441 343.194 267.295C343.426 267.148 343.706 267.074 344.036 267.074C344.345 267.074 344.614 267.143 344.842 267.279C345.071 267.414 345.249 267.612 345.375 267.874C345.5 268.136 345.563 268.456 345.563 268.833C345.563 269.175 345.505 269.476 345.388 269.736C345.273 269.996 345.102 270.2 344.874 270.347C344.649 270.492 344.369 270.565 344.036 270.565ZM344.036 270.09C344.237 270.09 344.407 270.04 344.546 269.938C344.685 269.836 344.79 269.69 344.861 269.499C344.933 269.308 344.968 269.082 344.968 268.82C344.968 268.579 344.937 268.364 344.874 268.173C344.811 267.98 344.711 267.827 344.572 267.715C344.435 267.602 344.257 267.546 344.036 267.546C343.832 267.546 343.66 267.597 343.519 267.698C343.378 267.798 343.271 267.943 343.197 268.134C343.126 268.325 343.09 268.553 343.09 268.82C343.09 269.056 343.122 269.27 343.187 269.463C343.252 269.656 343.354 269.809 343.493 269.921C343.632 270.034 343.812 270.09 344.036 270.09ZM347.949 267.578H347.192V269.668C347.192 269.787 347.204 269.875 347.228 269.931C347.254 269.985 347.296 270.02 347.354 270.035C347.415 270.05 347.497 270.058 347.601 270.058H347.969V270.461C347.928 270.476 347.865 270.489 347.78 270.5C347.698 270.511 347.595 270.516 347.471 270.516C347.24 270.516 347.06 270.485 346.932 270.422C346.804 270.359 346.714 270.266 346.662 270.142C346.612 270.019 346.587 269.867 346.587 269.688V267.578H346.041V267.139H346.604L346.75 266.161H347.192V267.136H347.949V267.578ZM349.717 270.565C349.5 270.565 349.308 270.527 349.142 270.451C348.975 270.373 348.844 270.262 348.748 270.116C348.655 269.971 348.609 269.796 348.609 269.59C348.609 269.217 348.739 268.94 348.999 268.758C349.259 268.576 349.676 268.478 350.25 268.465L350.851 268.449V268.186C350.851 267.98 350.789 267.818 350.666 267.698C350.542 267.577 350.351 267.516 350.091 267.516C349.898 267.519 349.728 267.564 349.58 267.653C349.435 267.742 349.341 267.887 349.298 268.088H348.768C348.781 267.87 348.843 267.685 348.953 267.536C349.064 267.384 349.217 267.269 349.415 267.191C349.614 267.113 349.849 267.074 350.12 267.074C350.412 267.074 350.655 267.116 350.848 267.198C351.043 267.28 351.188 267.402 351.283 267.562C351.381 267.722 351.43 267.919 351.43 268.153V270.5H350.916L350.874 269.869C350.744 270.132 350.578 270.314 350.377 270.415C350.177 270.515 349.957 270.565 349.717 270.565ZM349.899 270.133C350.011 270.133 350.123 270.112 350.234 270.071C350.346 270.03 350.449 269.975 350.542 269.905C350.635 269.834 350.709 269.755 350.763 269.668C350.82 269.579 350.849 269.488 350.851 269.395V268.82L350.351 268.83C350.095 268.834 349.88 268.86 349.707 268.907C349.536 268.955 349.407 269.03 349.32 269.132C349.236 269.234 349.194 269.367 349.194 269.531C349.194 269.72 349.259 269.867 349.389 269.973C349.521 270.08 349.691 270.133 349.899 270.133ZM353.304 270.542C353.122 270.542 352.975 270.517 352.862 270.467C352.752 270.418 352.666 270.35 352.606 270.266C352.547 270.181 352.507 270.085 352.485 269.977C352.466 269.866 352.456 269.752 352.456 269.635V265.67H353.048V269.577C353.048 269.746 353.08 269.873 353.145 269.957C353.212 270.042 353.306 270.088 353.425 270.097L353.607 270.1V270.49C353.557 270.505 353.505 270.517 353.451 270.526C353.397 270.537 353.348 270.542 353.304 270.542ZM356.82 270.565C356.603 270.565 356.411 270.527 356.245 270.451C356.078 270.373 355.947 270.262 355.851 270.116C355.758 269.971 355.712 269.796 355.712 269.59C355.712 269.217 355.842 268.94 356.102 268.758C356.362 268.576 356.779 268.478 357.353 268.465L357.954 268.449V268.186C357.954 267.98 357.892 267.818 357.769 267.698C357.645 267.577 357.454 267.516 357.194 267.516C357.001 267.519 356.831 267.564 356.683 267.653C356.538 267.742 356.444 267.887 356.401 268.088H355.871C355.884 267.87 355.946 267.685 356.056 267.536C356.167 267.384 356.32 267.269 356.518 267.191C356.717 267.113 356.952 267.074 357.223 267.074C357.515 267.074 357.758 267.116 357.951 267.198C358.146 267.28 358.291 267.402 358.386 267.562C358.484 267.722 358.533 267.919 358.533 268.153V270.5H358.019L357.977 269.869C357.847 270.132 357.681 270.314 357.48 270.415C357.28 270.515 357.06 270.565 356.82 270.565ZM357.002 270.133C357.114 270.133 357.226 270.112 357.337 270.071C357.449 270.03 357.552 269.975 357.645 269.905C357.738 269.834 357.812 269.755 357.866 269.668C357.923 269.579 357.952 269.488 357.954 269.395V268.82L357.454 268.83C357.198 268.834 356.983 268.86 356.81 268.907C356.639 268.955 356.51 269.03 356.423 269.132C356.339 269.234 356.297 269.367 356.297 269.531C356.297 269.72 356.362 269.867 356.492 269.973C356.624 270.08 356.794 270.133 357.002 270.133ZM359.559 270.5V267.139H360.138V267.627C360.231 267.48 360.359 267.351 360.521 267.24C360.684 267.13 360.895 267.074 361.155 267.074C361.276 267.074 361.4 267.095 361.526 267.136C361.653 267.177 361.77 267.239 361.877 267.321C361.983 267.404 362.065 267.505 362.124 267.624C362.228 267.459 362.368 267.327 362.546 267.227C362.724 267.125 362.924 267.074 363.147 267.074C363.264 267.074 363.387 267.093 363.515 267.13C363.642 267.164 363.76 267.227 363.869 267.318C363.979 267.407 364.069 267.532 364.139 267.692C364.208 267.85 364.243 268.054 364.243 268.303V270.5H363.638V268.361C363.638 268.158 363.606 268.001 363.541 267.89C363.476 267.778 363.39 267.698 363.284 267.653C363.18 267.607 363.068 267.585 362.949 267.585C362.845 267.585 362.735 267.605 362.618 267.646C362.501 267.688 362.401 267.757 362.319 267.854C362.236 267.952 362.195 268.085 362.195 268.254V270.5H361.597V268.186C361.597 268.054 361.561 267.943 361.49 267.854C361.42 267.766 361.333 267.698 361.227 267.653C361.123 267.607 361.019 267.585 360.915 267.585C360.8 267.585 360.684 267.607 360.567 267.653C360.452 267.698 360.354 267.771 360.274 267.871C360.196 267.968 360.157 268.096 360.157 268.254V270.5H359.559ZM366.519 270.565C366.209 270.565 365.938 270.499 365.707 270.367C365.475 270.232 365.295 270.036 365.167 269.778C365.039 269.521 364.975 269.205 364.975 268.833C364.975 268.482 365.035 268.174 365.154 267.91C365.273 267.645 365.448 267.441 365.677 267.295C365.909 267.148 366.19 267.074 366.519 267.074C366.829 267.074 367.098 267.143 367.325 267.279C367.555 267.414 367.732 267.612 367.858 267.874C367.984 268.136 368.047 268.456 368.047 268.833C368.047 269.175 367.988 269.476 367.871 269.736C367.756 269.996 367.585 270.2 367.358 270.347C367.132 270.492 366.853 270.565 366.519 270.565ZM366.519 270.09C366.721 270.09 366.891 270.04 367.029 269.938C367.168 269.836 367.273 269.69 367.345 269.499C367.416 269.308 367.452 269.082 367.452 268.82C367.452 268.579 367.42 268.364 367.358 268.173C367.295 267.98 367.194 267.827 367.055 267.715C366.919 267.602 366.74 267.546 366.519 267.546C366.315 267.546 366.143 267.597 366.002 267.698C365.861 267.798 365.754 267.943 365.681 268.134C365.609 268.325 365.573 268.553 365.573 268.82C365.573 269.056 365.606 269.27 365.671 269.463C365.736 269.656 365.838 269.809 365.976 269.921C366.115 270.034 366.296 270.09 366.519 270.09ZM370.011 270.565C369.836 270.563 369.67 270.538 369.514 270.49C369.36 270.44 369.223 270.368 369.104 270.272C368.985 270.177 368.891 270.059 368.822 269.918C368.754 269.775 368.721 269.609 368.721 269.421V267.139H369.322V269.359C369.322 269.578 369.389 269.756 369.524 269.892C369.66 270.029 369.865 270.097 370.138 270.097C370.385 270.097 370.583 270.033 370.733 269.905C370.884 269.775 370.96 269.582 370.96 269.327V267.139H371.558V270.5H371.08L371.019 269.856C370.977 270.025 370.907 270.162 370.807 270.266C370.71 270.37 370.592 270.447 370.453 270.497C370.317 270.544 370.169 270.567 370.011 270.565ZM372.54 270.5V267.139H373.122V267.627C373.176 267.534 373.251 267.446 373.346 267.364C373.444 267.281 373.561 267.215 373.697 267.165C373.836 267.116 373.995 267.091 374.175 267.091C374.387 267.091 374.582 267.133 374.76 267.218C374.94 267.302 375.083 267.434 375.189 267.614C375.297 267.792 375.351 268.021 375.351 268.303V270.5H374.75V268.361C374.75 268.099 374.681 267.905 374.542 267.78C374.406 267.652 374.228 267.588 374.009 267.588C373.858 267.588 373.716 267.613 373.583 267.663C373.451 267.71 373.344 267.784 373.262 267.884C373.179 267.981 373.138 268.105 373.138 268.254V270.5H372.54ZM377.84 267.578H377.083V269.668C377.083 269.787 377.095 269.875 377.119 269.931C377.145 269.985 377.187 270.02 377.246 270.035C377.306 270.05 377.389 270.058 377.493 270.058H377.86V270.461C377.819 270.476 377.756 270.489 377.671 270.5C377.589 270.511 377.486 270.516 377.363 270.516C377.131 270.516 376.951 270.485 376.823 270.422C376.695 270.359 376.605 270.266 376.553 270.142C376.503 270.019 376.479 269.867 376.479 269.688V267.578H375.933V267.139H376.495L376.641 266.161H377.083V267.136H377.84V267.578ZM381.332 270.565C380.896 270.565 380.55 270.415 380.295 270.116C380.039 269.817 379.911 269.381 379.911 268.807C379.911 268.458 379.962 268.153 380.064 267.893C380.168 267.633 380.322 267.432 380.526 267.289C380.729 267.146 380.983 267.074 381.286 267.074C381.446 267.074 381.588 267.095 381.712 267.136C381.837 267.177 381.946 267.229 382.037 267.292C382.128 267.355 382.201 267.42 382.258 267.487C382.316 267.554 382.36 267.616 382.388 267.672V265.67H382.992V270.5H382.534L382.469 269.811C382.447 269.876 382.413 269.952 382.365 270.038C382.317 270.123 382.25 270.206 382.164 270.289C382.077 270.369 381.965 270.435 381.829 270.487C381.694 270.539 381.529 270.565 381.332 270.565ZM381.439 270.103C381.779 270.103 382.022 270.001 382.167 269.795C382.314 269.587 382.388 269.248 382.388 268.777C382.386 268.515 382.352 268.292 382.287 268.108C382.224 267.924 382.125 267.784 381.988 267.689C381.854 267.591 381.675 267.542 381.452 267.542C381.174 267.542 380.949 267.641 380.776 267.838C380.602 268.035 380.516 268.348 380.516 268.777C380.516 269.198 380.594 269.524 380.75 269.756C380.908 269.988 381.138 270.103 381.439 270.103ZM384.414 268.959C384.414 269.172 384.449 269.365 384.518 269.538C384.59 269.709 384.697 269.846 384.84 269.947C384.985 270.049 385.166 270.1 385.383 270.1C385.597 270.1 385.781 270.05 385.935 269.951C386.091 269.851 386.191 269.707 386.234 269.518H386.803C386.762 269.746 386.671 269.938 386.53 270.094C386.389 270.25 386.219 270.368 386.02 270.448C385.82 270.526 385.612 270.565 385.396 270.565C385.081 270.565 384.805 270.497 384.567 270.36C384.328 270.224 384.142 270.028 384.008 269.772C383.873 269.516 383.806 269.21 383.806 268.852C383.806 268.499 383.867 268.189 383.988 267.923C384.11 267.656 384.285 267.448 384.515 267.299C384.747 267.149 385.025 267.074 385.35 267.074C385.666 267.074 385.934 267.143 386.153 267.279C386.372 267.416 386.537 267.609 386.65 267.858C386.765 268.105 386.822 268.398 386.822 268.738V268.959H384.414ZM384.417 268.553H386.244C386.244 268.36 386.211 268.187 386.146 268.033C386.081 267.877 385.982 267.755 385.847 267.666C385.715 267.575 385.548 267.529 385.347 267.529C385.137 267.529 384.962 267.58 384.824 267.682C384.687 267.782 384.584 267.911 384.515 268.069C384.448 268.225 384.415 268.386 384.417 268.553ZM388.86 270.565C388.424 270.565 388.079 270.415 387.823 270.116C387.567 269.817 387.44 269.381 387.44 268.807C387.44 268.458 387.491 268.153 387.592 267.893C387.696 267.633 387.85 267.432 388.054 267.289C388.258 267.146 388.511 267.074 388.814 267.074C388.975 267.074 389.117 267.095 389.24 267.136C389.366 267.177 389.474 267.229 389.565 267.292C389.656 267.355 389.73 267.42 389.786 267.487C389.845 267.554 389.888 267.616 389.916 267.672V265.67H390.521V270.5H390.062L389.997 269.811C389.976 269.876 389.941 269.952 389.893 270.038C389.846 270.123 389.779 270.206 389.692 270.289C389.605 270.369 389.494 270.435 389.357 270.487C389.223 270.539 389.057 270.565 388.86 270.565ZM388.967 270.103C389.307 270.103 389.55 270.001 389.695 269.795C389.842 269.587 389.916 269.248 389.916 268.777C389.914 268.515 389.88 268.292 389.815 268.108C389.753 267.924 389.653 267.784 389.516 267.689C389.382 267.591 389.203 267.542 388.98 267.542C388.703 267.542 388.477 267.641 388.304 267.838C388.131 268.035 388.044 268.348 388.044 268.777C388.044 269.198 388.122 269.524 388.278 269.756C388.436 269.988 388.666 270.103 388.967 270.103ZM392.748 270.565C392.573 270.563 392.407 270.538 392.251 270.49C392.097 270.44 391.961 270.368 391.842 270.272C391.722 270.177 391.628 270.059 391.559 269.918C391.492 269.775 391.458 269.609 391.458 269.421V267.139H392.059V269.359C392.059 269.578 392.127 269.756 392.261 269.892C392.397 270.029 392.602 270.097 392.875 270.097C393.122 270.097 393.32 270.033 393.47 269.905C393.622 269.775 393.697 269.582 393.697 269.327V267.139H394.295V270.5H393.818L393.756 269.856C393.715 270.025 393.644 270.162 393.545 270.266C393.447 270.37 393.329 270.447 393.19 270.497C393.054 270.544 392.907 270.567 392.748 270.565ZM396.572 267.074C396.813 267.074 397.029 267.121 397.222 267.214C397.415 267.305 397.572 267.435 397.693 267.604C397.817 267.773 397.894 267.973 397.924 268.202H397.391C397.372 268.085 397.326 267.978 397.255 267.88C397.185 267.783 397.093 267.705 396.978 267.646C396.864 267.588 396.729 267.559 396.575 267.559C396.287 267.559 396.053 267.663 395.873 267.871C395.694 268.079 395.604 268.397 395.604 268.826C395.604 269.214 395.686 269.525 395.851 269.759C396.017 269.991 396.262 270.107 396.585 270.107C396.739 270.107 396.872 270.077 396.985 270.019C397.1 269.958 397.192 269.879 397.261 269.782C397.33 269.682 397.375 269.576 397.394 269.463H397.918C397.889 269.689 397.814 269.884 397.69 270.048C397.567 270.213 397.408 270.341 397.216 270.432C397.025 270.521 396.81 270.565 396.572 270.565C396.271 270.565 396.003 270.499 395.769 270.367C395.538 270.235 395.356 270.04 395.223 269.782C395.091 269.524 395.025 269.208 395.025 268.833C395.025 268.482 395.085 268.175 395.204 267.913C395.325 267.649 395.501 267.443 395.73 267.295C395.962 267.148 396.243 267.074 396.572 267.074ZM400.336 267.578H399.579V269.668C399.579 269.787 399.591 269.875 399.615 269.931C399.641 269.985 399.683 270.02 399.742 270.035C399.802 270.05 399.885 270.058 399.989 270.058H400.356V270.461C400.315 270.476 400.252 270.489 400.167 270.5C400.085 270.511 399.982 270.516 399.859 270.516C399.627 270.516 399.447 270.485 399.319 270.422C399.191 270.359 399.101 270.266 399.049 270.142C399 270.019 398.975 269.867 398.975 269.688V267.578H398.429V267.139H398.991L399.137 266.161H399.579V267.136H400.336V267.578ZM401.54 268.959C401.54 269.172 401.575 269.365 401.644 269.538C401.716 269.709 401.823 269.846 401.966 269.947C402.111 270.049 402.292 270.1 402.509 270.1C402.723 270.1 402.907 270.05 403.061 269.951C403.217 269.851 403.317 269.707 403.36 269.518H403.929C403.888 269.746 403.797 269.938 403.656 270.094C403.515 270.25 403.345 270.368 403.146 270.448C402.946 270.526 402.738 270.565 402.522 270.565C402.207 270.565 401.931 270.497 401.693 270.36C401.454 270.224 401.268 270.028 401.134 269.772C400.999 269.516 400.932 269.21 400.932 268.852C400.932 268.499 400.993 268.189 401.114 267.923C401.236 267.656 401.411 267.448 401.641 267.299C401.873 267.149 402.151 267.074 402.476 267.074C402.792 267.074 403.06 267.143 403.279 267.279C403.498 267.416 403.663 267.609 403.776 267.858C403.891 268.105 403.948 268.398 403.948 268.738V268.959H401.54ZM401.543 268.553H403.37C403.37 268.36 403.337 268.187 403.272 268.033C403.207 267.877 403.108 267.755 402.973 267.666C402.841 267.575 402.674 267.529 402.473 267.529C402.263 267.529 402.088 267.58 401.95 267.682C401.813 267.782 401.71 267.911 401.641 268.069C401.574 268.225 401.541 268.386 401.543 268.553ZM405.986 270.565C405.55 270.565 405.205 270.415 404.949 270.116C404.693 269.817 404.566 269.381 404.566 268.807C404.566 268.458 404.617 268.153 404.718 267.893C404.822 267.633 404.976 267.432 405.18 267.289C405.384 267.146 405.637 267.074 405.94 267.074C406.101 267.074 406.243 267.095 406.366 267.136C406.492 267.177 406.6 267.229 406.691 267.292C406.782 267.355 406.856 267.42 406.912 267.487C406.971 267.554 407.014 267.616 407.042 267.672V265.67H407.647V270.5H407.188L407.123 269.811C407.102 269.876 407.067 269.952 407.019 270.038C406.972 270.123 406.905 270.206 406.818 270.289C406.731 270.369 406.62 270.435 406.483 270.487C406.349 270.539 406.183 270.565 405.986 270.565ZM406.093 270.103C406.433 270.103 406.676 270.001 406.821 269.795C406.968 269.587 407.042 269.248 407.042 268.777C407.04 268.515 407.006 268.292 406.941 268.108C406.879 267.924 406.779 267.784 406.642 267.689C406.508 267.591 406.329 267.542 406.106 267.542C405.829 267.542 405.603 267.641 405.43 267.838C405.257 268.035 405.17 268.348 405.17 268.777C405.17 269.198 405.248 269.524 405.404 269.756C405.562 269.988 405.792 270.103 406.093 270.103ZM412.035 267.139V267.578H411.22V270.5H410.615V267.578H409.907V267.139H410.615V266.619C410.615 266.353 410.683 266.15 410.82 266.012C410.956 265.871 411.16 265.8 411.431 265.8H412.065L412.068 266.226H411.564C411.428 266.226 411.334 266.263 411.285 266.337C411.235 266.41 411.21 266.522 411.21 266.671V267.139H412.035ZM412.778 270.5V267.139H413.35V267.786C413.406 267.626 413.485 267.494 413.587 267.39C413.689 267.284 413.805 267.204 413.935 267.152C414.067 267.1 414.204 267.074 414.345 267.074C414.394 267.074 414.443 267.078 414.491 267.084C414.538 267.091 414.575 267.102 414.601 267.117V267.698C414.569 267.683 414.527 267.674 414.475 267.669C414.425 267.663 414.382 267.659 414.348 267.659C414.213 267.651 414.088 267.659 413.971 267.685C413.854 267.709 413.751 267.752 413.662 267.812C413.573 267.873 413.503 267.953 413.451 268.053C413.401 268.15 413.376 268.269 413.376 268.41V270.5H412.778ZM416.558 270.565C416.248 270.565 415.977 270.499 415.745 270.367C415.513 270.232 415.333 270.036 415.206 269.778C415.078 269.521 415.014 269.205 415.014 268.833C415.014 268.482 415.073 268.174 415.193 267.91C415.312 267.645 415.486 267.441 415.716 267.295C415.948 267.148 416.228 267.074 416.558 267.074C416.867 267.074 417.136 267.143 417.364 267.279C417.593 267.414 417.771 267.612 417.897 267.874C418.022 268.136 418.085 268.456 418.085 268.833C418.085 269.175 418.027 269.476 417.91 269.736C417.795 269.996 417.624 270.2 417.396 270.347C417.171 270.492 416.891 270.565 416.558 270.565ZM416.558 270.09C416.759 270.09 416.929 270.04 417.068 269.938C417.207 269.836 417.312 269.69 417.383 269.499C417.455 269.308 417.49 269.082 417.49 268.82C417.49 268.579 417.459 268.364 417.396 268.173C417.333 267.98 417.233 267.827 417.094 267.715C416.957 267.602 416.779 267.546 416.558 267.546C416.354 267.546 416.182 267.597 416.041 267.698C415.9 267.798 415.793 267.943 415.719 268.134C415.648 268.325 415.612 268.553 415.612 268.82C415.612 269.056 415.644 269.27 415.709 269.463C415.774 269.656 415.876 269.809 416.015 269.921C416.154 270.034 416.334 270.09 416.558 270.09ZM418.872 270.5V267.139H419.45V267.627C419.543 267.48 419.671 267.351 419.834 267.24C419.996 267.13 420.208 267.074 420.468 267.074C420.589 267.074 420.712 267.095 420.838 267.136C420.966 267.177 421.083 267.239 421.189 267.321C421.295 267.404 421.378 267.505 421.436 267.624C421.54 267.459 421.681 267.327 421.859 267.227C422.036 267.125 422.237 267.074 422.46 267.074C422.577 267.074 422.699 267.093 422.827 267.13C422.955 267.164 423.073 267.227 423.181 267.318C423.292 267.407 423.382 267.532 423.451 267.692C423.52 267.85 423.555 268.054 423.555 268.303V270.5H422.951V268.361C422.951 268.158 422.918 268.001 422.853 267.89C422.788 267.778 422.702 267.698 422.596 267.653C422.492 267.607 422.381 267.585 422.262 267.585C422.158 267.585 422.047 267.605 421.93 267.646C421.813 267.688 421.713 267.757 421.631 267.854C421.549 267.952 421.508 268.085 421.508 268.254V270.5H420.91V268.186C420.91 268.054 420.874 267.943 420.802 267.854C420.733 267.766 420.645 267.698 420.539 267.653C420.435 267.607 420.331 267.585 420.227 267.585C420.112 267.585 419.996 267.607 419.879 267.653C419.764 267.698 419.667 267.771 419.587 267.871C419.509 267.968 419.47 268.096 419.47 268.254V270.5H418.872ZM426.281 271.573C426.084 271.573 425.948 271.558 425.875 271.53C425.801 271.502 425.764 271.488 425.764 271.488V271.098L426.105 271.105C426.231 271.109 426.335 271.1 426.417 271.079C426.5 271.057 426.566 271.028 426.616 270.991C426.665 270.954 426.703 270.913 426.729 270.867C426.758 270.822 426.78 270.778 426.798 270.737L426.915 270.419L425.602 267.139H426.209L427.201 269.733L428.185 267.139H428.774L427.357 270.754C427.27 270.966 427.172 271.132 427.064 271.251C426.958 271.37 426.839 271.453 426.707 271.501C426.577 271.549 426.435 271.573 426.281 271.573ZM430.63 270.565C430.321 270.565 430.05 270.499 429.818 270.367C429.586 270.232 429.406 270.036 429.278 269.778C429.151 269.521 429.087 269.205 429.087 268.833C429.087 268.482 429.146 268.174 429.265 267.91C429.385 267.645 429.559 267.441 429.789 267.295C430.02 267.148 430.301 267.074 430.63 267.074C430.94 267.074 431.209 267.143 431.436 267.279C431.666 267.414 431.844 267.612 431.969 267.874C432.095 268.136 432.158 268.456 432.158 268.833C432.158 269.175 432.099 269.476 431.982 269.736C431.868 269.996 431.696 270.2 431.469 270.347C431.244 270.492 430.964 270.565 430.63 270.565ZM430.63 270.09C430.832 270.09 431.002 270.04 431.141 269.938C431.279 269.836 431.384 269.69 431.456 269.499C431.527 269.308 431.563 269.082 431.563 268.82C431.563 268.579 431.532 268.364 431.469 268.173C431.406 267.98 431.305 267.827 431.167 267.715C431.03 267.602 430.851 267.546 430.63 267.546C430.427 267.546 430.254 267.597 430.114 267.698C429.973 267.798 429.866 267.943 429.792 268.134C429.72 268.325 429.685 268.553 429.685 268.82C429.685 269.056 429.717 269.27 429.782 269.463C429.847 269.656 429.949 269.809 430.088 269.921C430.226 270.034 430.407 270.09 430.63 270.09ZM434.122 270.565C433.947 270.563 433.781 270.538 433.625 270.49C433.471 270.44 433.335 270.368 433.216 270.272C433.096 270.177 433.002 270.059 432.933 269.918C432.866 269.775 432.832 269.609 432.832 269.421V267.139H433.433V269.359C433.433 269.578 433.501 269.756 433.635 269.892C433.771 270.029 433.976 270.097 434.249 270.097C434.496 270.097 434.694 270.033 434.844 269.905C434.996 269.775 435.071 269.582 435.071 269.327V267.139H435.669V270.5H435.192L435.13 269.856C435.089 270.025 435.018 270.162 434.919 270.266C434.821 270.37 434.703 270.447 434.564 270.497C434.428 270.544 434.281 270.567 434.122 270.565ZM436.652 270.5V267.139H437.224V267.786C437.28 267.626 437.359 267.494 437.461 267.39C437.563 267.284 437.679 267.204 437.809 267.152C437.941 267.1 438.077 267.074 438.218 267.074C438.268 267.074 438.317 267.078 438.364 267.084C438.412 267.091 438.449 267.102 438.475 267.117V267.698C438.442 267.683 438.4 267.674 438.348 267.669C438.298 267.663 438.256 267.659 438.221 267.659C438.087 267.651 437.961 267.659 437.844 267.685C437.727 267.709 437.624 267.752 437.536 267.812C437.447 267.873 437.376 267.953 437.324 268.053C437.274 268.15 437.25 268.269 437.25 268.41V270.5H436.652ZM328.427 279.565C328.21 279.565 328.018 279.527 327.852 279.451C327.685 279.373 327.554 279.262 327.458 279.116C327.365 278.971 327.319 278.796 327.319 278.59C327.319 278.217 327.449 277.94 327.709 277.758C327.969 277.576 328.386 277.478 328.96 277.465L329.561 277.449V277.186C329.561 276.98 329.499 276.818 329.376 276.698C329.252 276.577 329.061 276.516 328.801 276.516C328.608 276.519 328.438 276.564 328.29 276.653C328.145 276.742 328.051 276.887 328.008 277.088H327.478C327.491 276.87 327.553 276.685 327.663 276.536C327.774 276.384 327.927 276.269 328.125 276.191C328.324 276.113 328.559 276.074 328.83 276.074C329.122 276.074 329.365 276.116 329.558 276.198C329.753 276.28 329.898 276.402 329.993 276.562C330.091 276.722 330.14 276.919 330.14 277.153V279.5H329.626L329.584 278.869C329.454 279.132 329.288 279.314 329.087 279.415C328.887 279.515 328.667 279.565 328.427 279.565ZM328.609 279.133C328.721 279.133 328.833 279.112 328.944 279.071C329.056 279.03 329.159 278.975 329.252 278.905C329.345 278.834 329.419 278.755 329.473 278.668C329.53 278.579 329.559 278.488 329.561 278.395V277.82L329.061 277.83C328.805 277.834 328.59 277.86 328.417 277.907C328.246 277.955 328.117 278.03 328.03 278.132C327.946 278.234 327.904 278.367 327.904 278.531C327.904 278.72 327.969 278.867 328.099 278.973C328.231 279.08 328.401 279.133 328.609 279.133ZM332.505 276.074C332.746 276.074 332.962 276.121 333.155 276.214C333.348 276.305 333.505 276.435 333.626 276.604C333.75 276.773 333.827 276.973 333.857 277.202H333.324C333.305 277.085 333.259 276.978 333.188 276.88C333.118 276.783 333.026 276.705 332.911 276.646C332.797 276.588 332.662 276.559 332.508 276.559C332.22 276.559 331.986 276.663 331.806 276.871C331.627 277.079 331.537 277.397 331.537 277.826C331.537 278.214 331.619 278.525 331.784 278.759C331.951 278.991 332.195 279.107 332.518 279.107C332.672 279.107 332.805 279.077 332.918 279.019C333.033 278.958 333.125 278.879 333.194 278.782C333.264 278.682 333.308 278.576 333.327 278.463H333.851C333.823 278.689 333.747 278.884 333.623 279.048C333.5 279.213 333.342 279.341 333.149 279.432C332.958 279.521 332.744 279.565 332.505 279.565C332.204 279.565 331.936 279.499 331.702 279.367C331.471 279.235 331.289 279.04 331.156 278.782C331.024 278.524 330.958 278.208 330.958 277.833C330.958 277.482 331.018 277.175 331.137 276.913C331.258 276.649 331.434 276.443 331.663 276.295C331.895 276.148 332.176 276.074 332.505 276.074ZM336.009 276.074C336.25 276.074 336.466 276.121 336.659 276.214C336.852 276.305 337.009 276.435 337.13 276.604C337.254 276.773 337.331 276.973 337.361 277.202H336.828C336.809 277.085 336.763 276.978 336.692 276.88C336.622 276.783 336.53 276.705 336.415 276.646C336.301 276.588 336.166 276.559 336.012 276.559C335.724 276.559 335.49 276.663 335.31 276.871C335.131 277.079 335.041 277.397 335.041 277.826C335.041 278.214 335.123 278.525 335.288 278.759C335.454 278.991 335.699 279.107 336.022 279.107C336.176 279.107 336.309 279.077 336.422 279.019C336.537 278.958 336.629 278.879 336.698 278.782C336.767 278.682 336.812 278.576 336.831 278.463H337.355C337.326 278.689 337.251 278.884 337.127 279.048C337.004 279.213 336.845 279.341 336.653 279.432C336.462 279.521 336.247 279.565 336.009 279.565C335.708 279.565 335.44 279.499 335.206 279.367C334.975 279.235 334.793 279.04 334.66 278.782C334.528 278.524 334.462 278.208 334.462 277.833C334.462 277.482 334.522 277.175 334.641 276.913C334.762 276.649 334.938 276.443 335.167 276.295C335.399 276.148 335.68 276.074 336.009 276.074ZM339.51 279.565C339.2 279.565 338.929 279.499 338.697 279.367C338.465 279.232 338.286 279.036 338.158 278.778C338.03 278.521 337.966 278.205 337.966 277.833C337.966 277.482 338.026 277.174 338.145 276.91C338.264 276.645 338.438 276.441 338.668 276.295C338.9 276.148 339.18 276.074 339.51 276.074C339.82 276.074 340.088 276.143 340.316 276.279C340.545 276.414 340.723 276.612 340.849 276.874C340.974 277.136 341.037 277.456 341.037 277.833C341.037 278.175 340.979 278.476 340.862 278.736C340.747 278.996 340.576 279.2 340.348 279.347C340.123 279.492 339.843 279.565 339.51 279.565ZM339.51 279.09C339.711 279.09 339.881 279.04 340.02 278.938C340.159 278.836 340.264 278.69 340.335 278.499C340.407 278.308 340.443 278.082 340.443 277.82C340.443 277.579 340.411 277.364 340.348 277.173C340.285 276.98 340.185 276.827 340.046 276.715C339.91 276.602 339.731 276.546 339.51 276.546C339.306 276.546 339.134 276.597 338.993 276.698C338.852 276.798 338.745 276.943 338.671 277.134C338.6 277.325 338.564 277.553 338.564 277.82C338.564 278.056 338.597 278.27 338.662 278.463C338.727 278.656 338.828 278.809 338.967 278.921C339.106 279.034 339.287 279.09 339.51 279.09ZM343.002 279.565C342.826 279.563 342.661 279.538 342.505 279.49C342.351 279.44 342.214 279.368 342.095 279.272C341.976 279.177 341.882 279.059 341.812 278.918C341.745 278.775 341.712 278.609 341.712 278.421V276.139H342.313V278.359C342.313 278.578 342.38 278.756 342.514 278.892C342.651 279.029 342.856 279.097 343.129 279.097C343.376 279.097 343.574 279.033 343.723 278.905C343.875 278.775 343.951 278.582 343.951 278.327V276.139H344.549V279.5H344.071L344.009 278.856C343.968 279.025 343.898 279.162 343.798 279.266C343.701 279.37 343.582 279.447 343.444 279.497C343.307 279.544 343.16 279.567 343.002 279.565ZM345.531 279.5V276.139H346.113V276.627C346.167 276.534 346.242 276.446 346.337 276.364C346.434 276.281 346.551 276.215 346.688 276.165C346.827 276.116 346.986 276.091 347.166 276.091C347.378 276.091 347.573 276.133 347.751 276.218C347.931 276.302 348.074 276.434 348.18 276.614C348.288 276.792 348.342 277.021 348.342 277.303V279.5H347.741V277.361C347.741 277.099 347.672 276.905 347.533 276.78C347.396 276.652 347.219 276.588 347 276.588C346.848 276.588 346.706 276.613 346.574 276.663C346.442 276.71 346.335 276.784 346.252 276.884C346.17 276.981 346.129 277.105 346.129 277.254V279.5H345.531ZM350.831 276.578H350.074V278.668C350.074 278.787 350.086 278.875 350.11 278.931C350.136 278.985 350.178 279.02 350.236 279.035C350.297 279.05 350.379 279.058 350.483 279.058H350.851V279.461C350.809 279.476 350.747 279.489 350.662 279.5C350.58 279.511 350.477 279.516 350.353 279.516C350.121 279.516 349.942 279.485 349.814 279.422C349.686 279.359 349.596 279.266 349.544 279.142C349.494 279.019 349.469 278.867 349.469 278.688V276.578H348.923V276.139H349.486L349.632 275.161H350.074V276.136H350.831V276.578ZM353.843 276.139V279.5H353.261V276.139H353.843ZM353.856 274.804V275.428H353.241V274.804H353.856ZM356.093 279.565C355.859 279.565 355.641 279.529 355.44 279.458C355.24 279.384 355.074 279.27 354.942 279.116C354.81 278.96 354.727 278.762 354.692 278.522H355.238C355.268 278.654 355.323 278.764 355.401 278.853C355.481 278.94 355.58 279.006 355.7 279.051C355.819 279.095 355.949 279.116 356.09 279.116C356.315 279.116 356.497 279.074 356.636 278.99C356.774 278.905 356.844 278.775 356.844 278.6C356.844 278.476 356.807 278.378 356.733 278.304C356.662 278.228 356.55 278.173 356.398 278.138L355.703 277.966C355.432 277.901 355.215 277.799 355.053 277.66C354.89 277.522 354.809 277.328 354.809 277.079C354.807 276.882 354.853 276.708 354.949 276.559C355.044 276.409 355.187 276.291 355.378 276.204C355.568 276.118 355.806 276.074 356.09 276.074C356.454 276.074 356.747 276.157 356.97 276.321C357.196 276.484 357.313 276.723 357.321 277.04H356.792C356.77 276.879 356.697 276.753 356.574 276.659C356.452 276.564 356.289 276.516 356.083 276.516C355.869 276.516 355.694 276.56 355.56 276.646C355.425 276.731 355.358 276.863 355.358 277.043C355.358 277.162 355.406 277.256 355.501 277.326C355.597 277.393 355.737 277.449 355.924 277.495L356.597 277.664C356.753 277.705 356.88 277.759 356.98 277.826C357.082 277.893 357.162 277.968 357.221 278.05C357.281 278.133 357.323 278.219 357.347 278.31C357.373 278.399 357.386 278.485 357.386 278.567C357.386 278.773 357.334 278.951 357.23 279.1C357.128 279.248 356.981 279.362 356.788 279.445C356.598 279.525 356.366 279.565 356.093 279.565ZM363.393 277.709C363.393 278.088 363.331 278.418 363.208 278.697C363.084 278.975 362.884 279.189 362.607 279.341C362.332 279.49 361.966 279.565 361.511 279.565C361.054 279.565 360.688 279.489 360.413 279.337C360.138 279.184 359.938 278.966 359.815 278.684C359.694 278.403 359.633 278.067 359.633 277.677V274.8H360.598V277.748C360.598 278.099 360.683 278.356 360.852 278.518C361.021 278.679 361.241 278.759 361.511 278.759C361.691 278.759 361.851 278.724 361.989 278.655C362.128 278.583 362.236 278.474 362.314 278.327C362.394 278.177 362.434 277.984 362.434 277.748V274.8H363.393V277.709ZM366.101 279.565C365.869 279.565 365.642 279.536 365.419 279.477C365.196 279.419 364.992 279.331 364.808 279.214C364.624 279.097 364.471 278.951 364.35 278.775C364.23 278.6 364.159 278.394 364.135 278.158H365.107C365.139 278.301 365.201 278.421 365.292 278.518C365.383 278.616 365.498 278.691 365.637 278.743C365.775 278.795 365.929 278.821 366.098 278.821C366.271 278.821 366.43 278.799 366.573 278.756C366.716 278.712 366.83 278.647 366.917 278.561C367.004 278.472 367.047 278.361 367.047 278.229C367.047 278.11 367.011 278.013 366.94 277.937C366.87 277.861 366.776 277.799 366.657 277.751C366.538 277.704 366.402 277.665 366.251 277.634L365.438 277.469C365.083 277.402 364.801 277.261 364.593 277.046C364.385 276.83 364.278 276.541 364.272 276.182C364.269 275.887 364.347 275.632 364.506 275.418C364.666 275.201 364.883 275.034 365.156 274.917C365.431 274.8 365.738 274.742 366.079 274.742C366.484 274.742 366.824 274.806 367.099 274.934C367.376 275.059 367.587 275.231 367.73 275.447C367.875 275.662 367.949 275.901 367.954 276.165H367.002C366.984 276.001 366.934 275.87 366.852 275.772C366.77 275.675 366.664 275.604 366.534 275.561C366.406 275.518 366.259 275.496 366.095 275.496C365.969 275.496 365.854 275.51 365.75 275.538C365.648 275.566 365.562 275.606 365.49 275.658C365.419 275.708 365.364 275.768 365.325 275.837C365.286 275.907 365.266 275.985 365.266 276.071C365.266 276.208 365.312 276.318 365.403 276.403C365.494 276.487 365.664 276.557 365.913 276.611L366.719 276.776C367.007 276.833 367.236 276.916 367.405 277.027C367.576 277.137 367.704 277.262 367.788 277.4C367.875 277.539 367.931 277.681 367.957 277.826C367.985 277.969 367.999 278.101 367.999 278.223C367.999 278.476 367.919 278.705 367.759 278.908C367.601 279.11 367.38 279.27 367.096 279.389C366.812 279.507 366.48 279.565 366.101 279.565ZM371.992 279.565C371.429 279.565 370.972 279.452 370.621 279.227C370.27 278.999 370.068 278.65 370.016 278.177L371.004 278.158C371.056 278.372 371.168 278.536 371.339 278.648C371.512 278.759 371.729 278.814 371.989 278.814C372.145 278.814 372.282 278.789 372.402 278.739C372.523 278.687 372.618 278.618 372.688 278.531C372.757 278.443 372.792 278.342 372.792 278.229C372.792 278.056 372.736 277.927 372.626 277.842C372.515 277.756 372.345 277.686 372.116 277.634L371.345 277.469C370.988 277.397 370.701 277.255 370.484 277.043C370.27 276.828 370.16 276.541 370.156 276.182C370.154 275.887 370.233 275.632 370.393 275.418C370.556 275.201 370.776 275.034 371.053 274.917C371.332 274.8 371.645 274.742 371.992 274.742C372.347 274.742 372.654 274.806 372.912 274.934C373.172 275.059 373.371 275.229 373.51 275.444C373.651 275.656 373.719 275.891 373.715 276.149L372.756 276.165C372.726 275.957 372.656 275.794 372.548 275.675C372.44 275.556 372.26 275.496 372.008 275.496C371.878 275.496 371.762 275.51 371.661 275.538C371.559 275.566 371.471 275.606 371.397 275.658C371.324 275.708 371.267 275.768 371.228 275.837C371.192 275.907 371.173 275.985 371.173 276.071C371.173 276.208 371.219 276.316 371.31 276.396C371.403 276.474 371.577 276.547 371.833 276.614L372.59 276.799C373.017 276.901 373.325 277.075 373.513 277.322C373.704 277.569 373.799 277.87 373.799 278.223C373.799 278.494 373.724 278.73 373.575 278.931C373.428 279.133 373.218 279.289 372.948 279.399C372.677 279.51 372.358 279.565 371.992 279.565ZM371.586 274.128H372.408V274.973H371.586V274.128ZM371.57 279.276H372.389V280.121H371.57V279.276ZM375.237 279.5V275.98H374.398V275.444C374.667 275.444 374.883 275.419 375.048 275.369C375.215 275.317 375.34 275.244 375.422 275.148C375.504 275.051 375.553 274.935 375.568 274.8H376.199V279.5H375.237ZM378.998 274.735C379.557 274.735 379.998 274.945 380.321 275.363C380.644 275.779 380.805 276.378 380.805 277.16C380.805 277.938 380.646 278.535 380.328 278.951C380.009 279.365 379.566 279.572 378.998 279.572C378.429 279.572 377.983 279.365 377.663 278.951C377.344 278.537 377.185 277.941 377.185 277.163C377.185 276.643 377.259 276.202 377.406 275.84C377.553 275.479 377.762 275.205 378.033 275.018C378.304 274.83 378.626 274.735 378.998 274.735ZM378.998 278.795C379.278 278.795 379.483 278.67 379.613 278.421C379.743 278.17 379.808 277.75 379.808 277.163C379.808 276.563 379.742 276.133 379.609 275.873C379.477 275.613 379.273 275.483 378.995 275.483C378.718 275.483 378.511 275.614 378.374 275.876C378.24 276.138 378.173 276.567 378.173 277.163C378.173 277.748 378.24 278.166 378.374 278.418C378.509 278.669 378.717 278.795 378.998 278.795ZM383.484 274.8H384.417V277.664H385.142V278.46H384.417V279.5H383.504L383.507 278.46H381.342V277.68L383.484 274.8ZM382.22 277.664H383.507V275.941L382.22 277.664ZM385.65 279.5V278.466H386.69V279.5H385.65ZM389.092 279.572C388.8 279.572 388.527 279.515 388.273 279.402C388.02 279.29 387.813 279.132 387.653 278.928C387.492 278.722 387.402 278.482 387.383 278.206H388.286C388.325 278.388 388.412 278.537 388.546 278.652C388.681 278.764 388.85 278.821 389.053 278.821C389.279 278.821 389.476 278.768 389.645 278.661C389.816 278.555 389.944 278.386 390.028 278.154C390.115 277.923 390.145 277.619 390.119 277.244C390.059 277.359 389.974 277.46 389.866 277.547C389.76 277.631 389.635 277.697 389.492 277.745C389.349 277.79 389.19 277.813 389.014 277.813C388.696 277.813 388.413 277.754 388.166 277.634C387.921 277.513 387.728 277.342 387.588 277.121C387.449 276.898 387.38 276.633 387.38 276.328C387.38 276.02 387.453 275.746 387.601 275.506C387.748 275.265 387.954 275.077 388.218 274.94C388.482 274.804 388.792 274.735 389.148 274.735C389.546 274.735 389.89 274.831 390.178 275.021C390.468 275.21 390.69 275.479 390.844 275.828C391 276.174 391.078 276.583 391.078 277.053C391.078 277.614 390.998 278.082 390.838 278.457C390.679 278.829 390.452 279.109 390.155 279.295C389.858 279.479 389.504 279.572 389.092 279.572ZM389.177 277.059C389.309 277.059 389.437 277.03 389.56 276.971C389.686 276.911 389.789 276.835 389.869 276.744C389.949 276.653 389.989 276.559 389.989 276.461C389.991 276.251 389.958 276.071 389.889 275.922C389.821 275.77 389.726 275.654 389.603 275.574C389.481 275.494 389.339 275.454 389.177 275.454C389.027 275.454 388.894 275.488 388.777 275.558C388.66 275.627 388.568 275.725 388.501 275.85C388.434 275.976 388.4 276.121 388.4 276.286C388.4 276.531 388.472 276.721 388.615 276.858C388.758 276.992 388.945 277.059 389.177 277.059ZM393.446 274.735C394.005 274.735 394.446 274.945 394.768 275.363C395.091 275.779 395.253 276.378 395.253 277.16C395.253 277.938 395.093 278.535 394.775 278.951C394.456 279.365 394.013 279.572 393.446 279.572C392.876 279.572 392.431 279.365 392.11 278.951C391.791 278.537 391.632 277.941 391.632 277.163C391.632 276.643 391.706 276.202 391.853 275.84C392.001 275.479 392.21 275.205 392.48 275.018C392.751 274.83 393.073 274.735 393.446 274.735ZM393.446 278.795C393.725 278.795 393.93 278.67 394.06 278.421C394.19 278.17 394.255 277.75 394.255 277.163C394.255 276.563 394.189 276.133 394.057 275.873C393.925 275.613 393.72 275.483 393.442 275.483C393.165 275.483 392.958 275.614 392.822 275.876C392.687 276.138 392.62 276.567 392.62 277.163C392.62 277.748 392.687 278.166 392.822 278.418C392.956 278.669 393.164 278.795 393.446 278.795ZM395.893 279.5V278.733H396.608V279.5H395.893Z" fill="#36536B"/>
</g>
<defs>
<filter id="filter0_d_404_2" x="251.552" y="81.3418" width="315.765" height="459.317" filterUnits="userSpaceOnUse" color-interpolation-filters="sRGB">
<feFlood flood-opacity="0" result="BackgroundImageFix"/>
<feColorMatrix in="SourceAlpha" type="matrix" values="0 0 0 0 0 0 0 0 0 0 0 0 0 0 0 0 0 0 127 0" result="hardAlpha"/>
<feOffset dx="25" dy="25"/>
<feGaussianBlur stdDeviation="40"/>
<feColorMatrix type="matrix" values="0 0 0 0 0.212302 0 0 0 0 0.32521 0 0 0 0 0.419299 0 0 0 0.300727 0"/>
<feBlend mode="normal" in2="BackgroundImageFix" result="effect1_dropShadow_404_2"/>
<feBlend mode="normal" in="SourceGraphic" in2="effect1_dropShadow_404_2" result="shape"/>
</filter>
<filter id="filter1_d_404_2" x="312.805" y="231" width="161.255" height="83.1914" filterUnits="userSpaceOnUse" color-interpolation-filters="sRGB">
<feFlood flood-opacity="0" result="BackgroundImageFix"/>
<feColorMatrix in="SourceAlpha" type="matrix" values="0 0 0 0 0 0 0 0 0 0 0 0 0 0 0 0 0 0 127 0" result="hardAlpha"/>
<feMorphology radius="10" operator="erode" in="SourceAlpha" result="effect1_dropShadow_404_2"/>
<feOffset dx="10" dy="10"/>
<feGaussianBlur stdDeviation="12.5"/>
<feColorMatrix type="matrix" values="0 0 0 0 0.212302 0 0 0 0 0.32521 0 0 0 0 0.419299 0 0 0 0.25 0"/>
<feBlend mode="normal" in2="BackgroundImageFix" result="effect1_dropShadow_404_2"/>
<feBlend mode="normal" in="SourceGraphic" in2="effect1_dropShadow_404_2" result="shape"/>
</filter>
<linearGradient id="paint0_linear_404_2" x1="311.055" y1="136" x2="311.055" y2="143.394" gradientUnits="userSpaceOnUse">
<stop stop-color="#454545"/>
<stop offset="0.226279" stop-color="#999999"/>
<stop offset="1" stop-color="white"/>
</linearGradient>
<linearGradient id="paint1_linear_404_2" x1="462.249" y1="187.448" x2="456.529" y2="187.448" gradientUnits="userSpaceOnUse">
<stop stop-color="white" stop-opacity="0.01"/>
<stop offset="0.222178" stop-color="#BABABA"/>
<stop offset="0.54678" stop-color="white" stop-opacity="0.01"/>
<stop offset="1" stop-color="white" stop-opacity="0.01"/>
</linearGradient>
<linearGradient id="paint2_linear_404_2" x1="306.552" y1="187.292" x2="312.281" y2="187.292" gradientUnits="userSpaceOnUse">
<stop stop-color="white" stop-opacity="0.01"/>
<stop offset="0.222178" stop-color="#BABABA"/>
<stop offset="0.54678" stop-color="white" stop-opacity="0.01"/>
<stop offset="1" stop-color="white" stop-opacity="0.01"/>
</linearGradient>
<linearGradient id="paint3_linear_404_2" x1="314.549" y1="143" x2="314.549" y2="419.828" gradientUnits="userSpaceOnUse">
<stop stop-color="#9CB6CD"/>
<stop offset="0.420564" stop-color="#9AB3CA"/>
<stop offset="0.716592" stop-color="#557496"/>
<stop offset="1" stop-color="#475178"/>
</linearGradient>
<clipPath id="clip0_404_2">
<rect width="132" height="54" fill="white" transform="translate(317.805 236)"/>
</clipPath>
</defs>
</svg>
